<?xml version="1.0" encoding="UTF-8" standalone="no"?>
<!DOCTYPE svg PUBLIC "-//W3C//DTD SVG 1.1//EN"
 "http://www.w3.org/Graphics/SVG/1.1/DTD/svg11.dtd">
<!-- Generated by graphviz version 2.38.0 (20140413.2041)
 -->
<!-- Title: snakemake_dag Pages: 1 -->
<svg width="8578pt" height="188pt"
 viewBox="0.00 0.00 8577.50 188.00" xmlns="http://www.w3.org/2000/svg" xmlns:xlink="http://www.w3.org/1999/xlink">
<g id="graph0" class="graph" transform="scale(1 1) rotate(0) translate(4 184)">
<title>snakemake_dag</title>
<polygon fill="white" stroke="none" points="-4,4 -4,-184 8573.5,-184 8573.5,4 -4,4"/>
<!-- 0 -->
<g id="node1" class="node"><title>0</title>
<path fill="none" stroke="#d85656" stroke-width="2" stroke-dasharray="5,2" d="M4149.5,-36C4149.5,-36 4072.5,-36 4072.5,-36 4066.5,-36 4060.5,-30 4060.5,-24 4060.5,-24 4060.5,-12 4060.5,-12 4060.5,-6 4066.5,-0 4072.5,-0 4072.5,-0 4149.5,-0 4149.5,-0 4155.5,-0 4161.5,-6 4161.5,-12 4161.5,-12 4161.5,-24 4161.5,-24 4161.5,-30 4155.5,-36 4149.5,-36"/>
<text text-anchor="middle" x="4111" y="-15.5" font-family="sans" font-size="10.00">summary_results</text>
</g>
<!-- 1 -->
<g id="node2" class="node"><title>1</title>
<path fill="none" stroke="#88d856" stroke-width="2" stroke-dasharray="5,2" d="M2112,-108C2112,-108 1966,-108 1966,-108 1960,-108 1954,-102 1954,-96 1954,-96 1954,-84 1954,-84 1954,-78 1960,-72 1966,-72 1966,-72 2112,-72 2112,-72 2118,-72 2124,-78 2124,-84 2124,-84 2124,-96 2124,-96 2124,-102 2118,-108 2112,-108"/>
<text text-anchor="middle" x="2039" y="-87.5" font-family="sans" font-size="10.00">summarize_plasmid_prediction</text>
</g>
<!-- 1&#45;&gt;0 -->
<g id="edge1" class="edge"><title>1&#45;&gt;0</title>
<path fill="none" stroke="grey" stroke-width="2" d="M2124.09,-86.1254C2468.4,-74.4933 3754.07,-31.0586 4049.99,-21.0611"/>
<polygon fill="grey" stroke="grey" stroke-width="2" points="4050.22,-24.5555 4060.1,-20.7197 4049.98,-17.5594 4050.22,-24.5555"/>
</g>
<!-- 2 -->
<g id="node3" class="node"><title>2</title>
<path fill="none" stroke="#d8bc56" stroke-width="2" stroke-dasharray="5,2" d="M6243,-108C6243,-108 6145,-108 6145,-108 6139,-108 6133,-102 6133,-96 6133,-96 6133,-84 6133,-84 6133,-78 6139,-72 6145,-72 6145,-72 6243,-72 6243,-72 6249,-72 6255,-78 6255,-84 6255,-84 6255,-96 6255,-96 6255,-102 6249,-108 6243,-108"/>
<text text-anchor="middle" x="6194" y="-87.5" font-family="sans" font-size="10.00">summarize_virulence</text>
</g>
<!-- 2&#45;&gt;0 -->
<g id="edge2" class="edge"><title>2&#45;&gt;0</title>
<path fill="none" stroke="grey" stroke-width="2" d="M6132.79,-86.9429C5827.95,-76.6989 4476.25,-31.2745 4171.97,-21.049"/>
<polygon fill="grey" stroke="grey" stroke-width="2" points="4171.7,-17.5381 4161.59,-20.7002 4171.47,-24.5342 4171.7,-17.5381"/>
</g>
<!-- 3 -->
<g id="node4" class="node"><title>3</title>
<path fill="none" stroke="#56c1d8" stroke-width="2" stroke-dasharray="5,2" d="M98,-180C98,-180 12,-180 12,-180 6,-180 0,-174 0,-168 0,-168 0,-156 0,-156 0,-150 6,-144 12,-144 12,-144 98,-144 98,-144 104,-144 110,-150 110,-156 110,-156 110,-168 110,-168 110,-174 104,-180 98,-180"/>
<text text-anchor="middle" x="55" y="-165" font-family="sans" font-size="10.00">plasmid_prediction</text>
<text text-anchor="middle" x="55" y="-154" font-family="sans" font-size="10.00">sample: MP2&#45;6</text>
</g>
<!-- 3&#45;&gt;1 -->
<g id="edge3" class="edge"><title>3&#45;&gt;1</title>
<path fill="none" stroke="grey" stroke-width="2" d="M110.34,-145.459C113.256,-144.904 116.155,-144.411 119,-144 476.981,-92.2328 1607.04,-90.1423 1943.55,-90.7096"/>
<polygon fill="grey" stroke="grey" stroke-width="2" points="1943.74,-94.2098 1953.75,-90.728 1943.76,-87.2099 1943.74,-94.2098"/>
</g>
<!-- 4 -->
<g id="node5" class="node"><title>4</title>
<path fill="none" stroke="#56c1d8" stroke-width="2" stroke-dasharray="5,2" d="M226,-180C226,-180 140,-180 140,-180 134,-180 128,-174 128,-168 128,-168 128,-156 128,-156 128,-150 134,-144 140,-144 140,-144 226,-144 226,-144 232,-144 238,-150 238,-156 238,-156 238,-168 238,-168 238,-174 232,-180 226,-180"/>
<text text-anchor="middle" x="183" y="-165" font-family="sans" font-size="10.00">plasmid_prediction</text>
<text text-anchor="middle" x="183" y="-154" font-family="sans" font-size="10.00">sample: MP7&#45;18</text>
</g>
<!-- 4&#45;&gt;1 -->
<g id="edge4" class="edge"><title>4&#45;&gt;1</title>
<path fill="none" stroke="grey" stroke-width="2" d="M238.341,-145.466C241.257,-144.91 244.156,-144.414 247,-144 578.922,-95.6673 1622.19,-91.1513 1943.71,-90.9312"/>
<polygon fill="grey" stroke="grey" stroke-width="2" points="1943.93,-94.4312 1953.93,-90.9255 1943.93,-87.4312 1943.93,-94.4312"/>
</g>
<!-- 5 -->
<g id="node6" class="node"><title>5</title>
<path fill="none" stroke="#56c1d8" stroke-width="2" stroke-dasharray="5,2" d="M354,-180C354,-180 268,-180 268,-180 262,-180 256,-174 256,-168 256,-168 256,-156 256,-156 256,-150 262,-144 268,-144 268,-144 354,-144 354,-144 360,-144 366,-150 366,-156 366,-156 366,-168 366,-168 366,-174 360,-180 354,-180"/>
<text text-anchor="middle" x="311" y="-165" font-family="sans" font-size="10.00">plasmid_prediction</text>
<text text-anchor="middle" x="311" y="-154" font-family="sans" font-size="10.00">sample: MP10&#45;1</text>
</g>
<!-- 5&#45;&gt;1 -->
<g id="edge5" class="edge"><title>5&#45;&gt;1</title>
<path fill="none" stroke="grey" stroke-width="2" d="M366.342,-145.474C369.258,-144.915 372.156,-144.417 375,-144 680.911,-99.0998 1637.7,-92.2309 1943.8,-91.1858"/>
<polygon fill="grey" stroke="grey" stroke-width="2" points="1943.99,-94.6853 1953.98,-91.1524 1943.97,-87.6854 1943.99,-94.6853"/>
</g>
<!-- 6 -->
<g id="node7" class="node"><title>6</title>
<path fill="none" stroke="#56c1d8" stroke-width="2" stroke-dasharray="5,2" d="M482,-180C482,-180 396,-180 396,-180 390,-180 384,-174 384,-168 384,-168 384,-156 384,-156 384,-150 390,-144 396,-144 396,-144 482,-144 482,-144 488,-144 494,-150 494,-156 494,-156 494,-168 494,-168 494,-174 488,-180 482,-180"/>
<text text-anchor="middle" x="439" y="-165" font-family="sans" font-size="10.00">plasmid_prediction</text>
<text text-anchor="middle" x="439" y="-154" font-family="sans" font-size="10.00">sample: J2</text>
</g>
<!-- 6&#45;&gt;1 -->
<g id="edge6" class="edge"><title>6&#45;&gt;1</title>
<path fill="none" stroke="grey" stroke-width="2" d="M494.343,-145.483C497.259,-144.922 500.157,-144.421 503,-144 782.927,-102.534 1653.45,-93.3972 1943.72,-91.4829"/>
<polygon fill="grey" stroke="grey" stroke-width="2" points="1943.82,-94.9825 1953.8,-91.4178 1943.78,-87.9826 1943.82,-94.9825"/>
</g>
<!-- 7 -->
<g id="node8" class="node"><title>7</title>
<path fill="none" stroke="#56c1d8" stroke-width="2" stroke-dasharray="5,2" d="M610,-180C610,-180 524,-180 524,-180 518,-180 512,-174 512,-168 512,-168 512,-156 512,-156 512,-150 518,-144 524,-144 524,-144 610,-144 610,-144 616,-144 622,-150 622,-156 622,-156 622,-168 622,-168 622,-174 616,-180 610,-180"/>
<text text-anchor="middle" x="567" y="-165" font-family="sans" font-size="10.00">plasmid_prediction</text>
<text text-anchor="middle" x="567" y="-154" font-family="sans" font-size="10.00">sample: C7</text>
</g>
<!-- 7&#45;&gt;1 -->
<g id="edge7" class="edge"><title>7&#45;&gt;1</title>
<path fill="none" stroke="grey" stroke-width="2" d="M622.345,-145.494C625.26,-144.93 628.158,-144.426 631,-144 884.927,-105.979 1669.19,-94.6751 1943.27,-91.8377"/>
<polygon fill="grey" stroke="grey" stroke-width="2" points="1943.62,-95.3343 1953.59,-91.7324 1943.55,-88.3347 1943.62,-95.3343"/>
</g>
<!-- 8 -->
<g id="node9" class="node"><title>8</title>
<path fill="none" stroke="#56c1d8" stroke-width="2" stroke-dasharray="5,2" d="M738,-180C738,-180 652,-180 652,-180 646,-180 640,-174 640,-168 640,-168 640,-156 640,-156 640,-150 646,-144 652,-144 652,-144 738,-144 738,-144 744,-144 750,-150 750,-156 750,-156 750,-168 750,-168 750,-174 744,-180 738,-180"/>
<text text-anchor="middle" x="695" y="-165" font-family="sans" font-size="10.00">plasmid_prediction</text>
<text text-anchor="middle" x="695" y="-154" font-family="sans" font-size="10.00">sample: MP5&#45;1</text>
</g>
<!-- 8&#45;&gt;1 -->
<g id="edge8" class="edge"><title>8&#45;&gt;1</title>
<path fill="none" stroke="grey" stroke-width="2" d="M750.347,-145.507C753.261,-144.94 756.158,-144.431 759,-144 987.256,-109.384 1687.07,-96.057 1943.52,-92.255"/>
<polygon fill="grey" stroke="grey" stroke-width="2" points="1943.61,-95.7542 1953.56,-92.1077 1943.51,-88.7549 1943.61,-95.7542"/>
</g>
<!-- 9 -->
<g id="node10" class="node"><title>9</title>
<path fill="none" stroke="#56c1d8" stroke-width="2" stroke-dasharray="5,2" d="M866,-180C866,-180 780,-180 780,-180 774,-180 768,-174 768,-168 768,-168 768,-156 768,-156 768,-150 774,-144 780,-144 780,-144 866,-144 866,-144 872,-144 878,-150 878,-156 878,-156 878,-168 878,-168 878,-174 872,-180 866,-180"/>
<text text-anchor="middle" x="823" y="-165" font-family="sans" font-size="10.00">plasmid_prediction</text>
<text text-anchor="middle" x="823" y="-154" font-family="sans" font-size="10.00">sample: OG1RF</text>
</g>
<!-- 9&#45;&gt;1 -->
<g id="edge9" class="edge"><title>9&#45;&gt;1</title>
<path fill="none" stroke="grey" stroke-width="2" d="M878.349,-145.523C881.263,-144.952 884.159,-144.437 887,-144 1089.76,-112.775 1706.12,-97.5784 1943.97,-92.7581"/>
<polygon fill="grey" stroke="grey" stroke-width="2" points="1944.05,-96.2572 1953.98,-92.5568 1943.91,-89.2586 1944.05,-96.2572"/>
</g>
<!-- 10 -->
<g id="node11" class="node"><title>10</title>
<path fill="none" stroke="#56c1d8" stroke-width="2" stroke-dasharray="5,2" d="M994,-180C994,-180 908,-180 908,-180 902,-180 896,-174 896,-168 896,-168 896,-156 896,-156 896,-150 902,-144 908,-144 908,-144 994,-144 994,-144 1000,-144 1006,-150 1006,-156 1006,-156 1006,-168 1006,-168 1006,-174 1000,-180 994,-180"/>
<text text-anchor="middle" x="951" y="-165" font-family="sans" font-size="10.00">plasmid_prediction</text>
<text text-anchor="middle" x="951" y="-154" font-family="sans" font-size="10.00">sample: GT3&#45;2</text>
</g>
<!-- 10&#45;&gt;1 -->
<g id="edge10" class="edge"><title>10&#45;&gt;1</title>
<path fill="none" stroke="grey" stroke-width="2" d="M1006,-145.613C1009.03,-145.008 1012.05,-144.463 1015,-144 1192.23,-116.186 1725.12,-99.3161 1943.79,-93.3982"/>
<polygon fill="grey" stroke="grey" stroke-width="2" points="1944.06,-96.8923 1953.96,-93.1247 1943.87,-89.8948 1944.06,-96.8923"/>
</g>
<!-- 11 -->
<g id="node12" class="node"><title>11</title>
<path fill="none" stroke="#56c1d8" stroke-width="2" stroke-dasharray="5,2" d="M1122,-180C1122,-180 1036,-180 1036,-180 1030,-180 1024,-174 1024,-168 1024,-168 1024,-156 1024,-156 1024,-150 1030,-144 1036,-144 1036,-144 1122,-144 1122,-144 1128,-144 1134,-150 1134,-156 1134,-156 1134,-168 1134,-168 1134,-174 1128,-180 1122,-180"/>
<text text-anchor="middle" x="1079" y="-165" font-family="sans" font-size="10.00">plasmid_prediction</text>
<text text-anchor="middle" x="1079" y="-154" font-family="sans" font-size="10.00">sample: WS1&#45;5</text>
</g>
<!-- 11&#45;&gt;1 -->
<g id="edge11" class="edge"><title>11&#45;&gt;1</title>
<path fill="none" stroke="grey" stroke-width="2" d="M1134.01,-145.639C1137.04,-145.028 1140.05,-144.474 1143,-144 1431.96,-97.5581 1779.21,-90.7338 1943.67,-90.393"/>
<polygon fill="grey" stroke="grey" stroke-width="2" points="1943.77,-93.893 1953.76,-90.3798 1943.76,-86.893 1943.77,-93.893"/>
</g>
<!-- 12 -->
<g id="node13" class="node"><title>12</title>
<path fill="none" stroke="#56c1d8" stroke-width="2" stroke-dasharray="5,2" d="M1250,-180C1250,-180 1164,-180 1164,-180 1158,-180 1152,-174 1152,-168 1152,-168 1152,-156 1152,-156 1152,-150 1158,-144 1164,-144 1164,-144 1250,-144 1250,-144 1256,-144 1262,-150 1262,-156 1262,-156 1262,-168 1262,-168 1262,-174 1256,-180 1250,-180"/>
<text text-anchor="middle" x="1207" y="-165" font-family="sans" font-size="10.00">plasmid_prediction</text>
<text text-anchor="middle" x="1207" y="-154" font-family="sans" font-size="10.00">sample: GT4&#45;4</text>
</g>
<!-- 12&#45;&gt;1 -->
<g id="edge12" class="edge"><title>12&#45;&gt;1</title>
<path fill="none" stroke="grey" stroke-width="2" d="M1262.01,-145.674C1265.04,-145.054 1268.05,-144.489 1271,-144 1510.82,-104.248 1797.54,-94.2286 1943.46,-91.759"/>
<polygon fill="grey" stroke="grey" stroke-width="2" points="1943.78,-95.2545 1953.72,-91.594 1943.67,-88.2554 1943.78,-95.2545"/>
</g>
<!-- 13 -->
<g id="node14" class="node"><title>13</title>
<path fill="none" stroke="#56c1d8" stroke-width="2" stroke-dasharray="5,2" d="M1378,-180C1378,-180 1292,-180 1292,-180 1286,-180 1280,-174 1280,-168 1280,-168 1280,-156 1280,-156 1280,-150 1286,-144 1292,-144 1292,-144 1378,-144 1378,-144 1384,-144 1390,-150 1390,-156 1390,-156 1390,-168 1390,-168 1390,-174 1384,-180 1378,-180"/>
<text text-anchor="middle" x="1335" y="-165" font-family="sans" font-size="10.00">plasmid_prediction</text>
<text text-anchor="middle" x="1335" y="-154" font-family="sans" font-size="10.00">sample: HT1&#45;12</text>
</g>
<!-- 13&#45;&gt;1 -->
<g id="edge13" class="edge"><title>13&#45;&gt;1</title>
<path fill="none" stroke="grey" stroke-width="2" d="M1390.02,-145.723C1393.05,-145.09 1396.05,-144.509 1399,-144 1590.41,-110.921 1817.72,-98.3188 1943.41,-93.643"/>
<polygon fill="grey" stroke="grey" stroke-width="2" points="1943.89,-97.1276 1953.76,-93.2672 1943.64,-90.1323 1943.89,-97.1276"/>
</g>
<!-- 14 -->
<g id="node15" class="node"><title>14</title>
<path fill="none" stroke="#56c1d8" stroke-width="2" stroke-dasharray="5,2" d="M1506,-180C1506,-180 1420,-180 1420,-180 1414,-180 1408,-174 1408,-168 1408,-168 1408,-156 1408,-156 1408,-150 1414,-144 1420,-144 1420,-144 1506,-144 1506,-144 1512,-144 1518,-150 1518,-156 1518,-156 1518,-168 1518,-168 1518,-174 1512,-180 1506,-180"/>
<text text-anchor="middle" x="1463" y="-165" font-family="sans" font-size="10.00">plasmid_prediction</text>
<text text-anchor="middle" x="1463" y="-154" font-family="sans" font-size="10.00">sample: MP9&#45;10</text>
</g>
<!-- 14&#45;&gt;1 -->
<g id="edge14" class="edge"><title>14&#45;&gt;1</title>
<path fill="none" stroke="grey" stroke-width="2" d="M1518.03,-145.796C1521.06,-145.144 1524.06,-144.539 1527,-144 1670.97,-117.595 1840.31,-103.282 1943.62,-96.3973"/>
<polygon fill="grey" stroke="grey" stroke-width="2" points="1943.97,-99.8821 1953.72,-95.7341 1943.51,-92.8971 1943.97,-99.8821"/>
</g>
<!-- 15 -->
<g id="node16" class="node"><title>15</title>
<path fill="none" stroke="#56c1d8" stroke-width="2" stroke-dasharray="5,2" d="M1634,-180C1634,-180 1548,-180 1548,-180 1542,-180 1536,-174 1536,-168 1536,-168 1536,-156 1536,-156 1536,-150 1542,-144 1548,-144 1548,-144 1634,-144 1634,-144 1640,-144 1646,-150 1646,-156 1646,-156 1646,-168 1646,-168 1646,-174 1640,-180 1634,-180"/>
<text text-anchor="middle" x="1591" y="-165" font-family="sans" font-size="10.00">plasmid_prediction</text>
<text text-anchor="middle" x="1591" y="-154" font-family="sans" font-size="10.00">sample: MP1&#45;5</text>
</g>
<!-- 15&#45;&gt;1 -->
<g id="edge15" class="edge"><title>15&#45;&gt;1</title>
<path fill="none" stroke="grey" stroke-width="2" d="M1646.06,-145.917C1649.07,-145.234 1652.07,-144.589 1655,-144 1752.56,-124.388 1865.52,-109.75 1943.55,-100.883"/>
<polygon fill="grey" stroke="grey" stroke-width="2" points="1944.3,-104.321 1953.85,-99.7236 1943.52,-97.3648 1944.3,-104.321"/>
</g>
<!-- 16 -->
<g id="node17" class="node"><title>16</title>
<path fill="none" stroke="#56c1d8" stroke-width="2" stroke-dasharray="5,2" d="M1762,-180C1762,-180 1676,-180 1676,-180 1670,-180 1664,-174 1664,-168 1664,-168 1664,-156 1664,-156 1664,-150 1670,-144 1676,-144 1676,-144 1762,-144 1762,-144 1768,-144 1774,-150 1774,-156 1774,-156 1774,-168 1774,-168 1774,-174 1768,-180 1762,-180"/>
<text text-anchor="middle" x="1719" y="-165" font-family="sans" font-size="10.00">plasmid_prediction</text>
<text text-anchor="middle" x="1719" y="-154" font-family="sans" font-size="10.00">sample: HT2&#45;4</text>
</g>
<!-- 16&#45;&gt;1 -->
<g id="edge16" class="edge"><title>16&#45;&gt;1</title>
<path fill="none" stroke="grey" stroke-width="2" d="M1774.11,-146.154C1777.11,-145.41 1780.09,-144.687 1783,-144 1836.1,-131.461 1895.79,-119.01 1944.16,-109.331"/>
<polygon fill="grey" stroke="grey" stroke-width="2" points="1944.87,-112.759 1953.99,-107.371 1943.5,-105.894 1944.87,-112.759"/>
</g>
<!-- 17 -->
<g id="node18" class="node"><title>17</title>
<path fill="none" stroke="#56c1d8" stroke-width="2" stroke-dasharray="5,2" d="M1890,-180C1890,-180 1804,-180 1804,-180 1798,-180 1792,-174 1792,-168 1792,-168 1792,-156 1792,-156 1792,-150 1798,-144 1804,-144 1804,-144 1890,-144 1890,-144 1896,-144 1902,-150 1902,-156 1902,-156 1902,-168 1902,-168 1902,-174 1896,-180 1890,-180"/>
<text text-anchor="middle" x="1847" y="-165" font-family="sans" font-size="10.00">plasmid_prediction</text>
<text text-anchor="middle" x="1847" y="-154" font-family="sans" font-size="10.00">sample: D2</text>
</g>
<!-- 17&#45;&gt;1 -->
<g id="edge17" class="edge"><title>17&#45;&gt;1</title>
<path fill="none" stroke="grey" stroke-width="2" d="M1893.97,-143.876C1920.68,-134.137 1954.32,-121.872 1982.47,-111.608"/>
<polygon fill="grey" stroke="grey" stroke-width="2" points="1983.99,-114.782 1992.18,-108.068 1981.59,-108.205 1983.99,-114.782"/>
</g>
<!-- 18 -->
<g id="node19" class="node"><title>18</title>
<path fill="none" stroke="#56c1d8" stroke-width="2" stroke-dasharray="5,2" d="M2018,-180C2018,-180 1932,-180 1932,-180 1926,-180 1920,-174 1920,-168 1920,-168 1920,-156 1920,-156 1920,-150 1926,-144 1932,-144 1932,-144 2018,-144 2018,-144 2024,-144 2030,-150 2030,-156 2030,-156 2030,-168 2030,-168 2030,-174 2024,-180 2018,-180"/>
<text text-anchor="middle" x="1975" y="-165" font-family="sans" font-size="10.00">plasmid_prediction</text>
<text text-anchor="middle" x="1975" y="-154" font-family="sans" font-size="10.00">sample: B9</text>
</g>
<!-- 18&#45;&gt;1 -->
<g id="edge18" class="edge"><title>18&#45;&gt;1</title>
<path fill="none" stroke="grey" stroke-width="2" d="M1990.82,-143.697C1998.57,-135.22 2008.04,-124.864 2016.52,-115.583"/>
<polygon fill="grey" stroke="grey" stroke-width="2" points="2019.2,-117.846 2023.36,-108.104 2014.03,-113.123 2019.2,-117.846"/>
</g>
<!-- 19 -->
<g id="node20" class="node"><title>19</title>
<path fill="none" stroke="#56c1d8" stroke-width="2" stroke-dasharray="5,2" d="M2146,-180C2146,-180 2060,-180 2060,-180 2054,-180 2048,-174 2048,-168 2048,-168 2048,-156 2048,-156 2048,-150 2054,-144 2060,-144 2060,-144 2146,-144 2146,-144 2152,-144 2158,-150 2158,-156 2158,-156 2158,-168 2158,-168 2158,-174 2152,-180 2146,-180"/>
<text text-anchor="middle" x="2103" y="-165" font-family="sans" font-size="10.00">plasmid_prediction</text>
<text text-anchor="middle" x="2103" y="-154" font-family="sans" font-size="10.00">sample: MP8&#45;1</text>
</g>
<!-- 19&#45;&gt;1 -->
<g id="edge19" class="edge"><title>19&#45;&gt;1</title>
<path fill="none" stroke="grey" stroke-width="2" d="M2087.18,-143.697C2079.43,-135.22 2069.96,-124.864 2061.48,-115.583"/>
<polygon fill="grey" stroke="grey" stroke-width="2" points="2063.97,-113.123 2054.64,-108.104 2058.8,-117.846 2063.97,-113.123"/>
</g>
<!-- 20 -->
<g id="node21" class="node"><title>20</title>
<path fill="none" stroke="#56c1d8" stroke-width="2" stroke-dasharray="5,2" d="M2274,-180C2274,-180 2188,-180 2188,-180 2182,-180 2176,-174 2176,-168 2176,-168 2176,-156 2176,-156 2176,-150 2182,-144 2188,-144 2188,-144 2274,-144 2274,-144 2280,-144 2286,-150 2286,-156 2286,-156 2286,-168 2286,-168 2286,-174 2280,-180 2274,-180"/>
<text text-anchor="middle" x="2231" y="-165" font-family="sans" font-size="10.00">plasmid_prediction</text>
<text text-anchor="middle" x="2231" y="-154" font-family="sans" font-size="10.00">sample: MP1&#45;1</text>
</g>
<!-- 20&#45;&gt;1 -->
<g id="edge20" class="edge"><title>20&#45;&gt;1</title>
<path fill="none" stroke="grey" stroke-width="2" d="M2184.03,-143.876C2157.32,-134.137 2123.68,-121.872 2095.53,-111.608"/>
<polygon fill="grey" stroke="grey" stroke-width="2" points="2096.41,-108.205 2085.82,-108.068 2094.01,-114.782 2096.41,-108.205"/>
</g>
<!-- 21 -->
<g id="node22" class="node"><title>21</title>
<path fill="none" stroke="#56c1d8" stroke-width="2" stroke-dasharray="5,2" d="M2402,-180C2402,-180 2316,-180 2316,-180 2310,-180 2304,-174 2304,-168 2304,-168 2304,-156 2304,-156 2304,-150 2310,-144 2316,-144 2316,-144 2402,-144 2402,-144 2408,-144 2414,-150 2414,-156 2414,-156 2414,-168 2414,-168 2414,-174 2408,-180 2402,-180"/>
<text text-anchor="middle" x="2359" y="-165" font-family="sans" font-size="10.00">plasmid_prediction</text>
<text text-anchor="middle" x="2359" y="-154" font-family="sans" font-size="10.00">sample: J4</text>
</g>
<!-- 21&#45;&gt;1 -->
<g id="edge21" class="edge"><title>21&#45;&gt;1</title>
<path fill="none" stroke="grey" stroke-width="2" d="M2303.89,-146.154C2300.89,-145.41 2297.91,-144.687 2295,-144 2241.9,-131.461 2182.21,-119.01 2133.84,-109.331"/>
<polygon fill="grey" stroke="grey" stroke-width="2" points="2134.5,-105.894 2124.01,-107.371 2133.13,-112.759 2134.5,-105.894"/>
</g>
<!-- 22 -->
<g id="node23" class="node"><title>22</title>
<path fill="none" stroke="#56c1d8" stroke-width="2" stroke-dasharray="5,2" d="M2530,-180C2530,-180 2444,-180 2444,-180 2438,-180 2432,-174 2432,-168 2432,-168 2432,-156 2432,-156 2432,-150 2438,-144 2444,-144 2444,-144 2530,-144 2530,-144 2536,-144 2542,-150 2542,-156 2542,-156 2542,-168 2542,-168 2542,-174 2536,-180 2530,-180"/>
<text text-anchor="middle" x="2487" y="-165" font-family="sans" font-size="10.00">plasmid_prediction</text>
<text text-anchor="middle" x="2487" y="-154" font-family="sans" font-size="10.00">sample: GT6&#45;1</text>
</g>
<!-- 22&#45;&gt;1 -->
<g id="edge22" class="edge"><title>22&#45;&gt;1</title>
<path fill="none" stroke="grey" stroke-width="2" d="M2431.94,-145.917C2428.93,-145.234 2425.93,-144.589 2423,-144 2325.44,-124.388 2212.48,-109.75 2134.45,-100.883"/>
<polygon fill="grey" stroke="grey" stroke-width="2" points="2134.48,-97.3648 2124.15,-99.7236 2133.7,-104.321 2134.48,-97.3648"/>
</g>
<!-- 23 -->
<g id="node24" class="node"><title>23</title>
<path fill="none" stroke="#56c1d8" stroke-width="2" stroke-dasharray="5,2" d="M2658,-180C2658,-180 2572,-180 2572,-180 2566,-180 2560,-174 2560,-168 2560,-168 2560,-156 2560,-156 2560,-150 2566,-144 2572,-144 2572,-144 2658,-144 2658,-144 2664,-144 2670,-150 2670,-156 2670,-156 2670,-168 2670,-168 2670,-174 2664,-180 2658,-180"/>
<text text-anchor="middle" x="2615" y="-165" font-family="sans" font-size="10.00">plasmid_prediction</text>
<text text-anchor="middle" x="2615" y="-154" font-family="sans" font-size="10.00">sample: MP8&#45;17</text>
</g>
<!-- 23&#45;&gt;1 -->
<g id="edge23" class="edge"><title>23&#45;&gt;1</title>
<path fill="none" stroke="grey" stroke-width="2" d="M2559.97,-145.796C2556.94,-145.144 2553.94,-144.539 2551,-144 2407.03,-117.595 2237.69,-103.282 2134.38,-96.3973"/>
<polygon fill="grey" stroke="grey" stroke-width="2" points="2134.49,-92.8971 2124.28,-95.7341 2134.03,-99.8821 2134.49,-92.8971"/>
</g>
<!-- 24 -->
<g id="node25" class="node"><title>24</title>
<path fill="none" stroke="#56c1d8" stroke-width="2" stroke-dasharray="5,2" d="M2786,-180C2786,-180 2700,-180 2700,-180 2694,-180 2688,-174 2688,-168 2688,-168 2688,-156 2688,-156 2688,-150 2694,-144 2700,-144 2700,-144 2786,-144 2786,-144 2792,-144 2798,-150 2798,-156 2798,-156 2798,-168 2798,-168 2798,-174 2792,-180 2786,-180"/>
<text text-anchor="middle" x="2743" y="-165" font-family="sans" font-size="10.00">plasmid_prediction</text>
<text text-anchor="middle" x="2743" y="-154" font-family="sans" font-size="10.00">sample: HT1&#45;3</text>
</g>
<!-- 24&#45;&gt;1 -->
<g id="edge24" class="edge"><title>24&#45;&gt;1</title>
<path fill="none" stroke="grey" stroke-width="2" d="M2687.98,-145.723C2684.95,-145.09 2681.95,-144.509 2679,-144 2487.59,-110.921 2260.28,-98.3188 2134.59,-93.643"/>
<polygon fill="grey" stroke="grey" stroke-width="2" points="2134.36,-90.1323 2124.24,-93.2672 2134.11,-97.1276 2134.36,-90.1323"/>
</g>
<!-- 25 -->
<g id="node26" class="node"><title>25</title>
<path fill="none" stroke="#56c1d8" stroke-width="2" stroke-dasharray="5,2" d="M2914,-180C2914,-180 2828,-180 2828,-180 2822,-180 2816,-174 2816,-168 2816,-168 2816,-156 2816,-156 2816,-150 2822,-144 2828,-144 2828,-144 2914,-144 2914,-144 2920,-144 2926,-150 2926,-156 2926,-156 2926,-168 2926,-168 2926,-174 2920,-180 2914,-180"/>
<text text-anchor="middle" x="2871" y="-165" font-family="sans" font-size="10.00">plasmid_prediction</text>
<text text-anchor="middle" x="2871" y="-154" font-family="sans" font-size="10.00">sample: MP1&#45;2</text>
</g>
<!-- 25&#45;&gt;1 -->
<g id="edge25" class="edge"><title>25&#45;&gt;1</title>
<path fill="none" stroke="grey" stroke-width="2" d="M2815.99,-145.674C2812.96,-145.054 2809.95,-144.489 2807,-144 2567.18,-104.248 2280.46,-94.2286 2134.54,-91.759"/>
<polygon fill="grey" stroke="grey" stroke-width="2" points="2134.33,-88.2554 2124.28,-91.594 2134.22,-95.2545 2134.33,-88.2554"/>
</g>
<!-- 26 -->
<g id="node27" class="node"><title>26</title>
<path fill="none" stroke="#56c1d8" stroke-width="2" stroke-dasharray="5,2" d="M3042,-180C3042,-180 2956,-180 2956,-180 2950,-180 2944,-174 2944,-168 2944,-168 2944,-156 2944,-156 2944,-150 2950,-144 2956,-144 2956,-144 3042,-144 3042,-144 3048,-144 3054,-150 3054,-156 3054,-156 3054,-168 3054,-168 3054,-174 3048,-180 3042,-180"/>
<text text-anchor="middle" x="2999" y="-165" font-family="sans" font-size="10.00">plasmid_prediction</text>
<text text-anchor="middle" x="2999" y="-154" font-family="sans" font-size="10.00">sample: MP1&#45;4</text>
</g>
<!-- 26&#45;&gt;1 -->
<g id="edge26" class="edge"><title>26&#45;&gt;1</title>
<path fill="none" stroke="grey" stroke-width="2" d="M2943.99,-145.639C2940.96,-145.028 2937.95,-144.474 2935,-144 2646.04,-97.5581 2298.79,-90.7338 2134.33,-90.393"/>
<polygon fill="grey" stroke="grey" stroke-width="2" points="2134.24,-86.893 2124.24,-90.3798 2134.23,-93.893 2134.24,-86.893"/>
</g>
<!-- 27 -->
<g id="node28" class="node"><title>27</title>
<path fill="none" stroke="#56c1d8" stroke-width="2" stroke-dasharray="5,2" d="M3170,-180C3170,-180 3084,-180 3084,-180 3078,-180 3072,-174 3072,-168 3072,-168 3072,-156 3072,-156 3072,-150 3078,-144 3084,-144 3084,-144 3170,-144 3170,-144 3176,-144 3182,-150 3182,-156 3182,-156 3182,-168 3182,-168 3182,-174 3176,-180 3170,-180"/>
<text text-anchor="middle" x="3127" y="-165" font-family="sans" font-size="10.00">plasmid_prediction</text>
<text text-anchor="middle" x="3127" y="-154" font-family="sans" font-size="10.00">sample: DMW1&#45;1</text>
</g>
<!-- 27&#45;&gt;1 -->
<g id="edge27" class="edge"><title>27&#45;&gt;1</title>
<path fill="none" stroke="grey" stroke-width="2" d="M3072,-145.613C3068.97,-145.008 3065.95,-144.463 3063,-144 2885.77,-116.186 2352.88,-99.3161 2134.21,-93.3982"/>
<polygon fill="grey" stroke="grey" stroke-width="2" points="2134.13,-89.8948 2124.04,-93.1247 2133.94,-96.8923 2134.13,-89.8948"/>
</g>
<!-- 28 -->
<g id="node29" class="node"><title>28</title>
<path fill="none" stroke="#56c1d8" stroke-width="2" stroke-dasharray="5,2" d="M3298,-180C3298,-180 3212,-180 3212,-180 3206,-180 3200,-174 3200,-168 3200,-168 3200,-156 3200,-156 3200,-150 3206,-144 3212,-144 3212,-144 3298,-144 3298,-144 3304,-144 3310,-150 3310,-156 3310,-156 3310,-168 3310,-168 3310,-174 3304,-180 3298,-180"/>
<text text-anchor="middle" x="3255" y="-165" font-family="sans" font-size="10.00">plasmid_prediction</text>
<text text-anchor="middle" x="3255" y="-154" font-family="sans" font-size="10.00">sample: GT5&#45;1</text>
</g>
<!-- 28&#45;&gt;1 -->
<g id="edge28" class="edge"><title>28&#45;&gt;1</title>
<path fill="none" stroke="grey" stroke-width="2" d="M3199.65,-145.523C3196.74,-144.952 3193.84,-144.437 3191,-144 2988.24,-112.775 2371.88,-97.5784 2134.03,-92.7581"/>
<polygon fill="grey" stroke="grey" stroke-width="2" points="2134.09,-89.2586 2124.02,-92.5568 2133.95,-96.2572 2134.09,-89.2586"/>
</g>
<!-- 29 -->
<g id="node30" class="node"><title>29</title>
<path fill="none" stroke="#56c1d8" stroke-width="2" stroke-dasharray="5,2" d="M3426,-180C3426,-180 3340,-180 3340,-180 3334,-180 3328,-174 3328,-168 3328,-168 3328,-156 3328,-156 3328,-150 3334,-144 3340,-144 3340,-144 3426,-144 3426,-144 3432,-144 3438,-150 3438,-156 3438,-156 3438,-168 3438,-168 3438,-174 3432,-180 3426,-180"/>
<text text-anchor="middle" x="3383" y="-165" font-family="sans" font-size="10.00">plasmid_prediction</text>
<text text-anchor="middle" x="3383" y="-154" font-family="sans" font-size="10.00">sample: V583</text>
</g>
<!-- 29&#45;&gt;1 -->
<g id="edge29" class="edge"><title>29&#45;&gt;1</title>
<path fill="none" stroke="grey" stroke-width="2" d="M3327.65,-145.507C3324.74,-144.94 3321.84,-144.431 3319,-144 3090.74,-109.384 2390.93,-96.057 2134.48,-92.255"/>
<polygon fill="grey" stroke="grey" stroke-width="2" points="2134.49,-88.7549 2124.44,-92.1077 2134.39,-95.7542 2134.49,-88.7549"/>
</g>
<!-- 30 -->
<g id="node31" class="node"><title>30</title>
<path fill="none" stroke="#56c1d8" stroke-width="2" stroke-dasharray="5,2" d="M3554,-180C3554,-180 3468,-180 3468,-180 3462,-180 3456,-174 3456,-168 3456,-168 3456,-156 3456,-156 3456,-150 3462,-144 3468,-144 3468,-144 3554,-144 3554,-144 3560,-144 3566,-150 3566,-156 3566,-156 3566,-168 3566,-168 3566,-174 3560,-180 3554,-180"/>
<text text-anchor="middle" x="3511" y="-165" font-family="sans" font-size="10.00">plasmid_prediction</text>
<text text-anchor="middle" x="3511" y="-154" font-family="sans" font-size="10.00">sample: RD1&#45;1</text>
</g>
<!-- 30&#45;&gt;1 -->
<g id="edge30" class="edge"><title>30&#45;&gt;1</title>
<path fill="none" stroke="grey" stroke-width="2" d="M3455.65,-145.494C3452.74,-144.93 3449.84,-144.426 3447,-144 3193.07,-105.979 2408.81,-94.6751 2134.73,-91.8377"/>
<polygon fill="grey" stroke="grey" stroke-width="2" points="2134.45,-88.3347 2124.41,-91.7324 2134.38,-95.3343 2134.45,-88.3347"/>
</g>
<!-- 31 -->
<g id="node32" class="node"><title>31</title>
<path fill="none" stroke="#56c1d8" stroke-width="2" stroke-dasharray="5,2" d="M3682,-180C3682,-180 3596,-180 3596,-180 3590,-180 3584,-174 3584,-168 3584,-168 3584,-156 3584,-156 3584,-150 3590,-144 3596,-144 3596,-144 3682,-144 3682,-144 3688,-144 3694,-150 3694,-156 3694,-156 3694,-168 3694,-168 3694,-174 3688,-180 3682,-180"/>
<text text-anchor="middle" x="3639" y="-165" font-family="sans" font-size="10.00">plasmid_prediction</text>
<text text-anchor="middle" x="3639" y="-154" font-family="sans" font-size="10.00">sample: HW1&#45;1</text>
</g>
<!-- 31&#45;&gt;1 -->
<g id="edge31" class="edge"><title>31&#45;&gt;1</title>
<path fill="none" stroke="grey" stroke-width="2" d="M3583.66,-145.483C3580.74,-144.922 3577.84,-144.421 3575,-144 3295.07,-102.534 2424.55,-93.3972 2134.28,-91.4829"/>
<polygon fill="grey" stroke="grey" stroke-width="2" points="2134.22,-87.9826 2124.2,-91.4178 2134.18,-94.9825 2134.22,-87.9826"/>
</g>
<!-- 32 -->
<g id="node33" class="node"><title>32</title>
<path fill="none" stroke="#56c1d8" stroke-width="2" stroke-dasharray="5,2" d="M3810,-180C3810,-180 3724,-180 3724,-180 3718,-180 3712,-174 3712,-168 3712,-168 3712,-156 3712,-156 3712,-150 3718,-144 3724,-144 3724,-144 3810,-144 3810,-144 3816,-144 3822,-150 3822,-156 3822,-156 3822,-168 3822,-168 3822,-174 3816,-180 3810,-180"/>
<text text-anchor="middle" x="3767" y="-165" font-family="sans" font-size="10.00">plasmid_prediction</text>
<text text-anchor="middle" x="3767" y="-154" font-family="sans" font-size="10.00">sample: ST1&#45;20</text>
</g>
<!-- 32&#45;&gt;1 -->
<g id="edge32" class="edge"><title>32&#45;&gt;1</title>
<path fill="none" stroke="grey" stroke-width="2" d="M3711.66,-145.474C3708.74,-144.915 3705.84,-144.417 3703,-144 3397.09,-99.0998 2440.3,-92.2309 2134.2,-91.1858"/>
<polygon fill="grey" stroke="grey" stroke-width="2" points="2134.03,-87.6854 2124.02,-91.1524 2134.01,-94.6853 2134.03,-87.6854"/>
</g>
<!-- 33 -->
<g id="node34" class="node"><title>33</title>
<path fill="none" stroke="#56c1d8" stroke-width="2" stroke-dasharray="5,2" d="M3938,-180C3938,-180 3852,-180 3852,-180 3846,-180 3840,-174 3840,-168 3840,-168 3840,-156 3840,-156 3840,-150 3846,-144 3852,-144 3852,-144 3938,-144 3938,-144 3944,-144 3950,-150 3950,-156 3950,-156 3950,-168 3950,-168 3950,-174 3944,-180 3938,-180"/>
<text text-anchor="middle" x="3895" y="-165" font-family="sans" font-size="10.00">plasmid_prediction</text>
<text text-anchor="middle" x="3895" y="-154" font-family="sans" font-size="10.00">sample: L8</text>
</g>
<!-- 33&#45;&gt;1 -->
<g id="edge33" class="edge"><title>33&#45;&gt;1</title>
<path fill="none" stroke="grey" stroke-width="2" d="M3839.66,-145.466C3836.74,-144.91 3833.84,-144.414 3831,-144 3499.08,-95.6673 2455.81,-91.1513 2134.29,-90.9312"/>
<polygon fill="grey" stroke="grey" stroke-width="2" points="2134.07,-87.4312 2124.07,-90.9255 2134.07,-94.4312 2134.07,-87.4312"/>
</g>
<!-- 34 -->
<g id="node35" class="node"><title>34</title>
<path fill="none" stroke="#56d88a" stroke-width="2" stroke-dasharray="5,2" d="M4087.5,-180C4087.5,-180 3980.5,-180 3980.5,-180 3974.5,-180 3968.5,-174 3968.5,-168 3968.5,-168 3968.5,-156 3968.5,-156 3968.5,-150 3974.5,-144 3980.5,-144 3980.5,-144 4087.5,-144 4087.5,-144 4093.5,-144 4099.5,-150 4099.5,-156 4099.5,-156 4099.5,-168 4099.5,-168 4099.5,-174 4093.5,-180 4087.5,-180"/>
<text text-anchor="middle" x="4034" y="-165" font-family="sans" font-size="10.00">virulence_identification</text>
<text text-anchor="middle" x="4034" y="-154" font-family="sans" font-size="10.00">sample: MP2&#45;6</text>
</g>
<!-- 34&#45;&gt;2 -->
<g id="edge34" class="edge"><title>34&#45;&gt;2</title>
<path fill="none" stroke="grey" stroke-width="2" d="M4099.64,-145.201C4102.46,-144.751 4105.25,-144.347 4108,-144 4510.22,-93.2109 5803.64,-90.7183 6122.47,-90.8943"/>
<polygon fill="grey" stroke="grey" stroke-width="2" points="6122.5,-94.3942 6132.51,-90.9009 6122.51,-87.3942 6122.5,-94.3942"/>
</g>
<!-- 35 -->
<g id="node36" class="node"><title>35</title>
<path fill="none" stroke="#56d88a" stroke-width="2" stroke-dasharray="5,2" d="M4236.5,-180C4236.5,-180 4129.5,-180 4129.5,-180 4123.5,-180 4117.5,-174 4117.5,-168 4117.5,-168 4117.5,-156 4117.5,-156 4117.5,-150 4123.5,-144 4129.5,-144 4129.5,-144 4236.5,-144 4236.5,-144 4242.5,-144 4248.5,-150 4248.5,-156 4248.5,-156 4248.5,-168 4248.5,-168 4248.5,-174 4242.5,-180 4236.5,-180"/>
<text text-anchor="middle" x="4183" y="-165" font-family="sans" font-size="10.00">virulence_identification</text>
<text text-anchor="middle" x="4183" y="-154" font-family="sans" font-size="10.00">sample: MP7&#45;18</text>
</g>
<!-- 35&#45;&gt;2 -->
<g id="edge35" class="edge"><title>35&#45;&gt;2</title>
<path fill="none" stroke="grey" stroke-width="2" d="M4248.65,-145.208C4251.46,-144.756 4254.25,-144.349 4257,-144 4628.42,-96.7312 5818.42,-91.5933 6122.64,-91.0572"/>
<polygon fill="grey" stroke="grey" stroke-width="2" points="6122.67,-94.5573 6132.66,-91.0407 6122.66,-87.5573 6122.67,-94.5573"/>
</g>
<!-- 36 -->
<g id="node37" class="node"><title>36</title>
<path fill="none" stroke="#56d88a" stroke-width="2" stroke-dasharray="5,2" d="M4385.5,-180C4385.5,-180 4278.5,-180 4278.5,-180 4272.5,-180 4266.5,-174 4266.5,-168 4266.5,-168 4266.5,-156 4266.5,-156 4266.5,-150 4272.5,-144 4278.5,-144 4278.5,-144 4385.5,-144 4385.5,-144 4391.5,-144 4397.5,-150 4397.5,-156 4397.5,-156 4397.5,-168 4397.5,-168 4397.5,-174 4391.5,-180 4385.5,-180"/>
<text text-anchor="middle" x="4332" y="-165" font-family="sans" font-size="10.00">virulence_identification</text>
<text text-anchor="middle" x="4332" y="-154" font-family="sans" font-size="10.00">sample: MP10&#45;1</text>
</g>
<!-- 36&#45;&gt;2 -->
<g id="edge36" class="edge"><title>36&#45;&gt;2</title>
<path fill="none" stroke="grey" stroke-width="2" d="M4397.65,-145.216C4400.46,-144.762 4403.25,-144.353 4406,-144 4746.58,-100.262 5832.98,-92.5395 6122.52,-91.2475"/>
<polygon fill="grey" stroke="grey" stroke-width="2" points="6122.9,-94.746 6132.89,-91.2025 6122.87,-87.7461 6122.9,-94.746"/>
</g>
<!-- 37 -->
<g id="node38" class="node"><title>37</title>
<path fill="none" stroke="#56d88a" stroke-width="2" stroke-dasharray="5,2" d="M4534.5,-180C4534.5,-180 4427.5,-180 4427.5,-180 4421.5,-180 4415.5,-174 4415.5,-168 4415.5,-168 4415.5,-156 4415.5,-156 4415.5,-150 4421.5,-144 4427.5,-144 4427.5,-144 4534.5,-144 4534.5,-144 4540.5,-144 4546.5,-150 4546.5,-156 4546.5,-156 4546.5,-168 4546.5,-168 4546.5,-174 4540.5,-180 4534.5,-180"/>
<text text-anchor="middle" x="4481" y="-165" font-family="sans" font-size="10.00">virulence_identification</text>
<text text-anchor="middle" x="4481" y="-154" font-family="sans" font-size="10.00">sample: J2</text>
</g>
<!-- 37&#45;&gt;2 -->
<g id="edge37" class="edge"><title>37&#45;&gt;2</title>
<path fill="none" stroke="grey" stroke-width="2" d="M4546.65,-145.225C4549.46,-144.769 4552.25,-144.356 4555,-144 4864.93,-103.774 5848.77,-93.5631 6122.64,-91.4709"/>
<polygon fill="grey" stroke="grey" stroke-width="2" points="6122.87,-94.9693 6132.85,-91.3942 6122.82,-87.9695 6122.87,-94.9693"/>
</g>
<!-- 38 -->
<g id="node39" class="node"><title>38</title>
<path fill="none" stroke="#56d88a" stroke-width="2" stroke-dasharray="5,2" d="M4683.5,-180C4683.5,-180 4576.5,-180 4576.5,-180 4570.5,-180 4564.5,-174 4564.5,-168 4564.5,-168 4564.5,-156 4564.5,-156 4564.5,-150 4570.5,-144 4576.5,-144 4576.5,-144 4683.5,-144 4683.5,-144 4689.5,-144 4695.5,-150 4695.5,-156 4695.5,-156 4695.5,-168 4695.5,-168 4695.5,-174 4689.5,-180 4683.5,-180"/>
<text text-anchor="middle" x="4630" y="-165" font-family="sans" font-size="10.00">virulence_identification</text>
<text text-anchor="middle" x="4630" y="-154" font-family="sans" font-size="10.00">sample: C7</text>
</g>
<!-- 38&#45;&gt;2 -->
<g id="edge38" class="edge"><title>38&#45;&gt;2</title>
<path fill="none" stroke="grey" stroke-width="2" d="M4695.65,-145.236C4698.46,-144.777 4701.26,-144.361 4704,-144 4983.23,-107.3 5864.36,-94.6969 6122.36,-91.7422"/>
<polygon fill="grey" stroke="grey" stroke-width="2" points="6122.77,-95.2379 6132.73,-91.6249 6122.69,-88.2384 6122.77,-95.2379"/>
</g>
<!-- 39 -->
<g id="node40" class="node"><title>39</title>
<path fill="none" stroke="#56d88a" stroke-width="2" stroke-dasharray="5,2" d="M4832.5,-180C4832.5,-180 4725.5,-180 4725.5,-180 4719.5,-180 4713.5,-174 4713.5,-168 4713.5,-168 4713.5,-156 4713.5,-156 4713.5,-150 4719.5,-144 4725.5,-144 4725.5,-144 4832.5,-144 4832.5,-144 4838.5,-144 4844.5,-150 4844.5,-156 4844.5,-156 4844.5,-168 4844.5,-168 4844.5,-174 4838.5,-180 4832.5,-180"/>
<text text-anchor="middle" x="4779" y="-165" font-family="sans" font-size="10.00">virulence_identification</text>
<text text-anchor="middle" x="4779" y="-154" font-family="sans" font-size="10.00">sample: MP5&#45;1</text>
</g>
<!-- 39&#45;&gt;2 -->
<g id="edge39" class="edge"><title>39&#45;&gt;2</title>
<path fill="none" stroke="grey" stroke-width="2" d="M4844.65,-145.25C4847.46,-144.787 4850.26,-144.366 4853,-144 5101.88,-110.789 5882.21,-95.9324 6122.71,-92.0649"/>
<polygon fill="grey" stroke="grey" stroke-width="2" points="6122.8,-95.5641 6132.74,-91.9051 6122.68,-88.565 6122.8,-95.5641"/>
</g>
<!-- 40 -->
<g id="node41" class="node"><title>40</title>
<path fill="none" stroke="#56d88a" stroke-width="2" stroke-dasharray="5,2" d="M4981.5,-180C4981.5,-180 4874.5,-180 4874.5,-180 4868.5,-180 4862.5,-174 4862.5,-168 4862.5,-168 4862.5,-156 4862.5,-156 4862.5,-150 4868.5,-144 4874.5,-144 4874.5,-144 4981.5,-144 4981.5,-144 4987.5,-144 4993.5,-150 4993.5,-156 4993.5,-156 4993.5,-168 4993.5,-168 4993.5,-174 4987.5,-180 4981.5,-180"/>
<text text-anchor="middle" x="4928" y="-165" font-family="sans" font-size="10.00">virulence_identification</text>
<text text-anchor="middle" x="4928" y="-154" font-family="sans" font-size="10.00">sample: OG1RF</text>
</g>
<!-- 40&#45;&gt;2 -->
<g id="edge40" class="edge"><title>40&#45;&gt;2</title>
<path fill="none" stroke="grey" stroke-width="2" d="M4993.65,-145.267C4996.47,-144.799 4999.26,-144.373 5002,-144 5220.47,-114.299 5899.81,-97.3461 6122.5,-92.477"/>
<polygon fill="grey" stroke="grey" stroke-width="2" points="6122.84,-95.9707 6132.76,-92.2543 6122.69,-88.9723 6122.84,-95.9707"/>
</g>
<!-- 41 -->
<g id="node42" class="node"><title>41</title>
<path fill="none" stroke="#56d88a" stroke-width="2" stroke-dasharray="5,2" d="M5130.5,-180C5130.5,-180 5023.5,-180 5023.5,-180 5017.5,-180 5011.5,-174 5011.5,-168 5011.5,-168 5011.5,-156 5011.5,-156 5011.5,-150 5017.5,-144 5023.5,-144 5023.5,-144 5130.5,-144 5130.5,-144 5136.5,-144 5142.5,-150 5142.5,-156 5142.5,-156 5142.5,-168 5142.5,-168 5142.5,-174 5136.5,-180 5130.5,-180"/>
<text text-anchor="middle" x="5077" y="-165" font-family="sans" font-size="10.00">virulence_identification</text>
<text text-anchor="middle" x="5077" y="-154" font-family="sans" font-size="10.00">sample: GT3&#45;2</text>
</g>
<!-- 41&#45;&gt;2 -->
<g id="edge41" class="edge"><title>41&#45;&gt;2</title>
<path fill="none" stroke="grey" stroke-width="2" d="M5142.66,-145.289C5145.47,-144.815 5148.26,-144.382 5151,-144 5513.75,-93.5129 5953.42,-89.7018 6122.77,-90.3405"/>
<polygon fill="grey" stroke="grey" stroke-width="2" points="6122.79,-93.8405 6132.81,-90.3849 6122.83,-86.8406 6122.79,-93.8405"/>
</g>
<!-- 42 -->
<g id="node43" class="node"><title>42</title>
<path fill="none" stroke="#56d88a" stroke-width="2" stroke-dasharray="5,2" d="M5279.5,-180C5279.5,-180 5172.5,-180 5172.5,-180 5166.5,-180 5160.5,-174 5160.5,-168 5160.5,-168 5160.5,-156 5160.5,-156 5160.5,-150 5166.5,-144 5172.5,-144 5172.5,-144 5279.5,-144 5279.5,-144 5285.5,-144 5291.5,-150 5291.5,-156 5291.5,-156 5291.5,-168 5291.5,-168 5291.5,-174 5285.5,-180 5279.5,-180"/>
<text text-anchor="middle" x="5226" y="-165" font-family="sans" font-size="10.00">virulence_identification</text>
<text text-anchor="middle" x="5226" y="-154" font-family="sans" font-size="10.00">sample: WS1&#45;5</text>
</g>
<!-- 42&#45;&gt;2 -->
<g id="edge42" class="edge"><title>42&#45;&gt;2</title>
<path fill="none" stroke="grey" stroke-width="2" d="M5291.66,-145.318C5294.47,-144.836 5297.26,-144.393 5300,-144 5603.9,-100.394 5970.88,-92.5249 6122.82,-91.2062"/>
<polygon fill="grey" stroke="grey" stroke-width="2" points="6122.97,-94.7052 6132.95,-91.1253 6122.92,-87.7054 6122.97,-94.7052"/>
</g>
<!-- 43 -->
<g id="node44" class="node"><title>43</title>
<path fill="none" stroke="#56d88a" stroke-width="2" stroke-dasharray="5,2" d="M5428.5,-180C5428.5,-180 5321.5,-180 5321.5,-180 5315.5,-180 5309.5,-174 5309.5,-168 5309.5,-168 5309.5,-156 5309.5,-156 5309.5,-150 5315.5,-144 5321.5,-144 5321.5,-144 5428.5,-144 5428.5,-144 5434.5,-144 5440.5,-150 5440.5,-156 5440.5,-156 5440.5,-168 5440.5,-168 5440.5,-174 5434.5,-180 5428.5,-180"/>
<text text-anchor="middle" x="5375" y="-165" font-family="sans" font-size="10.00">virulence_identification</text>
<text text-anchor="middle" x="5375" y="-154" font-family="sans" font-size="10.00">sample: GT4&#45;4</text>
</g>
<!-- 43&#45;&gt;2 -->
<g id="edge43" class="edge"><title>43&#45;&gt;2</title>
<path fill="none" stroke="grey" stroke-width="2" d="M5440.67,-145.359C5443.48,-144.866 5446.26,-144.409 5449,-144 5694.6,-107.279 5989.67,-95.8386 6122.74,-92.4047"/>
<polygon fill="grey" stroke="grey" stroke-width="2" points="6122.9,-95.9019 6132.81,-92.1523 6122.73,-88.9041 6122.9,-95.9019"/>
</g>
<!-- 44 -->
<g id="node45" class="node"><title>44</title>
<path fill="none" stroke="#56d88a" stroke-width="2" stroke-dasharray="5,2" d="M5577.5,-180C5577.5,-180 5470.5,-180 5470.5,-180 5464.5,-180 5458.5,-174 5458.5,-168 5458.5,-168 5458.5,-156 5458.5,-156 5458.5,-150 5464.5,-144 5470.5,-144 5470.5,-144 5577.5,-144 5577.5,-144 5583.5,-144 5589.5,-150 5589.5,-156 5589.5,-156 5589.5,-168 5589.5,-168 5589.5,-174 5583.5,-180 5577.5,-180"/>
<text text-anchor="middle" x="5524" y="-165" font-family="sans" font-size="10.00">virulence_identification</text>
<text text-anchor="middle" x="5524" y="-154" font-family="sans" font-size="10.00">sample: HT1&#45;12</text>
</g>
<!-- 44&#45;&gt;2 -->
<g id="edge44" class="edge"><title>44&#45;&gt;2</title>
<path fill="none" stroke="grey" stroke-width="2" d="M5589.68,-145.42C5592.48,-144.91 5595.27,-144.434 5598,-144 5786.04,-114.184 6010.32,-99.8948 6122.56,-94.1827"/>
<polygon fill="grey" stroke="grey" stroke-width="2" points="6122.93,-97.6687 6132.74,-93.6725 6122.58,-90.6775 6122.93,-97.6687"/>
</g>
<!-- 45 -->
<g id="node46" class="node"><title>45</title>
<path fill="none" stroke="#56d88a" stroke-width="2" stroke-dasharray="5,2" d="M5726.5,-180C5726.5,-180 5619.5,-180 5619.5,-180 5613.5,-180 5607.5,-174 5607.5,-168 5607.5,-168 5607.5,-156 5607.5,-156 5607.5,-150 5613.5,-144 5619.5,-144 5619.5,-144 5726.5,-144 5726.5,-144 5732.5,-144 5738.5,-150 5738.5,-156 5738.5,-156 5738.5,-168 5738.5,-168 5738.5,-174 5732.5,-180 5726.5,-180"/>
<text text-anchor="middle" x="5673" y="-165" font-family="sans" font-size="10.00">virulence_identification</text>
<text text-anchor="middle" x="5673" y="-154" font-family="sans" font-size="10.00">sample: MP9&#45;10</text>
</g>
<!-- 45&#45;&gt;2 -->
<g id="edge45" class="edge"><title>45&#45;&gt;2</title>
<path fill="none" stroke="grey" stroke-width="2" d="M5738.69,-145.522C5741.49,-144.984 5744.27,-144.474 5747,-144 5878.83,-121.11 6034.28,-105.13 6122.77,-97.0568"/>
<polygon fill="grey" stroke="grey" stroke-width="2" points="6123.32,-100.522 6132.97,-96.1351 6122.69,-93.5502 6123.32,-100.522"/>
</g>
<!-- 46 -->
<g id="node47" class="node"><title>46</title>
<path fill="none" stroke="#56d88a" stroke-width="2" stroke-dasharray="5,2" d="M5875.5,-180C5875.5,-180 5768.5,-180 5768.5,-180 5762.5,-180 5756.5,-174 5756.5,-168 5756.5,-168 5756.5,-156 5756.5,-156 5756.5,-150 5762.5,-144 5768.5,-144 5768.5,-144 5875.5,-144 5875.5,-144 5881.5,-144 5887.5,-150 5887.5,-156 5887.5,-156 5887.5,-168 5887.5,-168 5887.5,-174 5881.5,-180 5875.5,-180"/>
<text text-anchor="middle" x="5822" y="-165" font-family="sans" font-size="10.00">virulence_identification</text>
<text text-anchor="middle" x="5822" y="-154" font-family="sans" font-size="10.00">sample: MP1&#45;5</text>
</g>
<!-- 46&#45;&gt;2 -->
<g id="edge46" class="edge"><title>46&#45;&gt;2</title>
<path fill="none" stroke="grey" stroke-width="2" d="M5887.73,-145.721C5890.52,-145.129 5893.29,-144.552 5896,-144 5973.15,-128.288 6062.07,-112.812 6122.56,-102.679"/>
<polygon fill="grey" stroke="grey" stroke-width="2" points="6123.48,-106.074 6132.76,-100.975 6122.32,-99.1697 6123.48,-106.074"/>
</g>
<!-- 47 -->
<g id="node48" class="node"><title>47</title>
<path fill="none" stroke="#56d88a" stroke-width="2" stroke-dasharray="5,2" d="M6024.5,-180C6024.5,-180 5917.5,-180 5917.5,-180 5911.5,-180 5905.5,-174 5905.5,-168 5905.5,-168 5905.5,-156 5905.5,-156 5905.5,-150 5911.5,-144 5917.5,-144 5917.5,-144 6024.5,-144 6024.5,-144 6030.5,-144 6036.5,-150 6036.5,-156 6036.5,-156 6036.5,-168 6036.5,-168 6036.5,-174 6030.5,-180 6024.5,-180"/>
<text text-anchor="middle" x="5971" y="-165" font-family="sans" font-size="10.00">virulence_identification</text>
<text text-anchor="middle" x="5971" y="-154" font-family="sans" font-size="10.00">sample: HT2&#45;4</text>
</g>
<!-- 47&#45;&gt;2 -->
<g id="edge47" class="edge"><title>47&#45;&gt;2</title>
<path fill="none" stroke="grey" stroke-width="2" d="M6025.27,-143.966C6056.83,-134.057 6096.79,-121.514 6129.9,-111.121"/>
<polygon fill="grey" stroke="grey" stroke-width="2" points="6131,-114.445 6139.49,-108.111 6128.9,-107.766 6131,-114.445"/>
</g>
<!-- 48 -->
<g id="node49" class="node"><title>48</title>
<path fill="none" stroke="#56d88a" stroke-width="2" stroke-dasharray="5,2" d="M6173.5,-180C6173.5,-180 6066.5,-180 6066.5,-180 6060.5,-180 6054.5,-174 6054.5,-168 6054.5,-168 6054.5,-156 6054.5,-156 6054.5,-150 6060.5,-144 6066.5,-144 6066.5,-144 6173.5,-144 6173.5,-144 6179.5,-144 6185.5,-150 6185.5,-156 6185.5,-156 6185.5,-168 6185.5,-168 6185.5,-174 6179.5,-180 6173.5,-180"/>
<text text-anchor="middle" x="6120" y="-165" font-family="sans" font-size="10.00">virulence_identification</text>
<text text-anchor="middle" x="6120" y="-154" font-family="sans" font-size="10.00">sample: D2</text>
</g>
<!-- 48&#45;&gt;2 -->
<g id="edge48" class="edge"><title>48&#45;&gt;2</title>
<path fill="none" stroke="grey" stroke-width="2" d="M6138.29,-143.697C6147.43,-135.05 6158.64,-124.449 6168.6,-115.027"/>
<polygon fill="grey" stroke="grey" stroke-width="2" points="6171.06,-117.519 6175.92,-108.104 6166.25,-112.434 6171.06,-117.519"/>
</g>
<!-- 49 -->
<g id="node50" class="node"><title>49</title>
<path fill="none" stroke="#56d88a" stroke-width="2" stroke-dasharray="5,2" d="M6322.5,-180C6322.5,-180 6215.5,-180 6215.5,-180 6209.5,-180 6203.5,-174 6203.5,-168 6203.5,-168 6203.5,-156 6203.5,-156 6203.5,-150 6209.5,-144 6215.5,-144 6215.5,-144 6322.5,-144 6322.5,-144 6328.5,-144 6334.5,-150 6334.5,-156 6334.5,-156 6334.5,-168 6334.5,-168 6334.5,-174 6328.5,-180 6322.5,-180"/>
<text text-anchor="middle" x="6269" y="-165" font-family="sans" font-size="10.00">virulence_identification</text>
<text text-anchor="middle" x="6269" y="-154" font-family="sans" font-size="10.00">sample: B9</text>
</g>
<!-- 49&#45;&gt;2 -->
<g id="edge49" class="edge"><title>49&#45;&gt;2</title>
<path fill="none" stroke="grey" stroke-width="2" d="M6250.46,-143.697C6241.2,-135.05 6229.84,-124.449 6219.74,-115.027"/>
<polygon fill="grey" stroke="grey" stroke-width="2" points="6222.02,-112.369 6212.33,-108.104 6217.25,-117.486 6222.02,-112.369"/>
</g>
<!-- 50 -->
<g id="node51" class="node"><title>50</title>
<path fill="none" stroke="#56d88a" stroke-width="2" stroke-dasharray="5,2" d="M6471.5,-180C6471.5,-180 6364.5,-180 6364.5,-180 6358.5,-180 6352.5,-174 6352.5,-168 6352.5,-168 6352.5,-156 6352.5,-156 6352.5,-150 6358.5,-144 6364.5,-144 6364.5,-144 6471.5,-144 6471.5,-144 6477.5,-144 6483.5,-150 6483.5,-156 6483.5,-156 6483.5,-168 6483.5,-168 6483.5,-174 6477.5,-180 6471.5,-180"/>
<text text-anchor="middle" x="6418" y="-165" font-family="sans" font-size="10.00">virulence_identification</text>
<text text-anchor="middle" x="6418" y="-154" font-family="sans" font-size="10.00">sample: MP8&#45;1</text>
</g>
<!-- 50&#45;&gt;2 -->
<g id="edge50" class="edge"><title>50&#45;&gt;2</title>
<path fill="none" stroke="grey" stroke-width="2" d="M6363.49,-143.966C6331.78,-134.057 6291.64,-121.514 6258.39,-111.121"/>
<polygon fill="grey" stroke="grey" stroke-width="2" points="6259.34,-107.753 6248.75,-108.111 6257.26,-114.434 6259.34,-107.753"/>
</g>
<!-- 51 -->
<g id="node52" class="node"><title>51</title>
<path fill="none" stroke="#56d88a" stroke-width="2" stroke-dasharray="5,2" d="M6620.5,-180C6620.5,-180 6513.5,-180 6513.5,-180 6507.5,-180 6501.5,-174 6501.5,-168 6501.5,-168 6501.5,-156 6501.5,-156 6501.5,-150 6507.5,-144 6513.5,-144 6513.5,-144 6620.5,-144 6620.5,-144 6626.5,-144 6632.5,-150 6632.5,-156 6632.5,-156 6632.5,-168 6632.5,-168 6632.5,-174 6626.5,-180 6620.5,-180"/>
<text text-anchor="middle" x="6567" y="-165" font-family="sans" font-size="10.00">virulence_identification</text>
<text text-anchor="middle" x="6567" y="-154" font-family="sans" font-size="10.00">sample: MP1&#45;1</text>
</g>
<!-- 51&#45;&gt;2 -->
<g id="edge51" class="edge"><title>51&#45;&gt;2</title>
<path fill="none" stroke="grey" stroke-width="2" d="M6501.27,-145.719C6498.48,-145.127 6495.71,-144.552 6493,-144 6415.47,-128.234 6326.09,-112.74 6265.4,-102.616"/>
<polygon fill="grey" stroke="grey" stroke-width="2" points="6265.6,-99.1014 6255.16,-100.914 6264.45,-106.007 6265.6,-99.1014"/>
</g>
<!-- 52 -->
<g id="node53" class="node"><title>52</title>
<path fill="none" stroke="#56d88a" stroke-width="2" stroke-dasharray="5,2" d="M6769.5,-180C6769.5,-180 6662.5,-180 6662.5,-180 6656.5,-180 6650.5,-174 6650.5,-168 6650.5,-168 6650.5,-156 6650.5,-156 6650.5,-150 6656.5,-144 6662.5,-144 6662.5,-144 6769.5,-144 6769.5,-144 6775.5,-144 6781.5,-150 6781.5,-156 6781.5,-156 6781.5,-168 6781.5,-168 6781.5,-174 6775.5,-180 6769.5,-180"/>
<text text-anchor="middle" x="6716" y="-165" font-family="sans" font-size="10.00">virulence_identification</text>
<text text-anchor="middle" x="6716" y="-154" font-family="sans" font-size="10.00">sample: J4</text>
</g>
<!-- 52&#45;&gt;2 -->
<g id="edge52" class="edge"><title>52&#45;&gt;2</title>
<path fill="none" stroke="grey" stroke-width="2" d="M6650.31,-145.521C6647.51,-144.983 6644.73,-144.473 6642,-144 6509.87,-121.077 6354.08,-105.108 6265.39,-97.0459"/>
<polygon fill="grey" stroke="grey" stroke-width="2" points="6265.44,-93.5372 6255.17,-96.1255 6264.82,-100.509 6265.44,-93.5372"/>
</g>
<!-- 53 -->
<g id="node54" class="node"><title>53</title>
<path fill="none" stroke="#56d88a" stroke-width="2" stroke-dasharray="5,2" d="M6918.5,-180C6918.5,-180 6811.5,-180 6811.5,-180 6805.5,-180 6799.5,-174 6799.5,-168 6799.5,-168 6799.5,-156 6799.5,-156 6799.5,-150 6805.5,-144 6811.5,-144 6811.5,-144 6918.5,-144 6918.5,-144 6924.5,-144 6930.5,-150 6930.5,-156 6930.5,-156 6930.5,-168 6930.5,-168 6930.5,-174 6924.5,-180 6918.5,-180"/>
<text text-anchor="middle" x="6865" y="-165" font-family="sans" font-size="10.00">virulence_identification</text>
<text text-anchor="middle" x="6865" y="-154" font-family="sans" font-size="10.00">sample: GT6&#45;1</text>
</g>
<!-- 53&#45;&gt;2 -->
<g id="edge53" class="edge"><title>53&#45;&gt;2</title>
<path fill="none" stroke="grey" stroke-width="2" d="M6799.32,-145.42C6796.52,-144.91 6793.73,-144.433 6791,-144 6602.64,-114.148 6377.99,-99.8745 6265.56,-94.174"/>
<polygon fill="grey" stroke="grey" stroke-width="2" points="6265.52,-90.668 6255.36,-93.665 6265.17,-97.6593 6265.52,-90.668"/>
</g>
<!-- 54 -->
<g id="node55" class="node"><title>54</title>
<path fill="none" stroke="#56d88a" stroke-width="2" stroke-dasharray="5,2" d="M7067.5,-180C7067.5,-180 6960.5,-180 6960.5,-180 6954.5,-180 6948.5,-174 6948.5,-168 6948.5,-168 6948.5,-156 6948.5,-156 6948.5,-150 6954.5,-144 6960.5,-144 6960.5,-144 7067.5,-144 7067.5,-144 7073.5,-144 7079.5,-150 7079.5,-156 7079.5,-156 7079.5,-168 7079.5,-168 7079.5,-174 7073.5,-180 7067.5,-180"/>
<text text-anchor="middle" x="7014" y="-165" font-family="sans" font-size="10.00">virulence_identification</text>
<text text-anchor="middle" x="7014" y="-154" font-family="sans" font-size="10.00">sample: MP8&#45;17</text>
</g>
<!-- 54&#45;&gt;2 -->
<g id="edge54" class="edge"><title>54&#45;&gt;2</title>
<path fill="none" stroke="grey" stroke-width="2" d="M6948.33,-145.359C6945.52,-144.866 6942.74,-144.409 6940,-144 6694.07,-107.242 6398.61,-95.8198 6265.35,-92.3976"/>
<polygon fill="grey" stroke="grey" stroke-width="2" points="6265.36,-88.8967 6255.27,-92.1461 6265.18,-95.8945 6265.36,-88.8967"/>
</g>
<!-- 55 -->
<g id="node56" class="node"><title>55</title>
<path fill="none" stroke="#56d88a" stroke-width="2" stroke-dasharray="5,2" d="M7216.5,-180C7216.5,-180 7109.5,-180 7109.5,-180 7103.5,-180 7097.5,-174 7097.5,-168 7097.5,-168 7097.5,-156 7097.5,-156 7097.5,-150 7103.5,-144 7109.5,-144 7109.5,-144 7216.5,-144 7216.5,-144 7222.5,-144 7228.5,-150 7228.5,-156 7228.5,-156 7228.5,-168 7228.5,-168 7228.5,-174 7222.5,-180 7216.5,-180"/>
<text text-anchor="middle" x="7163" y="-165" font-family="sans" font-size="10.00">virulence_identification</text>
<text text-anchor="middle" x="7163" y="-154" font-family="sans" font-size="10.00">sample: HT1&#45;3</text>
</g>
<!-- 55&#45;&gt;2 -->
<g id="edge55" class="edge"><title>55&#45;&gt;2</title>
<path fill="none" stroke="grey" stroke-width="2" d="M7097.34,-145.318C7094.53,-144.836 7091.74,-144.393 7089,-144 6784.76,-100.355 6417.37,-92.5073 6265.26,-91.2002"/>
<polygon fill="grey" stroke="grey" stroke-width="2" points="6265.15,-87.6993 6255.12,-91.1201 6265.09,-94.699 6265.15,-87.6993"/>
</g>
<!-- 56 -->
<g id="node57" class="node"><title>56</title>
<path fill="none" stroke="#56d88a" stroke-width="2" stroke-dasharray="5,2" d="M7365.5,-180C7365.5,-180 7258.5,-180 7258.5,-180 7252.5,-180 7246.5,-174 7246.5,-168 7246.5,-168 7246.5,-156 7246.5,-156 7246.5,-150 7252.5,-144 7258.5,-144 7258.5,-144 7365.5,-144 7365.5,-144 7371.5,-144 7377.5,-150 7377.5,-156 7377.5,-156 7377.5,-168 7377.5,-168 7377.5,-174 7371.5,-180 7365.5,-180"/>
<text text-anchor="middle" x="7312" y="-165" font-family="sans" font-size="10.00">virulence_identification</text>
<text text-anchor="middle" x="7312" y="-154" font-family="sans" font-size="10.00">sample: MP1&#45;2</text>
</g>
<!-- 56&#45;&gt;2 -->
<g id="edge56" class="edge"><title>56&#45;&gt;2</title>
<path fill="none" stroke="grey" stroke-width="2" d="M7246.34,-145.289C7243.53,-144.815 7240.74,-144.382 7238,-144 6874.9,-93.4735 6434.81,-89.6852 6265.3,-90.3352"/>
<polygon fill="grey" stroke="grey" stroke-width="2" points="6265.23,-86.8354 6255.25,-90.3803 6265.26,-93.8353 6265.23,-86.8354"/>
</g>
<!-- 57 -->
<g id="node58" class="node"><title>57</title>
<path fill="none" stroke="#56d88a" stroke-width="2" stroke-dasharray="5,2" d="M7514.5,-180C7514.5,-180 7407.5,-180 7407.5,-180 7401.5,-180 7395.5,-174 7395.5,-168 7395.5,-168 7395.5,-156 7395.5,-156 7395.5,-150 7401.5,-144 7407.5,-144 7407.5,-144 7514.5,-144 7514.5,-144 7520.5,-144 7526.5,-150 7526.5,-156 7526.5,-156 7526.5,-168 7526.5,-168 7526.5,-174 7520.5,-180 7514.5,-180"/>
<text text-anchor="middle" x="7461" y="-165" font-family="sans" font-size="10.00">virulence_identification</text>
<text text-anchor="middle" x="7461" y="-154" font-family="sans" font-size="10.00">sample: MP1&#45;4</text>
</g>
<!-- 57&#45;&gt;2 -->
<g id="edge57" class="edge"><title>57&#45;&gt;2</title>
<path fill="none" stroke="grey" stroke-width="2" d="M7395.35,-145.267C7392.53,-144.799 7389.74,-144.373 7387,-144 7168.35,-114.278 6488.44,-97.3391 6265.56,-92.4752"/>
<polygon fill="grey" stroke="grey" stroke-width="2" points="6265.36,-88.9704 6255.29,-92.2527 6265.21,-95.9687 6265.36,-88.9704"/>
</g>
<!-- 58 -->
<g id="node59" class="node"><title>58</title>
<path fill="none" stroke="#56d88a" stroke-width="2" stroke-dasharray="5,2" d="M7663.5,-180C7663.5,-180 7556.5,-180 7556.5,-180 7550.5,-180 7544.5,-174 7544.5,-168 7544.5,-168 7544.5,-156 7544.5,-156 7544.5,-150 7550.5,-144 7556.5,-144 7556.5,-144 7663.5,-144 7663.5,-144 7669.5,-144 7675.5,-150 7675.5,-156 7675.5,-156 7675.5,-168 7675.5,-168 7675.5,-174 7669.5,-180 7663.5,-180"/>
<text text-anchor="middle" x="7610" y="-165" font-family="sans" font-size="10.00">virulence_identification</text>
<text text-anchor="middle" x="7610" y="-154" font-family="sans" font-size="10.00">sample: DMW1&#45;1</text>
</g>
<!-- 58&#45;&gt;2 -->
<g id="edge58" class="edge"><title>58&#45;&gt;2</title>
<path fill="none" stroke="grey" stroke-width="2" d="M7544.35,-145.25C7541.54,-144.787 7538.74,-144.366 7536,-144 7286.93,-110.768 6506.02,-95.9257 6265.34,-92.0634"/>
<polygon fill="grey" stroke="grey" stroke-width="2" points="6265.36,-88.5633 6255.31,-91.9037 6265.25,-95.5625 6265.36,-88.5633"/>
</g>
<!-- 59 -->
<g id="node60" class="node"><title>59</title>
<path fill="none" stroke="#56d88a" stroke-width="2" stroke-dasharray="5,2" d="M7812.5,-180C7812.5,-180 7705.5,-180 7705.5,-180 7699.5,-180 7693.5,-174 7693.5,-168 7693.5,-168 7693.5,-156 7693.5,-156 7693.5,-150 7699.5,-144 7705.5,-144 7705.5,-144 7812.5,-144 7812.5,-144 7818.5,-144 7824.5,-150 7824.5,-156 7824.5,-156 7824.5,-168 7824.5,-168 7824.5,-174 7818.5,-180 7812.5,-180"/>
<text text-anchor="middle" x="7759" y="-165" font-family="sans" font-size="10.00">virulence_identification</text>
<text text-anchor="middle" x="7759" y="-154" font-family="sans" font-size="10.00">sample: GT5&#45;1</text>
</g>
<!-- 59&#45;&gt;2 -->
<g id="edge59" class="edge"><title>59&#45;&gt;2</title>
<path fill="none" stroke="grey" stroke-width="2" d="M7693.35,-145.236C7690.54,-144.777 7687.74,-144.361 7685,-144 7405.58,-107.279 6523.86,-94.6905 6265.69,-91.7408"/>
<polygon fill="grey" stroke="grey" stroke-width="2" points="6265.35,-88.2369 6255.31,-91.6237 6265.27,-95.2364 6265.35,-88.2369"/>
</g>
<!-- 60 -->
<g id="node61" class="node"><title>60</title>
<path fill="none" stroke="#56d88a" stroke-width="2" stroke-dasharray="5,2" d="M7961.5,-180C7961.5,-180 7854.5,-180 7854.5,-180 7848.5,-180 7842.5,-174 7842.5,-168 7842.5,-168 7842.5,-156 7842.5,-156 7842.5,-150 7848.5,-144 7854.5,-144 7854.5,-144 7961.5,-144 7961.5,-144 7967.5,-144 7973.5,-150 7973.5,-156 7973.5,-156 7973.5,-168 7973.5,-168 7973.5,-174 7967.5,-180 7961.5,-180"/>
<text text-anchor="middle" x="7908" y="-165" font-family="sans" font-size="10.00">virulence_identification</text>
<text text-anchor="middle" x="7908" y="-154" font-family="sans" font-size="10.00">sample: V583</text>
</g>
<!-- 60&#45;&gt;2 -->
<g id="edge60" class="edge"><title>60&#45;&gt;2</title>
<path fill="none" stroke="grey" stroke-width="2" d="M7842.35,-145.225C7839.54,-144.768 7836.75,-144.356 7834,-144 7523.88,-103.753 6539.44,-93.557 6265.41,-91.4696"/>
<polygon fill="grey" stroke="grey" stroke-width="2" points="6265.22,-87.9682 6255.19,-91.3931 6265.16,-94.968 6265.22,-87.9682"/>
</g>
<!-- 61 -->
<g id="node62" class="node"><title>61</title>
<path fill="none" stroke="#56d88a" stroke-width="2" stroke-dasharray="5,2" d="M8110.5,-180C8110.5,-180 8003.5,-180 8003.5,-180 7997.5,-180 7991.5,-174 7991.5,-168 7991.5,-168 7991.5,-156 7991.5,-156 7991.5,-150 7997.5,-144 8003.5,-144 8003.5,-144 8110.5,-144 8110.5,-144 8116.5,-144 8122.5,-150 8122.5,-156 8122.5,-156 8122.5,-168 8122.5,-168 8122.5,-174 8116.5,-180 8110.5,-180"/>
<text text-anchor="middle" x="8057" y="-165" font-family="sans" font-size="10.00">virulence_identification</text>
<text text-anchor="middle" x="8057" y="-154" font-family="sans" font-size="10.00">sample: RD1&#45;1</text>
</g>
<!-- 61&#45;&gt;2 -->
<g id="edge61" class="edge"><title>61&#45;&gt;2</title>
<path fill="none" stroke="grey" stroke-width="2" d="M7991.35,-145.216C7988.54,-144.762 7985.75,-144.353 7983,-144 7642.22,-100.24 6555.22,-92.5336 6265.52,-91.2463"/>
<polygon fill="grey" stroke="grey" stroke-width="2" points="6265.16,-87.7449 6255.15,-91.2015 6265.13,-94.7448 6265.16,-87.7449"/>
</g>
<!-- 62 -->
<g id="node63" class="node"><title>62</title>
<path fill="none" stroke="#56d88a" stroke-width="2" stroke-dasharray="5,2" d="M8259.5,-180C8259.5,-180 8152.5,-180 8152.5,-180 8146.5,-180 8140.5,-174 8140.5,-168 8140.5,-168 8140.5,-156 8140.5,-156 8140.5,-150 8146.5,-144 8152.5,-144 8152.5,-144 8259.5,-144 8259.5,-144 8265.5,-144 8271.5,-150 8271.5,-156 8271.5,-156 8271.5,-168 8271.5,-168 8271.5,-174 8265.5,-180 8259.5,-180"/>
<text text-anchor="middle" x="8206" y="-165" font-family="sans" font-size="10.00">virulence_identification</text>
<text text-anchor="middle" x="8206" y="-154" font-family="sans" font-size="10.00">sample: HW1&#45;1</text>
</g>
<!-- 62&#45;&gt;2 -->
<g id="edge62" class="edge"><title>62&#45;&gt;2</title>
<path fill="none" stroke="grey" stroke-width="2" d="M8140.35,-145.208C8137.54,-144.756 8134.75,-144.349 8132,-144 7760.38,-96.7094 6569.77,-91.5876 6265.39,-91.0561"/>
<polygon fill="grey" stroke="grey" stroke-width="2" points="6265.37,-87.5562 6255.37,-91.0397 6265.36,-94.5562 6265.37,-87.5562"/>
</g>
<!-- 63 -->
<g id="node64" class="node"><title>63</title>
<path fill="none" stroke="#56d88a" stroke-width="2" stroke-dasharray="5,2" d="M8408.5,-180C8408.5,-180 8301.5,-180 8301.5,-180 8295.5,-180 8289.5,-174 8289.5,-168 8289.5,-168 8289.5,-156 8289.5,-156 8289.5,-150 8295.5,-144 8301.5,-144 8301.5,-144 8408.5,-144 8408.5,-144 8414.5,-144 8420.5,-150 8420.5,-156 8420.5,-156 8420.5,-168 8420.5,-168 8420.5,-174 8414.5,-180 8408.5,-180"/>
<text text-anchor="middle" x="8355" y="-165" font-family="sans" font-size="10.00">virulence_identification</text>
<text text-anchor="middle" x="8355" y="-154" font-family="sans" font-size="10.00">sample: ST1&#45;20</text>
</g>
<!-- 63&#45;&gt;2 -->
<g id="edge63" class="edge"><title>63&#45;&gt;2</title>
<path fill="none" stroke="grey" stroke-width="2" d="M8289.36,-145.201C8286.54,-144.751 8283.75,-144.347 8281,-144 7878.36,-93.1609 6583.11,-90.7101 6265.04,-90.8935"/>
<polygon fill="grey" stroke="grey" stroke-width="2" points="6265.02,-87.3934 6255.03,-90.9004 6265.03,-94.3934 6265.02,-87.3934"/>
</g>
<!-- 64 -->
<g id="node65" class="node"><title>64</title>
<path fill="none" stroke="#56d88a" stroke-width="2" stroke-dasharray="5,2" d="M8557.5,-180C8557.5,-180 8450.5,-180 8450.5,-180 8444.5,-180 8438.5,-174 8438.5,-168 8438.5,-168 8438.5,-156 8438.5,-156 8438.5,-150 8444.5,-144 8450.5,-144 8450.5,-144 8557.5,-144 8557.5,-144 8563.5,-144 8569.5,-150 8569.5,-156 8569.5,-156 8569.5,-168 8569.5,-168 8569.5,-174 8563.5,-180 8557.5,-180"/>
<text text-anchor="middle" x="8504" y="-165" font-family="sans" font-size="10.00">virulence_identification</text>
<text text-anchor="middle" x="8504" y="-154" font-family="sans" font-size="10.00">sample: L8</text>
</g>
<!-- 64&#45;&gt;2 -->
<g id="edge64" class="edge"><title>64&#45;&gt;2</title>
<path fill="none" stroke="grey" stroke-width="2" d="M8438.36,-145.195C8435.54,-144.747 8432.75,-144.344 8430,-144 7996.68,-89.6594 6598.61,-89.894 6265.65,-90.7513"/>
<polygon fill="grey" stroke="grey" stroke-width="2" points="6265.18,-87.2525 6255.19,-90.7794 6265.2,-94.2525 6265.18,-87.2525"/>
</g>
</g>
</svg>
