<?xml version="1.0" encoding="UTF-8" standalone="no"?>
<!DOCTYPE svg PUBLIC "-//W3C//DTD SVG 1.1//EN"
 "http://www.w3.org/Graphics/SVG/1.1/DTD/svg11.dtd">
<!-- Generated by graphviz version 2.40.1 (20161225.0304)
 -->
<!-- Title: snakemake_dag Pages: 1 -->
<svg width="2112pt" height="116pt"
 viewBox="0.00 0.00 2111.50 116.00" xmlns="http://www.w3.org/2000/svg" xmlns:xlink="http://www.w3.org/1999/xlink">
<g id="graph0" class="graph" transform="scale(1 1) rotate(0) translate(4 112)">
<title>snakemake_dag</title>
<polygon fill="#ffffff" stroke="transparent" points="-4,4 -4,-112 2107.5,-112 2107.5,4 -4,4"/>
<!-- 0 -->
<g id="node1" class="node">
<title>0</title>
<path fill="none" stroke="#56d8d8" stroke-width="2" d="M581.5,-36C581.5,-36 478.5,-36 478.5,-36 472.5,-36 466.5,-30 466.5,-24 466.5,-24 466.5,-12 466.5,-12 466.5,-6 472.5,0 478.5,0 478.5,0 581.5,0 581.5,0 587.5,0 593.5,-6 593.5,-12 593.5,-12 593.5,-24 593.5,-24 593.5,-30 587.5,-36 581.5,-36"/>
<text text-anchor="middle" x="530" y="-15.5" font-family="sans" font-size="10.00" fill="#000000">summarize_resistance</text>
</g>
<!-- 1 -->
<g id="node2" class="node">
<title>1</title>
<path fill="none" stroke="#d85656" stroke-width="2" d="M1640,-36C1640,-36 1542,-36 1542,-36 1536,-36 1530,-30 1530,-24 1530,-24 1530,-12 1530,-12 1530,-6 1536,0 1542,0 1542,0 1640,0 1640,0 1646,0 1652,-6 1652,-12 1652,-12 1652,-24 1652,-24 1652,-30 1646,-36 1640,-36"/>
<text text-anchor="middle" x="1591" y="-15.5" font-family="sans" font-size="10.00" fill="#000000">summarize_virulence</text>
</g>
<!-- 2 -->
<g id="node3" class="node">
<title>2</title>
<path fill="none" stroke="#d6d856" stroke-width="2" d="M124,-108C124,-108 12,-108 12,-108 6,-108 0,-102 0,-96 0,-96 0,-84 0,-84 0,-78 6,-72 12,-72 12,-72 124,-72 124,-72 130,-72 136,-78 136,-84 136,-84 136,-96 136,-96 136,-102 130,-108 124,-108"/>
<text text-anchor="middle" x="68" y="-93" font-family="sans" font-size="10.00" fill="#000000">resistance_identification</text>
<text text-anchor="middle" x="68" y="-82" font-family="sans" font-size="10.00" fill="#000000">sample: V583</text>
</g>
<!-- 2&#45;&gt;0 -->
<g id="edge1" class="edge">
<title>2&#45;&gt;0</title>
<path fill="none" stroke="#c0c0c0" stroke-width="2" d="M136.3661,-73.6805C139.2787,-73.0921 142.166,-72.5289 145,-72 252.6293,-51.9143 378.4448,-35.6013 456.183,-26.3447"/>
<polygon fill="#c0c0c0" stroke="#c0c0c0" stroke-width="2" points="456.8377,-29.7917 466.3571,-25.1408 456.0151,-22.8402 456.8377,-29.7917"/>
</g>
<!-- 3 -->
<g id="node4" class="node">
<title>3</title>
<path fill="none" stroke="#d6d856" stroke-width="2" d="M278,-108C278,-108 166,-108 166,-108 160,-108 154,-102 154,-96 154,-96 154,-84 154,-84 154,-78 160,-72 166,-72 166,-72 278,-72 278,-72 284,-72 290,-78 290,-84 290,-84 290,-96 290,-96 290,-102 284,-108 278,-108"/>
<text text-anchor="middle" x="222" y="-93" font-family="sans" font-size="10.00" fill="#000000">resistance_identification</text>
<text text-anchor="middle" x="222" y="-82" font-family="sans" font-size="10.00" fill="#000000">sample: MP8&#45;17</text>
</g>
<!-- 3&#45;&gt;0 -->
<g id="edge2" class="edge">
<title>3&#45;&gt;0</title>
<path fill="none" stroke="#c0c0c0" stroke-width="2" d="M290.3552,-74.0209C339.6182,-62.5048 406.0257,-46.981 456.4417,-35.1954"/>
<polygon fill="#c0c0c0" stroke="#c0c0c0" stroke-width="2" points="457.3612,-38.575 466.3019,-32.8905 455.7677,-31.7587 457.3612,-38.575"/>
</g>
<!-- 4 -->
<g id="node5" class="node">
<title>4</title>
<path fill="none" stroke="#d6d856" stroke-width="2" d="M432,-108C432,-108 320,-108 320,-108 314,-108 308,-102 308,-96 308,-96 308,-84 308,-84 308,-78 314,-72 320,-72 320,-72 432,-72 432,-72 438,-72 444,-78 444,-84 444,-84 444,-96 444,-96 444,-102 438,-108 432,-108"/>
<text text-anchor="middle" x="376" y="-93" font-family="sans" font-size="10.00" fill="#000000">resistance_identification</text>
<text text-anchor="middle" x="376" y="-82" font-family="sans" font-size="10.00" fill="#000000">sample: OG1RF</text>
</g>
<!-- 4&#45;&gt;0 -->
<g id="edge3" class="edge">
<title>4&#45;&gt;0</title>
<path fill="none" stroke="#c0c0c0" stroke-width="2" d="M414.8607,-71.8314C435.2742,-62.2874 460.4723,-50.5065 482.086,-40.4013"/>
<polygon fill="#c0c0c0" stroke="#c0c0c0" stroke-width="2" points="483.8423,-43.4439 491.4187,-36.038 480.8775,-37.1027 483.8423,-43.4439"/>
</g>
<!-- 5 -->
<g id="node6" class="node">
<title>5</title>
<path fill="none" stroke="#d6d856" stroke-width="2" d="M586,-108C586,-108 474,-108 474,-108 468,-108 462,-102 462,-96 462,-96 462,-84 462,-84 462,-78 468,-72 474,-72 474,-72 586,-72 586,-72 592,-72 598,-78 598,-84 598,-84 598,-96 598,-96 598,-102 592,-108 586,-108"/>
<text text-anchor="middle" x="530" y="-93" font-family="sans" font-size="10.00" fill="#000000">resistance_identification</text>
<text text-anchor="middle" x="530" y="-82" font-family="sans" font-size="10.00" fill="#000000">sample: MP2&#45;6</text>
</g>
<!-- 5&#45;&gt;0 -->
<g id="edge4" class="edge">
<title>5&#45;&gt;0</title>
<path fill="none" stroke="#c0c0c0" stroke-width="2" d="M530,-71.8314C530,-64.131 530,-54.9743 530,-46.4166"/>
<polygon fill="#c0c0c0" stroke="#c0c0c0" stroke-width="2" points="533.5001,-46.4132 530,-36.4133 526.5001,-46.4133 533.5001,-46.4132"/>
</g>
<!-- 6 -->
<g id="node7" class="node">
<title>6</title>
<path fill="none" stroke="#d6d856" stroke-width="2" d="M740,-108C740,-108 628,-108 628,-108 622,-108 616,-102 616,-96 616,-96 616,-84 616,-84 616,-78 622,-72 628,-72 628,-72 740,-72 740,-72 746,-72 752,-78 752,-84 752,-84 752,-96 752,-96 752,-102 746,-108 740,-108"/>
<text text-anchor="middle" x="684" y="-93" font-family="sans" font-size="10.00" fill="#000000">resistance_identification</text>
<text text-anchor="middle" x="684" y="-82" font-family="sans" font-size="10.00" fill="#000000">sample: MP8&#45;1</text>
</g>
<!-- 6&#45;&gt;0 -->
<g id="edge5" class="edge">
<title>6&#45;&gt;0</title>
<path fill="none" stroke="#c0c0c0" stroke-width="2" d="M645.1393,-71.8314C624.7258,-62.2874 599.5277,-50.5065 577.914,-40.4013"/>
<polygon fill="#c0c0c0" stroke="#c0c0c0" stroke-width="2" points="579.1225,-37.1027 568.5813,-36.038 576.1577,-43.4439 579.1225,-37.1027"/>
</g>
<!-- 7 -->
<g id="node8" class="node">
<title>7</title>
<path fill="none" stroke="#d6d856" stroke-width="2" d="M894,-108C894,-108 782,-108 782,-108 776,-108 770,-102 770,-96 770,-96 770,-84 770,-84 770,-78 776,-72 782,-72 782,-72 894,-72 894,-72 900,-72 906,-78 906,-84 906,-84 906,-96 906,-96 906,-102 900,-108 894,-108"/>
<text text-anchor="middle" x="838" y="-93" font-family="sans" font-size="10.00" fill="#000000">resistance_identification</text>
<text text-anchor="middle" x="838" y="-82" font-family="sans" font-size="10.00" fill="#000000">sample: MP9&#45;10</text>
</g>
<!-- 7&#45;&gt;0 -->
<g id="edge6" class="edge">
<title>7&#45;&gt;0</title>
<path fill="none" stroke="#c0c0c0" stroke-width="2" d="M769.6448,-74.0209C720.3818,-62.5048 653.9743,-46.981 603.5583,-35.1954"/>
<polygon fill="#c0c0c0" stroke="#c0c0c0" stroke-width="2" points="604.2323,-31.7587 593.6981,-32.8905 602.6388,-38.575 604.2323,-31.7587"/>
</g>
<!-- 8 -->
<g id="node9" class="node">
<title>8</title>
<path fill="none" stroke="#d6d856" stroke-width="2" d="M1048,-108C1048,-108 936,-108 936,-108 930,-108 924,-102 924,-96 924,-96 924,-84 924,-84 924,-78 930,-72 936,-72 936,-72 1048,-72 1048,-72 1054,-72 1060,-78 1060,-84 1060,-84 1060,-96 1060,-96 1060,-102 1054,-108 1048,-108"/>
<text text-anchor="middle" x="992" y="-93" font-family="sans" font-size="10.00" fill="#000000">resistance_identification</text>
<text text-anchor="middle" x="992" y="-82" font-family="sans" font-size="10.00" fill="#000000">sample: MP5&#45;8</text>
</g>
<!-- 8&#45;&gt;0 -->
<g id="edge7" class="edge">
<title>8&#45;&gt;0</title>
<path fill="none" stroke="#c0c0c0" stroke-width="2" d="M923.6339,-73.6805C920.7213,-73.0921 917.834,-72.5289 915,-72 807.3707,-51.9143 681.5552,-35.6013 603.817,-26.3447"/>
<polygon fill="#c0c0c0" stroke="#c0c0c0" stroke-width="2" points="603.9849,-22.8402 593.6429,-25.1408 603.1623,-29.7917 603.9849,-22.8402"/>
</g>
<!-- 9 -->
<g id="node10" class="node">
<title>9</title>
<path fill="none" stroke="#59d856" stroke-width="2" d="M1197.5,-108C1197.5,-108 1090.5,-108 1090.5,-108 1084.5,-108 1078.5,-102 1078.5,-96 1078.5,-96 1078.5,-84 1078.5,-84 1078.5,-78 1084.5,-72 1090.5,-72 1090.5,-72 1197.5,-72 1197.5,-72 1203.5,-72 1209.5,-78 1209.5,-84 1209.5,-84 1209.5,-96 1209.5,-96 1209.5,-102 1203.5,-108 1197.5,-108"/>
<text text-anchor="middle" x="1144" y="-93" font-family="sans" font-size="10.00" fill="#000000">virulence_identification</text>
<text text-anchor="middle" x="1144" y="-82" font-family="sans" font-size="10.00" fill="#000000">sample: MP8&#45;17</text>
</g>
<!-- 9&#45;&gt;1 -->
<g id="edge8" class="edge">
<title>9&#45;&gt;1</title>
<path fill="none" stroke="#c0c0c0" stroke-width="2" d="M1209.6965,-73.6774C1212.4973,-73.0898 1215.274,-72.5276 1218,-72 1322.3018,-51.8118 1444.3398,-35.5101 1519.6608,-26.2857"/>
<polygon fill="#c0c0c0" stroke="#c0c0c0" stroke-width="2" points="1520.468,-29.7134 1529.9722,-25.0314 1519.6227,-22.7646 1520.468,-29.7134"/>
</g>
<!-- 10 -->
<g id="node11" class="node">
<title>10</title>
<path fill="none" stroke="#59d856" stroke-width="2" d="M1346.5,-108C1346.5,-108 1239.5,-108 1239.5,-108 1233.5,-108 1227.5,-102 1227.5,-96 1227.5,-96 1227.5,-84 1227.5,-84 1227.5,-78 1233.5,-72 1239.5,-72 1239.5,-72 1346.5,-72 1346.5,-72 1352.5,-72 1358.5,-78 1358.5,-84 1358.5,-84 1358.5,-96 1358.5,-96 1358.5,-102 1352.5,-108 1346.5,-108"/>
<text text-anchor="middle" x="1293" y="-93" font-family="sans" font-size="10.00" fill="#000000">virulence_identification</text>
<text text-anchor="middle" x="1293" y="-82" font-family="sans" font-size="10.00" fill="#000000">sample: V583</text>
</g>
<!-- 10&#45;&gt;1 -->
<g id="edge9" class="edge">
<title>10&#45;&gt;1</title>
<path fill="none" stroke="#c0c0c0" stroke-width="2" d="M1358.7658,-73.9955C1361.5476,-73.3209 1364.3014,-72.6535 1367,-72 1418.146,-59.6146 1475.8772,-45.6988 1519.92,-35.096"/>
<polygon fill="#c0c0c0" stroke="#c0c0c0" stroke-width="2" points="1520.766,-38.4924 1529.6692,-32.7493 1519.1278,-31.6868 1520.766,-38.4924"/>
</g>
<!-- 11 -->
<g id="node12" class="node">
<title>11</title>
<path fill="none" stroke="#59d856" stroke-width="2" d="M1495.5,-108C1495.5,-108 1388.5,-108 1388.5,-108 1382.5,-108 1376.5,-102 1376.5,-96 1376.5,-96 1376.5,-84 1376.5,-84 1376.5,-78 1382.5,-72 1388.5,-72 1388.5,-72 1495.5,-72 1495.5,-72 1501.5,-72 1507.5,-78 1507.5,-84 1507.5,-84 1507.5,-96 1507.5,-96 1507.5,-102 1501.5,-108 1495.5,-108"/>
<text text-anchor="middle" x="1442" y="-93" font-family="sans" font-size="10.00" fill="#000000">virulence_identification</text>
<text text-anchor="middle" x="1442" y="-82" font-family="sans" font-size="10.00" fill="#000000">sample: MP8&#45;1</text>
</g>
<!-- 11&#45;&gt;1 -->
<g id="edge10" class="edge">
<title>11&#45;&gt;1</title>
<path fill="none" stroke="#c0c0c0" stroke-width="2" d="M1479.599,-71.8314C1499.3497,-62.2874 1523.7297,-50.5065 1544.6417,-40.4013"/>
<polygon fill="#c0c0c0" stroke="#c0c0c0" stroke-width="2" points="1546.1903,-43.5403 1553.6714,-36.038 1543.1447,-37.2376 1546.1903,-43.5403"/>
</g>
<!-- 12 -->
<g id="node13" class="node">
<title>12</title>
<path fill="none" stroke="#59d856" stroke-width="2" d="M1644.5,-108C1644.5,-108 1537.5,-108 1537.5,-108 1531.5,-108 1525.5,-102 1525.5,-96 1525.5,-96 1525.5,-84 1525.5,-84 1525.5,-78 1531.5,-72 1537.5,-72 1537.5,-72 1644.5,-72 1644.5,-72 1650.5,-72 1656.5,-78 1656.5,-84 1656.5,-84 1656.5,-96 1656.5,-96 1656.5,-102 1650.5,-108 1644.5,-108"/>
<text text-anchor="middle" x="1591" y="-93" font-family="sans" font-size="10.00" fill="#000000">virulence_identification</text>
<text text-anchor="middle" x="1591" y="-82" font-family="sans" font-size="10.00" fill="#000000">sample: MP9&#45;10</text>
</g>
<!-- 12&#45;&gt;1 -->
<g id="edge11" class="edge">
<title>12&#45;&gt;1</title>
<path fill="none" stroke="#c0c0c0" stroke-width="2" d="M1591,-71.8314C1591,-64.131 1591,-54.9743 1591,-46.4166"/>
<polygon fill="#c0c0c0" stroke="#c0c0c0" stroke-width="2" points="1594.5001,-46.4132 1591,-36.4133 1587.5001,-46.4133 1594.5001,-46.4132"/>
</g>
<!-- 13 -->
<g id="node14" class="node">
<title>13</title>
<path fill="none" stroke="#59d856" stroke-width="2" d="M1793.5,-108C1793.5,-108 1686.5,-108 1686.5,-108 1680.5,-108 1674.5,-102 1674.5,-96 1674.5,-96 1674.5,-84 1674.5,-84 1674.5,-78 1680.5,-72 1686.5,-72 1686.5,-72 1793.5,-72 1793.5,-72 1799.5,-72 1805.5,-78 1805.5,-84 1805.5,-84 1805.5,-96 1805.5,-96 1805.5,-102 1799.5,-108 1793.5,-108"/>
<text text-anchor="middle" x="1740" y="-93" font-family="sans" font-size="10.00" fill="#000000">virulence_identification</text>
<text text-anchor="middle" x="1740" y="-82" font-family="sans" font-size="10.00" fill="#000000">sample: MP5&#45;8</text>
</g>
<!-- 13&#45;&gt;1 -->
<g id="edge12" class="edge">
<title>13&#45;&gt;1</title>
<path fill="none" stroke="#c0c0c0" stroke-width="2" d="M1702.401,-71.8314C1682.6503,-62.2874 1658.2703,-50.5065 1637.3583,-40.4013"/>
<polygon fill="#c0c0c0" stroke="#c0c0c0" stroke-width="2" points="1638.8553,-37.2376 1628.3286,-36.038 1635.8097,-43.5403 1638.8553,-37.2376"/>
</g>
<!-- 14 -->
<g id="node15" class="node">
<title>14</title>
<path fill="none" stroke="#59d856" stroke-width="2" d="M1942.5,-108C1942.5,-108 1835.5,-108 1835.5,-108 1829.5,-108 1823.5,-102 1823.5,-96 1823.5,-96 1823.5,-84 1823.5,-84 1823.5,-78 1829.5,-72 1835.5,-72 1835.5,-72 1942.5,-72 1942.5,-72 1948.5,-72 1954.5,-78 1954.5,-84 1954.5,-84 1954.5,-96 1954.5,-96 1954.5,-102 1948.5,-108 1942.5,-108"/>
<text text-anchor="middle" x="1889" y="-93" font-family="sans" font-size="10.00" fill="#000000">virulence_identification</text>
<text text-anchor="middle" x="1889" y="-82" font-family="sans" font-size="10.00" fill="#000000">sample: OG1RF</text>
</g>
<!-- 14&#45;&gt;1 -->
<g id="edge13" class="edge">
<title>14&#45;&gt;1</title>
<path fill="none" stroke="#c0c0c0" stroke-width="2" d="M1823.2342,-73.9955C1820.4524,-73.3209 1817.6986,-72.6535 1815,-72 1763.854,-59.6146 1706.1228,-45.6988 1662.08,-35.096"/>
<polygon fill="#c0c0c0" stroke="#c0c0c0" stroke-width="2" points="1662.8722,-31.6868 1652.3308,-32.7493 1661.234,-38.4924 1662.8722,-31.6868"/>
</g>
<!-- 15 -->
<g id="node16" class="node">
<title>15</title>
<path fill="none" stroke="#59d856" stroke-width="2" d="M2091.5,-108C2091.5,-108 1984.5,-108 1984.5,-108 1978.5,-108 1972.5,-102 1972.5,-96 1972.5,-96 1972.5,-84 1972.5,-84 1972.5,-78 1978.5,-72 1984.5,-72 1984.5,-72 2091.5,-72 2091.5,-72 2097.5,-72 2103.5,-78 2103.5,-84 2103.5,-84 2103.5,-96 2103.5,-96 2103.5,-102 2097.5,-108 2091.5,-108"/>
<text text-anchor="middle" x="2038" y="-93" font-family="sans" font-size="10.00" fill="#000000">virulence_identification</text>
<text text-anchor="middle" x="2038" y="-82" font-family="sans" font-size="10.00" fill="#000000">sample: MP2&#45;6</text>
</g>
<!-- 15&#45;&gt;1 -->
<g id="edge14" class="edge">
<title>15&#45;&gt;1</title>
<path fill="none" stroke="#c0c0c0" stroke-width="2" d="M1972.3035,-73.6774C1969.5027,-73.0898 1966.726,-72.5276 1964,-72 1859.6982,-51.8118 1737.6602,-35.5101 1662.3392,-26.2857"/>
<polygon fill="#c0c0c0" stroke="#c0c0c0" stroke-width="2" points="1662.3773,-22.7646 1652.0278,-25.0314 1661.532,-29.7134 1662.3773,-22.7646"/>
</g>
</g>
</svg>
