<?xml version="1.0" encoding="UTF-8" standalone="no"?>
<!DOCTYPE svg PUBLIC "-//W3C//DTD SVG 1.1//EN"
 "http://www.w3.org/Graphics/SVG/1.1/DTD/svg11.dtd">
<!-- Generated by graphviz version 2.40.1 (20161225.0304)
 -->
<!-- Title: snakemake_dag Pages: 1 -->
<svg width="452pt" height="116pt"
 viewBox="0.00 0.00 452.00 116.00" xmlns="http://www.w3.org/2000/svg" xmlns:xlink="http://www.w3.org/1999/xlink">
<g id="graph0" class="graph" transform="scale(1 1) rotate(0) translate(4 112)">
<title>snakemake_dag</title>
<polygon fill="#ffffff" stroke="transparent" points="-4,4 -4,-112 448,-112 448,4 -4,4"/>
<!-- 0 -->
<g id="node1" class="node">
<title>0</title>
<path fill="none" stroke="#56d8d8" stroke-width="2" d="M273.5,-36C273.5,-36 170.5,-36 170.5,-36 164.5,-36 158.5,-30 158.5,-24 158.5,-24 158.5,-12 158.5,-12 158.5,-6 164.5,0 170.5,0 170.5,0 273.5,0 273.5,0 279.5,0 285.5,-6 285.5,-12 285.5,-12 285.5,-24 285.5,-24 285.5,-30 279.5,-36 273.5,-36"/>
<text text-anchor="middle" x="222" y="-15.5" font-family="sans" font-size="10.00" fill="#000000">summarize_resistance</text>
</g>
<!-- 1 -->
<g id="node2" class="node">
<title>1</title>
<path fill="none" stroke="#d85656" stroke-width="2" d="M124,-108C124,-108 12,-108 12,-108 6,-108 0,-102 0,-96 0,-96 0,-84 0,-84 0,-78 6,-72 12,-72 12,-72 124,-72 124,-72 130,-72 136,-78 136,-84 136,-84 136,-96 136,-96 136,-102 130,-108 124,-108"/>
<text text-anchor="middle" x="68" y="-93" font-family="sans" font-size="10.00" fill="#000000">resistance_identification</text>
<text text-anchor="middle" x="68" y="-82" font-family="sans" font-size="10.00" fill="#000000">sample: MP8&#45;1</text>
</g>
<!-- 1&#45;&gt;0 -->
<g id="edge1" class="edge">
<title>1&#45;&gt;0</title>
<path fill="none" stroke="#c0c0c0" stroke-width="2" d="M106.8607,-71.8314C127.2742,-62.2874 152.4723,-50.5065 174.086,-40.4013"/>
<polygon fill="#c0c0c0" stroke="#c0c0c0" stroke-width="2" points="175.8423,-43.4439 183.4187,-36.038 172.8775,-37.1027 175.8423,-43.4439"/>
</g>
<!-- 2 -->
<g id="node3" class="node">
<title>2</title>
<path fill="none" stroke="#d85656" stroke-width="2" d="M278,-108C278,-108 166,-108 166,-108 160,-108 154,-102 154,-96 154,-96 154,-84 154,-84 154,-78 160,-72 166,-72 166,-72 278,-72 278,-72 284,-72 290,-78 290,-84 290,-84 290,-96 290,-96 290,-102 284,-108 278,-108"/>
<text text-anchor="middle" x="222" y="-93" font-family="sans" font-size="10.00" fill="#000000">resistance_identification</text>
<text text-anchor="middle" x="222" y="-82" font-family="sans" font-size="10.00" fill="#000000">sample: MP2&#45;6</text>
</g>
<!-- 2&#45;&gt;0 -->
<g id="edge2" class="edge">
<title>2&#45;&gt;0</title>
<path fill="none" stroke="#c0c0c0" stroke-width="2" d="M222,-71.8314C222,-64.131 222,-54.9743 222,-46.4166"/>
<polygon fill="#c0c0c0" stroke="#c0c0c0" stroke-width="2" points="225.5001,-46.4132 222,-36.4133 218.5001,-46.4133 225.5001,-46.4132"/>
</g>
<!-- 3 -->
<g id="node4" class="node">
<title>3</title>
<path fill="none" stroke="#d85656" stroke-width="2" d="M432,-108C432,-108 320,-108 320,-108 314,-108 308,-102 308,-96 308,-96 308,-84 308,-84 308,-78 314,-72 320,-72 320,-72 432,-72 432,-72 438,-72 444,-78 444,-84 444,-84 444,-96 444,-96 444,-102 438,-108 432,-108"/>
<text text-anchor="middle" x="376" y="-93" font-family="sans" font-size="10.00" fill="#000000">resistance_identification</text>
<text text-anchor="middle" x="376" y="-82" font-family="sans" font-size="10.00" fill="#000000">sample: MP5&#45;8</text>
</g>
<!-- 3&#45;&gt;0 -->
<g id="edge3" class="edge">
<title>3&#45;&gt;0</title>
<path fill="none" stroke="#c0c0c0" stroke-width="2" d="M337.1393,-71.8314C316.7258,-62.2874 291.5277,-50.5065 269.914,-40.4013"/>
<polygon fill="#c0c0c0" stroke="#c0c0c0" stroke-width="2" points="271.1225,-37.1027 260.5813,-36.038 268.1577,-43.4439 271.1225,-37.1027"/>
</g>
</g>
</svg>
