<?xml version="1.0" encoding="UTF-8" standalone="no"?>
<!DOCTYPE svg PUBLIC "-//W3C//DTD SVG 1.1//EN"
 "http://www.w3.org/Graphics/SVG/1.1/DTD/svg11.dtd">
<!-- Generated by graphviz version 2.38.0 (20140413.2041)
 -->
<!-- Title: snakemake_dag Pages: 1 -->
<svg width="902pt" height="188pt"
 viewBox="0.00 0.00 902.00 188.00" xmlns="http://www.w3.org/2000/svg" xmlns:xlink="http://www.w3.org/1999/xlink">
<g id="graph0" class="graph" transform="scale(1 1) rotate(0) translate(4 184)">
<title>snakemake_dag</title>
<polygon fill="white" stroke="none" points="-4,4 -4,-184 898,-184 898,4 -4,4"/>
<!-- 0 -->
<g id="node1" class="node"><title>0</title>
<path fill="none" stroke="#d8bc56" stroke-width="2" d="M477,-36C477,-36 400,-36 400,-36 394,-36 388,-30 388,-24 388,-24 388,-12 388,-12 388,-6 394,-0 400,-0 400,-0 477,-0 477,-0 483,-0 489,-6 489,-12 489,-12 489,-24 489,-24 489,-30 483,-36 477,-36"/>
<text text-anchor="middle" x="438.5" y="-15.5" font-family="sans" font-size="10.00">summary_results</text>
</g>
<!-- 1 -->
<g id="node2" class="node"><title>1</title>
<path fill="none" stroke="#56c1d8" stroke-width="2" stroke-dasharray="5,2" d="M337.5,-108C337.5,-108 239.5,-108 239.5,-108 233.5,-108 227.5,-102 227.5,-96 227.5,-96 227.5,-84 227.5,-84 227.5,-78 233.5,-72 239.5,-72 239.5,-72 337.5,-72 337.5,-72 343.5,-72 349.5,-78 349.5,-84 349.5,-84 349.5,-96 349.5,-96 349.5,-102 343.5,-108 337.5,-108"/>
<text text-anchor="middle" x="288.5" y="-87.5" font-family="sans" font-size="10.00">summarize_virulence</text>
</g>
<!-- 1&#45;&gt;0 -->
<g id="edge1" class="edge"><title>1&#45;&gt;0</title>
<path fill="none" stroke="grey" stroke-width="2" d="M325.194,-71.8761C345.518,-62.3917 370.971,-50.5134 392.602,-40.419"/>
<polygon fill="grey" stroke="grey" stroke-width="2" points="394.343,-43.4689 401.925,-36.0683 391.383,-37.1256 394.343,-43.4689"/>
</g>
<!-- 2 -->
<g id="node3" class="node"><title>2</title>
<path fill="none" stroke="#88d856" stroke-width="2" stroke-dasharray="5,2" d="M644,-108C644,-108 541,-108 541,-108 535,-108 529,-102 529,-96 529,-96 529,-84 529,-84 529,-78 535,-72 541,-72 541,-72 644,-72 644,-72 650,-72 656,-78 656,-84 656,-84 656,-96 656,-96 656,-102 650,-108 644,-108"/>
<text text-anchor="middle" x="592.5" y="-87.5" font-family="sans" font-size="10.00">summarize_resistance</text>
</g>
<!-- 2&#45;&gt;0 -->
<g id="edge2" class="edge"><title>2&#45;&gt;0</title>
<path fill="none" stroke="grey" stroke-width="2" d="M554.827,-71.8761C533.868,-62.3492 507.595,-50.4068 485.323,-40.2833"/>
<polygon fill="grey" stroke="grey" stroke-width="2" points="486.602,-37.0201 476.05,-36.0683 483.706,-43.3927 486.602,-37.0201"/>
</g>
<!-- 3 -->
<g id="node4" class="node"><title>3</title>
<path fill="none" stroke="#56d88a" stroke-width="2" stroke-dasharray="5,2" d="M119,-180C119,-180 12,-180 12,-180 6,-180 0,-174 0,-168 0,-168 0,-156 0,-156 0,-150 6,-144 12,-144 12,-144 119,-144 119,-144 125,-144 131,-150 131,-156 131,-156 131,-168 131,-168 131,-174 125,-180 119,-180"/>
<text text-anchor="middle" x="65.5" y="-165" font-family="sans" font-size="10.00">virulence_identification</text>
<text text-anchor="middle" x="65.5" y="-154" font-family="sans" font-size="10.00">sample: V583</text>
</g>
<!-- 3&#45;&gt;1 -->
<g id="edge3" class="edge"><title>3&#45;&gt;1</title>
<path fill="none" stroke="grey" stroke-width="2" d="M119.767,-143.966C151.331,-134.057 191.291,-121.514 224.4,-111.121"/>
<polygon fill="grey" stroke="grey" stroke-width="2" points="225.497,-114.445 233.99,-108.111 223.401,-107.766 225.497,-114.445"/>
</g>
<!-- 4 -->
<g id="node5" class="node"><title>4</title>
<path fill="none" stroke="#56d88a" stroke-width="2" stroke-dasharray="5,2" d="M268,-180C268,-180 161,-180 161,-180 155,-180 149,-174 149,-168 149,-168 149,-156 149,-156 149,-150 155,-144 161,-144 161,-144 268,-144 268,-144 274,-144 280,-150 280,-156 280,-156 280,-168 280,-168 280,-174 274,-180 268,-180"/>
<text text-anchor="middle" x="214.5" y="-165" font-family="sans" font-size="10.00">virulence_identification</text>
<text text-anchor="middle" x="214.5" y="-154" font-family="sans" font-size="10.00">sample: MP2&#45;6</text>
</g>
<!-- 4&#45;&gt;1 -->
<g id="edge4" class="edge"><title>4&#45;&gt;1</title>
<path fill="none" stroke="grey" stroke-width="2" d="M232.792,-143.697C241.933,-135.05 253.14,-124.449 263.1,-115.027"/>
<polygon fill="grey" stroke="grey" stroke-width="2" points="265.559,-117.519 270.418,-108.104 260.748,-112.434 265.559,-117.519"/>
</g>
<!-- 5 -->
<g id="node6" class="node"><title>5</title>
<path fill="none" stroke="#56d88a" stroke-width="2" stroke-dasharray="5,2" d="M417,-180C417,-180 310,-180 310,-180 304,-180 298,-174 298,-168 298,-168 298,-156 298,-156 298,-150 304,-144 310,-144 310,-144 417,-144 417,-144 423,-144 429,-150 429,-156 429,-156 429,-168 429,-168 429,-174 423,-180 417,-180"/>
<text text-anchor="middle" x="363.5" y="-165" font-family="sans" font-size="10.00">virulence_identification</text>
<text text-anchor="middle" x="363.5" y="-154" font-family="sans" font-size="10.00">sample: OG1RF</text>
</g>
<!-- 5&#45;&gt;1 -->
<g id="edge5" class="edge"><title>5&#45;&gt;1</title>
<path fill="none" stroke="grey" stroke-width="2" d="M344.961,-143.697C335.697,-135.05 324.338,-124.449 314.243,-115.027"/>
<polygon fill="grey" stroke="grey" stroke-width="2" points="316.525,-112.369 306.826,-108.104 311.749,-117.486 316.525,-112.369"/>
</g>
<!-- 6 -->
<g id="node7" class="node"><title>6</title>
<path fill="none" stroke="#d85656" stroke-width="2" stroke-dasharray="5,2" d="M572,-180C572,-180 459,-180 459,-180 453,-180 447,-174 447,-168 447,-168 447,-156 447,-156 447,-150 453,-144 459,-144 459,-144 572,-144 572,-144 578,-144 584,-150 584,-156 584,-156 584,-168 584,-168 584,-174 578,-180 572,-180"/>
<text text-anchor="middle" x="515.5" y="-165" font-family="sans" font-size="10.00">resistance_identification</text>
<text text-anchor="middle" x="515.5" y="-154" font-family="sans" font-size="10.00">sample: V583</text>
</g>
<!-- 6&#45;&gt;2 -->
<g id="edge6" class="edge"><title>6&#45;&gt;2</title>
<path fill="none" stroke="grey" stroke-width="2" d="M534.534,-143.697C544.045,-135.05 555.707,-124.449 566.07,-115.027"/>
<polygon fill="grey" stroke="grey" stroke-width="2" points="568.64,-117.421 573.685,-108.104 563.931,-112.241 568.64,-117.421"/>
</g>
<!-- 7 -->
<g id="node8" class="node"><title>7</title>
<path fill="none" stroke="#d85656" stroke-width="2" stroke-dasharray="5,2" d="M727,-180C727,-180 614,-180 614,-180 608,-180 602,-174 602,-168 602,-168 602,-156 602,-156 602,-150 608,-144 614,-144 614,-144 727,-144 727,-144 733,-144 739,-150 739,-156 739,-156 739,-168 739,-168 739,-174 733,-180 727,-180"/>
<text text-anchor="middle" x="670.5" y="-165" font-family="sans" font-size="10.00">resistance_identification</text>
<text text-anchor="middle" x="670.5" y="-154" font-family="sans" font-size="10.00">sample: MP2&#45;6</text>
</g>
<!-- 7&#45;&gt;2 -->
<g id="edge7" class="edge"><title>7&#45;&gt;2</title>
<path fill="none" stroke="grey" stroke-width="2" d="M651.219,-143.697C641.585,-135.05 629.771,-124.449 619.273,-115.027"/>
<polygon fill="grey" stroke="grey" stroke-width="2" points="621.339,-112.179 611.559,-108.104 616.664,-117.388 621.339,-112.179"/>
</g>
<!-- 8 -->
<g id="node9" class="node"><title>8</title>
<path fill="none" stroke="#d85656" stroke-width="2" stroke-dasharray="5,2" d="M882,-180C882,-180 769,-180 769,-180 763,-180 757,-174 757,-168 757,-168 757,-156 757,-156 757,-150 763,-144 769,-144 769,-144 882,-144 882,-144 888,-144 894,-150 894,-156 894,-156 894,-168 894,-168 894,-174 888,-180 882,-180"/>
<text text-anchor="middle" x="825.5" y="-165" font-family="sans" font-size="10.00">resistance_identification</text>
<text text-anchor="middle" x="825.5" y="-154" font-family="sans" font-size="10.00">sample: OG1RF</text>
</g>
<!-- 8&#45;&gt;2 -->
<g id="edge8" class="edge"><title>8&#45;&gt;2</title>
<path fill="none" stroke="grey" stroke-width="2" d="M768.8,-143.966C735.82,-134.057 694.068,-121.514 659.474,-111.121"/>
<polygon fill="grey" stroke="grey" stroke-width="2" points="660.039,-107.636 649.455,-108.111 658.025,-114.34 660.039,-107.636"/>
</g>
</g>
</svg>
