<?xml version="1.0" encoding="UTF-8" standalone="no"?>
<!DOCTYPE svg PUBLIC "-//W3C//DTD SVG 1.1//EN"
 "http://www.w3.org/Graphics/SVG/1.1/DTD/svg11.dtd">
<!-- Generated by graphviz version 2.40.1 (20161225.0304)
 -->
<!-- Title: snakemake_dag Pages: 1 -->
<svg width="2112pt" height="188pt"
 viewBox="0.00 0.00 2111.50 188.00" xmlns="http://www.w3.org/2000/svg" xmlns:xlink="http://www.w3.org/1999/xlink">
<g id="graph0" class="graph" transform="scale(1 1) rotate(0) translate(4 184)">
<title>snakemake_dag</title>
<polygon fill="#ffffff" stroke="transparent" points="-4,4 -4,-184 2107.5,-184 2107.5,4 -4,4"/>
<!-- 0 -->
<g id="node1" class="node">
<title>0</title>
<path fill="none" stroke="#d85656" stroke-width="2" d="M1005,-36C1005,-36 928,-36 928,-36 922,-36 916,-30 916,-24 916,-24 916,-12 916,-12 916,-6 922,0 928,0 928,0 1005,0 1005,0 1011,0 1017,-6 1017,-12 1017,-12 1017,-24 1017,-24 1017,-30 1011,-36 1005,-36"/>
<text text-anchor="middle" x="966.5" y="-15.5" font-family="sans" font-size="10.00" fill="#000000">summary_results</text>
</g>
<!-- 1 -->
<g id="node2" class="node">
<title>1</title>
<path fill="none" stroke="#56d88a" stroke-width="2" stroke-dasharray="5,2" d="M636.5,-108C636.5,-108 538.5,-108 538.5,-108 532.5,-108 526.5,-102 526.5,-96 526.5,-96 526.5,-84 526.5,-84 526.5,-78 532.5,-72 538.5,-72 538.5,-72 636.5,-72 636.5,-72 642.5,-72 648.5,-78 648.5,-84 648.5,-84 648.5,-96 648.5,-96 648.5,-102 642.5,-108 636.5,-108"/>
<text text-anchor="middle" x="587.5" y="-87.5" font-family="sans" font-size="10.00" fill="#000000">summarize_virulence</text>
</g>
<!-- 1&#45;&gt;0 -->
<g id="edge1" class="edge">
<title>1&#45;&gt;0</title>
<path fill="none" stroke="#c0c0c0" stroke-width="2" d="M648.8141,-78.3519C719.6014,-64.9042 835.3133,-42.922 905.8276,-29.5261"/>
<polygon fill="#c0c0c0" stroke="#c0c0c0" stroke-width="2" points="906.7217,-32.919 915.8927,-27.614 905.4152,-26.042 906.7217,-32.919"/>
</g>
<!-- 2 -->
<g id="node3" class="node">
<title>2</title>
<path fill="none" stroke="#56c1d8" stroke-width="2" stroke-dasharray="5,2" d="M1548,-108C1548,-108 1445,-108 1445,-108 1439,-108 1433,-102 1433,-96 1433,-96 1433,-84 1433,-84 1433,-78 1439,-72 1445,-72 1445,-72 1548,-72 1548,-72 1554,-72 1560,-78 1560,-84 1560,-84 1560,-96 1560,-96 1560,-102 1554,-108 1548,-108"/>
<text text-anchor="middle" x="1496.5" y="-87.5" font-family="sans" font-size="10.00" fill="#000000">summarize_resistance</text>
</g>
<!-- 2&#45;&gt;0 -->
<g id="edge2" class="edge">
<title>2&#45;&gt;0</title>
<path fill="none" stroke="#c0c0c0" stroke-width="2" d="M1432.833,-81.3509C1329.9258,-67.371 1128.3918,-39.9928 1027.3304,-26.2637"/>
<polygon fill="#c0c0c0" stroke="#c0c0c0" stroke-width="2" points="1027.6617,-22.7767 1017.2816,-24.8986 1026.7194,-29.713 1027.6617,-22.7767"/>
</g>
<!-- 3 -->
<g id="node4" class="node">
<title>3</title>
<path fill="none" stroke="#d8bc56" stroke-width="2" stroke-dasharray="5,2" d="M119,-180C119,-180 12,-180 12,-180 6,-180 0,-174 0,-168 0,-168 0,-156 0,-156 0,-150 6,-144 12,-144 12,-144 119,-144 119,-144 125,-144 131,-150 131,-156 131,-156 131,-168 131,-168 131,-174 125,-180 119,-180"/>
<text text-anchor="middle" x="65.5" y="-165" font-family="sans" font-size="10.00" fill="#000000">virulence_identification</text>
<text text-anchor="middle" x="65.5" y="-154" font-family="sans" font-size="10.00" fill="#000000">sample: OG1RF</text>
</g>
<!-- 3&#45;&gt;1 -->
<g id="edge3" class="edge">
<title>3&#45;&gt;1</title>
<path fill="none" stroke="#c0c0c0" stroke-width="2" d="M131.1811,-145.5952C133.9861,-145.0302 136.7679,-144.4951 139.5,-144 271.4856,-120.0804 427.3251,-104.001 516.0683,-95.9744"/>
<polygon fill="#c0c0c0" stroke="#c0c0c0" stroke-width="2" points="516.6403,-99.4373 526.2881,-95.0589 516.0157,-92.4652 516.6403,-99.4373"/>
</g>
<!-- 4 -->
<g id="node5" class="node">
<title>4</title>
<path fill="none" stroke="#d8bc56" stroke-width="2" stroke-dasharray="5,2" d="M268,-180C268,-180 161,-180 161,-180 155,-180 149,-174 149,-168 149,-168 149,-156 149,-156 149,-150 155,-144 161,-144 161,-144 268,-144 268,-144 274,-144 280,-150 280,-156 280,-156 280,-168 280,-168 280,-174 274,-180 268,-180"/>
<text text-anchor="middle" x="214.5" y="-165" font-family="sans" font-size="10.00" fill="#000000">virulence_identification</text>
<text text-anchor="middle" x="214.5" y="-154" font-family="sans" font-size="10.00" fill="#000000">sample: MP5&#45;8</text>
</g>
<!-- 4&#45;&gt;1 -->
<g id="edge4" class="edge">
<title>4&#45;&gt;1</title>
<path fill="none" stroke="#c0c0c0" stroke-width="2" d="M280.2209,-145.7974C283.015,-145.177 285.7836,-144.5751 288.5,-144 366.1036,-127.5695 455.7081,-111.809 516.4369,-101.6008"/>
<polygon fill="#c0c0c0" stroke="#c0c0c0" stroke-width="2" points="517.0192,-105.0521 526.3037,-99.9484 515.8629,-98.1482 517.0192,-105.0521"/>
</g>
<!-- 5 -->
<g id="node6" class="node">
<title>5</title>
<path fill="none" stroke="#d8bc56" stroke-width="2" stroke-dasharray="5,2" d="M417,-180C417,-180 310,-180 310,-180 304,-180 298,-174 298,-168 298,-168 298,-156 298,-156 298,-150 304,-144 310,-144 310,-144 417,-144 417,-144 423,-144 429,-150 429,-156 429,-156 429,-168 429,-168 429,-174 423,-180 417,-180"/>
<text text-anchor="middle" x="363.5" y="-165" font-family="sans" font-size="10.00" fill="#000000">virulence_identification</text>
<text text-anchor="middle" x="363.5" y="-154" font-family="sans" font-size="10.00" fill="#000000">sample: MP9&#45;10</text>
</g>
<!-- 5&#45;&gt;1 -->
<g id="edge5" class="edge">
<title>5&#45;&gt;1</title>
<path fill="none" stroke="#c0c0c0" stroke-width="2" d="M419.7355,-143.9243C450.6239,-133.9959 489.1096,-121.6255 521.4256,-111.2382"/>
<polygon fill="#c0c0c0" stroke="#c0c0c0" stroke-width="2" points="522.7921,-114.4754 531.2413,-108.0831 520.65,-107.8112 522.7921,-114.4754"/>
</g>
<!-- 6 -->
<g id="node7" class="node">
<title>6</title>
<path fill="none" stroke="#d8bc56" stroke-width="2" stroke-dasharray="5,2" d="M566,-180C566,-180 459,-180 459,-180 453,-180 447,-174 447,-168 447,-168 447,-156 447,-156 447,-150 453,-144 459,-144 459,-144 566,-144 566,-144 572,-144 578,-150 578,-156 578,-156 578,-168 578,-168 578,-174 572,-180 566,-180"/>
<text text-anchor="middle" x="512.5" y="-165" font-family="sans" font-size="10.00" fill="#000000">virulence_identification</text>
<text text-anchor="middle" x="512.5" y="-154" font-family="sans" font-size="10.00" fill="#000000">sample: MP2&#45;6</text>
</g>
<!-- 6&#45;&gt;1 -->
<g id="edge6" class="edge">
<title>6&#45;&gt;1</title>
<path fill="none" stroke="#c0c0c0" stroke-width="2" d="M531.4257,-143.8314C540.4857,-135.1337 551.4809,-124.5783 561.3265,-115.1265"/>
<polygon fill="#c0c0c0" stroke="#c0c0c0" stroke-width="2" points="563.7904,-117.613 568.5804,-108.1628 558.9426,-112.5633 563.7904,-117.613"/>
</g>
<!-- 7 -->
<g id="node8" class="node">
<title>7</title>
<path fill="none" stroke="#d8bc56" stroke-width="2" stroke-dasharray="5,2" d="M715,-180C715,-180 608,-180 608,-180 602,-180 596,-174 596,-168 596,-168 596,-156 596,-156 596,-150 602,-144 608,-144 608,-144 715,-144 715,-144 721,-144 727,-150 727,-156 727,-156 727,-168 727,-168 727,-174 721,-180 715,-180"/>
<text text-anchor="middle" x="661.5" y="-165" font-family="sans" font-size="10.00" fill="#000000">virulence_identification</text>
<text text-anchor="middle" x="661.5" y="-154" font-family="sans" font-size="10.00" fill="#000000">sample: MP8&#45;17</text>
</g>
<!-- 7&#45;&gt;1 -->
<g id="edge7" class="edge">
<title>7&#45;&gt;1</title>
<path fill="none" stroke="#c0c0c0" stroke-width="2" d="M642.8267,-143.8314C633.9751,-135.219 623.2514,-124.7851 613.6105,-115.4048"/>
<polygon fill="#c0c0c0" stroke="#c0c0c0" stroke-width="2" points="615.7754,-112.6279 606.1674,-108.1628 610.8939,-117.645 615.7754,-112.6279"/>
</g>
<!-- 8 -->
<g id="node9" class="node">
<title>8</title>
<path fill="none" stroke="#d8bc56" stroke-width="2" stroke-dasharray="5,2" d="M864,-180C864,-180 757,-180 757,-180 751,-180 745,-174 745,-168 745,-168 745,-156 745,-156 745,-150 751,-144 757,-144 757,-144 864,-144 864,-144 870,-144 876,-150 876,-156 876,-156 876,-168 876,-168 876,-174 870,-180 864,-180"/>
<text text-anchor="middle" x="810.5" y="-165" font-family="sans" font-size="10.00" fill="#000000">virulence_identification</text>
<text text-anchor="middle" x="810.5" y="-154" font-family="sans" font-size="10.00" fill="#000000">sample: MP8&#45;1</text>
</g>
<!-- 8&#45;&gt;1 -->
<g id="edge8" class="edge">
<title>8&#45;&gt;1</title>
<path fill="none" stroke="#c0c0c0" stroke-width="2" d="M754.5155,-143.9243C723.765,-133.9959 685.4512,-121.6255 653.2795,-111.2382"/>
<polygon fill="#c0c0c0" stroke="#c0c0c0" stroke-width="2" points="654.0992,-107.825 643.5075,-108.0831 651.9484,-114.4864 654.0992,-107.825"/>
</g>
<!-- 9 -->
<g id="node10" class="node">
<title>9</title>
<path fill="none" stroke="#d8bc56" stroke-width="2" stroke-dasharray="5,2" d="M1013,-180C1013,-180 906,-180 906,-180 900,-180 894,-174 894,-168 894,-168 894,-156 894,-156 894,-150 900,-144 906,-144 906,-144 1013,-144 1013,-144 1019,-144 1025,-150 1025,-156 1025,-156 1025,-168 1025,-168 1025,-174 1019,-180 1013,-180"/>
<text text-anchor="middle" x="959.5" y="-165" font-family="sans" font-size="10.00" fill="#000000">virulence_identification</text>
<text text-anchor="middle" x="959.5" y="-154" font-family="sans" font-size="10.00" fill="#000000">sample: V583</text>
</g>
<!-- 9&#45;&gt;1 -->
<g id="edge9" class="edge">
<title>9&#45;&gt;1</title>
<path fill="none" stroke="#c0c0c0" stroke-width="2" d="M893.6968,-145.9881C890.5912,-145.3014 887.5136,-144.6351 884.5,-144 807.6639,-127.8077 719.0307,-112.0716 658.7301,-101.8044"/>
<polygon fill="#c0c0c0" stroke="#c0c0c0" stroke-width="2" points="659.0015,-98.3005 648.5569,-100.0783 657.8306,-105.2019 659.0015,-98.3005"/>
</g>
<!-- 10 -->
<g id="node11" class="node">
<title>10</title>
<path fill="none" stroke="#88d856" stroke-width="2" stroke-dasharray="5,2" d="M1167.5,-180C1167.5,-180 1055.5,-180 1055.5,-180 1049.5,-180 1043.5,-174 1043.5,-168 1043.5,-168 1043.5,-156 1043.5,-156 1043.5,-150 1049.5,-144 1055.5,-144 1055.5,-144 1167.5,-144 1167.5,-144 1173.5,-144 1179.5,-150 1179.5,-156 1179.5,-156 1179.5,-168 1179.5,-168 1179.5,-174 1173.5,-180 1167.5,-180"/>
<text text-anchor="middle" x="1111.5" y="-165" font-family="sans" font-size="10.00" fill="#000000">resistance_identification</text>
<text text-anchor="middle" x="1111.5" y="-154" font-family="sans" font-size="10.00" fill="#000000">sample: MP9&#45;10</text>
</g>
<!-- 10&#45;&gt;2 -->
<g id="edge10" class="edge">
<title>10&#45;&gt;2</title>
<path fill="none" stroke="#c0c0c0" stroke-width="2" d="M1179.89,-145.8029C1182.7961,-145.181 1185.6754,-144.5773 1188.5,-144 1268.2319,-127.7046 1360.1965,-111.9773 1422.7287,-101.7403"/>
<polygon fill="#c0c0c0" stroke="#c0c0c0" stroke-width="2" points="1423.5853,-105.1469 1432.8913,-100.0825 1422.4583,-98.2383 1423.5853,-105.1469"/>
</g>
<!-- 11 -->
<g id="node12" class="node">
<title>11</title>
<path fill="none" stroke="#88d856" stroke-width="2" stroke-dasharray="5,2" d="M1321.5,-180C1321.5,-180 1209.5,-180 1209.5,-180 1203.5,-180 1197.5,-174 1197.5,-168 1197.5,-168 1197.5,-156 1197.5,-156 1197.5,-150 1203.5,-144 1209.5,-144 1209.5,-144 1321.5,-144 1321.5,-144 1327.5,-144 1333.5,-150 1333.5,-156 1333.5,-156 1333.5,-168 1333.5,-168 1333.5,-174 1327.5,-180 1321.5,-180"/>
<text text-anchor="middle" x="1265.5" y="-165" font-family="sans" font-size="10.00" fill="#000000">resistance_identification</text>
<text text-anchor="middle" x="1265.5" y="-154" font-family="sans" font-size="10.00" fill="#000000">sample: MP2&#45;6</text>
</g>
<!-- 11&#45;&gt;2 -->
<g id="edge11" class="edge">
<title>11&#45;&gt;2</title>
<path fill="none" stroke="#c0c0c0" stroke-width="2" d="M1323.4929,-143.9243C1355.4838,-133.9531 1395.3772,-121.5188 1428.7913,-111.104"/>
<polygon fill="#c0c0c0" stroke="#c0c0c0" stroke-width="2" points="1429.9778,-114.4004 1438.4833,-108.0831 1427.8947,-107.7174 1429.9778,-114.4004"/>
</g>
<!-- 12 -->
<g id="node13" class="node">
<title>12</title>
<path fill="none" stroke="#88d856" stroke-width="2" stroke-dasharray="5,2" d="M1475.5,-180C1475.5,-180 1363.5,-180 1363.5,-180 1357.5,-180 1351.5,-174 1351.5,-168 1351.5,-168 1351.5,-156 1351.5,-156 1351.5,-150 1357.5,-144 1363.5,-144 1363.5,-144 1475.5,-144 1475.5,-144 1481.5,-144 1487.5,-150 1487.5,-156 1487.5,-156 1487.5,-168 1487.5,-168 1487.5,-174 1481.5,-180 1475.5,-180"/>
<text text-anchor="middle" x="1419.5" y="-165" font-family="sans" font-size="10.00" fill="#000000">resistance_identification</text>
<text text-anchor="middle" x="1419.5" y="-154" font-family="sans" font-size="10.00" fill="#000000">sample: MP8&#45;17</text>
</g>
<!-- 12&#45;&gt;2 -->
<g id="edge12" class="edge">
<title>12&#45;&gt;2</title>
<path fill="none" stroke="#c0c0c0" stroke-width="2" d="M1438.9304,-143.8314C1448.232,-135.1337 1459.5204,-124.5783 1469.6286,-115.1265"/>
<polygon fill="#c0c0c0" stroke="#c0c0c0" stroke-width="2" points="1472.1621,-117.5493 1477.0759,-108.1628 1467.3811,-112.4363 1472.1621,-117.5493"/>
</g>
<!-- 13 -->
<g id="node14" class="node">
<title>13</title>
<path fill="none" stroke="#88d856" stroke-width="2" stroke-dasharray="5,2" d="M1629.5,-180C1629.5,-180 1517.5,-180 1517.5,-180 1511.5,-180 1505.5,-174 1505.5,-168 1505.5,-168 1505.5,-156 1505.5,-156 1505.5,-150 1511.5,-144 1517.5,-144 1517.5,-144 1629.5,-144 1629.5,-144 1635.5,-144 1641.5,-150 1641.5,-156 1641.5,-156 1641.5,-168 1641.5,-168 1641.5,-174 1635.5,-180 1629.5,-180"/>
<text text-anchor="middle" x="1573.5" y="-165" font-family="sans" font-size="10.00" fill="#000000">resistance_identification</text>
<text text-anchor="middle" x="1573.5" y="-154" font-family="sans" font-size="10.00" fill="#000000">sample: OG1RF</text>
</g>
<!-- 13&#45;&gt;2 -->
<g id="edge13" class="edge">
<title>13&#45;&gt;2</title>
<path fill="none" stroke="#c0c0c0" stroke-width="2" d="M1554.0696,-143.8314C1544.768,-135.1337 1533.4796,-124.5783 1523.3714,-115.1265"/>
<polygon fill="#c0c0c0" stroke="#c0c0c0" stroke-width="2" points="1525.6189,-112.4363 1515.9241,-108.1628 1520.8379,-117.5493 1525.6189,-112.4363"/>
</g>
<!-- 14 -->
<g id="node15" class="node">
<title>14</title>
<path fill="none" stroke="#88d856" stroke-width="2" stroke-dasharray="5,2" d="M1783.5,-180C1783.5,-180 1671.5,-180 1671.5,-180 1665.5,-180 1659.5,-174 1659.5,-168 1659.5,-168 1659.5,-156 1659.5,-156 1659.5,-150 1665.5,-144 1671.5,-144 1671.5,-144 1783.5,-144 1783.5,-144 1789.5,-144 1795.5,-150 1795.5,-156 1795.5,-156 1795.5,-168 1795.5,-168 1795.5,-174 1789.5,-180 1783.5,-180"/>
<text text-anchor="middle" x="1727.5" y="-165" font-family="sans" font-size="10.00" fill="#000000">resistance_identification</text>
<text text-anchor="middle" x="1727.5" y="-154" font-family="sans" font-size="10.00" fill="#000000">sample: V583</text>
</g>
<!-- 14&#45;&gt;2 -->
<g id="edge14" class="edge">
<title>14&#45;&gt;2</title>
<path fill="none" stroke="#c0c0c0" stroke-width="2" d="M1669.5071,-143.9243C1637.5162,-133.9531 1597.6228,-121.5188 1564.2087,-111.104"/>
<polygon fill="#c0c0c0" stroke="#c0c0c0" stroke-width="2" points="1565.1053,-107.7174 1554.5167,-108.0831 1563.0222,-114.4004 1565.1053,-107.7174"/>
</g>
<!-- 15 -->
<g id="node16" class="node">
<title>15</title>
<path fill="none" stroke="#88d856" stroke-width="2" stroke-dasharray="5,2" d="M1937.5,-180C1937.5,-180 1825.5,-180 1825.5,-180 1819.5,-180 1813.5,-174 1813.5,-168 1813.5,-168 1813.5,-156 1813.5,-156 1813.5,-150 1819.5,-144 1825.5,-144 1825.5,-144 1937.5,-144 1937.5,-144 1943.5,-144 1949.5,-150 1949.5,-156 1949.5,-156 1949.5,-168 1949.5,-168 1949.5,-174 1943.5,-180 1937.5,-180"/>
<text text-anchor="middle" x="1881.5" y="-165" font-family="sans" font-size="10.00" fill="#000000">resistance_identification</text>
<text text-anchor="middle" x="1881.5" y="-154" font-family="sans" font-size="10.00" fill="#000000">sample: MP8&#45;1</text>
</g>
<!-- 15&#45;&gt;2 -->
<g id="edge15" class="edge">
<title>15&#45;&gt;2</title>
<path fill="none" stroke="#c0c0c0" stroke-width="2" d="M1813.11,-145.8029C1810.2039,-145.181 1807.3246,-144.5773 1804.5,-144 1724.7681,-127.7046 1632.8035,-111.9773 1570.2713,-101.7403"/>
<polygon fill="#c0c0c0" stroke="#c0c0c0" stroke-width="2" points="1570.5417,-98.2383 1560.1087,-100.0825 1569.4147,-105.1469 1570.5417,-98.2383"/>
</g>
<!-- 16 -->
<g id="node17" class="node">
<title>16</title>
<path fill="none" stroke="#88d856" stroke-width="2" stroke-dasharray="5,2" d="M2091.5,-180C2091.5,-180 1979.5,-180 1979.5,-180 1973.5,-180 1967.5,-174 1967.5,-168 1967.5,-168 1967.5,-156 1967.5,-156 1967.5,-150 1973.5,-144 1979.5,-144 1979.5,-144 2091.5,-144 2091.5,-144 2097.5,-144 2103.5,-150 2103.5,-156 2103.5,-156 2103.5,-168 2103.5,-168 2103.5,-174 2097.5,-180 2091.5,-180"/>
<text text-anchor="middle" x="2035.5" y="-165" font-family="sans" font-size="10.00" fill="#000000">resistance_identification</text>
<text text-anchor="middle" x="2035.5" y="-154" font-family="sans" font-size="10.00" fill="#000000">sample: MP5&#45;8</text>
</g>
<!-- 16&#45;&gt;2 -->
<g id="edge16" class="edge">
<title>16&#45;&gt;2</title>
<path fill="none" stroke="#c0c0c0" stroke-width="2" d="M1967.1488,-145.5981C1964.2321,-145.0322 1961.3399,-144.4963 1958.5,-144 1822.4026,-120.2176 1661.8701,-104.1048 1570.3484,-96.0324"/>
<polygon fill="#c0c0c0" stroke="#c0c0c0" stroke-width="2" points="1570.6184,-92.5428 1560.3515,-95.1585 1570.0087,-99.5162 1570.6184,-92.5428"/>
</g>
</g>
</svg>
