<?xml version="1.0" encoding="UTF-8" standalone="no"?>
<!DOCTYPE svg PUBLIC "-//W3C//DTD SVG 1.1//EN"
 "http://www.w3.org/Graphics/SVG/1.1/DTD/svg11.dtd">
<!-- Generated by graphviz version 2.40.1 (20161225.0304)
 -->
<!-- Title: snakemake_dag Pages: 1 -->
<svg width="437pt" height="116pt"
 viewBox="0.00 0.00 437.00 116.00" xmlns="http://www.w3.org/2000/svg" xmlns:xlink="http://www.w3.org/1999/xlink">
<g id="graph0" class="graph" transform="scale(1 1) rotate(0) translate(4 112)">
<title>snakemake_dag</title>
<polygon fill="#ffffff" stroke="transparent" points="-4,4 -4,-112 433,-112 433,4 -4,4"/>
<!-- 0 -->
<g id="node1" class="node">
<title>0</title>
<path fill="none" stroke="#56d8d8" stroke-width="2" d="M263.5,-36C263.5,-36 165.5,-36 165.5,-36 159.5,-36 153.5,-30 153.5,-24 153.5,-24 153.5,-12 153.5,-12 153.5,-6 159.5,0 165.5,0 165.5,0 263.5,0 263.5,0 269.5,0 275.5,-6 275.5,-12 275.5,-12 275.5,-24 275.5,-24 275.5,-30 269.5,-36 263.5,-36"/>
<text text-anchor="middle" x="214.5" y="-15.5" font-family="sans" font-size="10.00" fill="#000000">summarize_virulence</text>
</g>
<!-- 1 -->
<g id="node2" class="node">
<title>1</title>
<path fill="none" stroke="#d6d856" stroke-width="2" d="M119,-108C119,-108 12,-108 12,-108 6,-108 0,-102 0,-96 0,-96 0,-84 0,-84 0,-78 6,-72 12,-72 12,-72 119,-72 119,-72 125,-72 131,-78 131,-84 131,-84 131,-96 131,-96 131,-102 125,-108 119,-108"/>
<text text-anchor="middle" x="65.5" y="-93" font-family="sans" font-size="10.00" fill="#000000">virulence_identification</text>
<text text-anchor="middle" x="65.5" y="-82" font-family="sans" font-size="10.00" fill="#000000">sample: MP5&#45;8</text>
</g>
<!-- 1&#45;&gt;0 -->
<g id="edge1" class="edge">
<title>1&#45;&gt;0</title>
<path fill="none" stroke="#c0c0c0" stroke-width="2" d="M103.099,-71.8314C122.8497,-62.2874 147.2297,-50.5065 168.1417,-40.4013"/>
<polygon fill="#c0c0c0" stroke="#c0c0c0" stroke-width="2" points="169.6903,-43.5403 177.1714,-36.038 166.6447,-37.2376 169.6903,-43.5403"/>
</g>
<!-- 2 -->
<g id="node3" class="node">
<title>2</title>
<path fill="none" stroke="#d6d856" stroke-width="2" d="M268,-108C268,-108 161,-108 161,-108 155,-108 149,-102 149,-96 149,-96 149,-84 149,-84 149,-78 155,-72 161,-72 161,-72 268,-72 268,-72 274,-72 280,-78 280,-84 280,-84 280,-96 280,-96 280,-102 274,-108 268,-108"/>
<text text-anchor="middle" x="214.5" y="-93" font-family="sans" font-size="10.00" fill="#000000">virulence_identification</text>
<text text-anchor="middle" x="214.5" y="-82" font-family="sans" font-size="10.00" fill="#000000">sample: MP2&#45;6</text>
</g>
<!-- 2&#45;&gt;0 -->
<g id="edge2" class="edge">
<title>2&#45;&gt;0</title>
<path fill="none" stroke="#c0c0c0" stroke-width="2" d="M214.5,-71.8314C214.5,-64.131 214.5,-54.9743 214.5,-46.4166"/>
<polygon fill="#c0c0c0" stroke="#c0c0c0" stroke-width="2" points="218.0001,-46.4132 214.5,-36.4133 211.0001,-46.4133 218.0001,-46.4132"/>
</g>
<!-- 3 -->
<g id="node4" class="node">
<title>3</title>
<path fill="none" stroke="#d6d856" stroke-width="2" d="M417,-108C417,-108 310,-108 310,-108 304,-108 298,-102 298,-96 298,-96 298,-84 298,-84 298,-78 304,-72 310,-72 310,-72 417,-72 417,-72 423,-72 429,-78 429,-84 429,-84 429,-96 429,-96 429,-102 423,-108 417,-108"/>
<text text-anchor="middle" x="363.5" y="-93" font-family="sans" font-size="10.00" fill="#000000">virulence_identification</text>
<text text-anchor="middle" x="363.5" y="-82" font-family="sans" font-size="10.00" fill="#000000">sample: MP8&#45;1</text>
</g>
<!-- 3&#45;&gt;0 -->
<g id="edge3" class="edge">
<title>3&#45;&gt;0</title>
<path fill="none" stroke="#c0c0c0" stroke-width="2" d="M325.901,-71.8314C306.1503,-62.2874 281.7703,-50.5065 260.8583,-40.4013"/>
<polygon fill="#c0c0c0" stroke="#c0c0c0" stroke-width="2" points="262.3553,-37.2376 251.8286,-36.038 259.3097,-43.5403 262.3553,-37.2376"/>
</g>
</g>
</svg>
