<?xml version="1.0" encoding="UTF-8" standalone="no"?>
<!DOCTYPE svg PUBLIC "-//W3C//DTD SVG 1.1//EN"
 "http://www.w3.org/Graphics/SVG/1.1/DTD/svg11.dtd">
<!-- Generated by graphviz version 2.40.1 (20161225.0304)
 -->
<!-- Title: snakemake_dag Pages: 1 -->
<svg width="799pt" height="332pt"
 viewBox="0.00 0.00 799.00 332.00" xmlns="http://www.w3.org/2000/svg" xmlns:xlink="http://www.w3.org/1999/xlink">
<g id="graph0" class="graph" transform="scale(1 1) rotate(0) translate(4 328)">
<title>snakemake_dag</title>
<polygon fill="#ffffff" stroke="transparent" points="-4,4 -4,-328 795,-328 795,4 -4,4"/>
<!-- 0 -->
<g id="node1" class="node">
<title>0</title>
<path fill="none" stroke="#56d0d8" stroke-width="2" d="M425,-36C425,-36 395,-36 395,-36 389,-36 383,-30 383,-24 383,-24 383,-12 383,-12 383,-6 389,0 395,0 395,0 425,0 425,0 431,0 437,-6 437,-12 437,-12 437,-24 437,-24 437,-30 431,-36 425,-36"/>
<text text-anchor="middle" x="410" y="-15.5" font-family="sans" font-size="10.00" fill="#000000">all</text>
</g>
<!-- 1 -->
<g id="node2" class="node">
<title>1</title>
<path fill="none" stroke="#d8cb56" stroke-width="2" d="M448.5,-108C448.5,-108 371.5,-108 371.5,-108 365.5,-108 359.5,-102 359.5,-96 359.5,-96 359.5,-84 359.5,-84 359.5,-78 365.5,-72 371.5,-72 371.5,-72 448.5,-72 448.5,-72 454.5,-72 460.5,-78 460.5,-84 460.5,-84 460.5,-96 460.5,-96 460.5,-102 454.5,-108 448.5,-108"/>
<text text-anchor="middle" x="410" y="-87.5" font-family="sans" font-size="10.00" fill="#000000">summary_results</text>
</g>
<!-- 1&#45;&gt;0 -->
<g id="edge1" class="edge">
<title>1&#45;&gt;0</title>
<path fill="none" stroke="#c0c0c0" stroke-width="2" d="M410,-71.8314C410,-64.131 410,-54.9743 410,-46.4166"/>
<polygon fill="#c0c0c0" stroke="#c0c0c0" stroke-width="2" points="413.5001,-46.4132 410,-36.4133 406.5001,-46.4133 413.5001,-46.4132"/>
</g>
<!-- 2 -->
<g id="node3" class="node">
<title>2</title>
<path fill="none" stroke="#d8a456" stroke-width="2" d="M158,-180C158,-180 12,-180 12,-180 6,-180 0,-174 0,-168 0,-168 0,-156 0,-156 0,-150 6,-144 12,-144 12,-144 158,-144 158,-144 164,-144 170,-150 170,-156 170,-156 170,-168 170,-168 170,-174 164,-180 158,-180"/>
<text text-anchor="middle" x="85" y="-159.5" font-family="sans" font-size="10.00" fill="#000000">summarize_plasmid_prediction</text>
</g>
<!-- 2&#45;&gt;1 -->
<g id="edge3" class="edge">
<title>2&#45;&gt;1</title>
<path fill="none" stroke="#c0c0c0" stroke-width="2" d="M166.5917,-143.9243C223.3532,-131.3494 297.7971,-114.8573 349.3404,-103.4384"/>
<polygon fill="#c0c0c0" stroke="#c0c0c0" stroke-width="2" points="350.3255,-106.8052 359.3317,-101.225 348.8113,-99.9709 350.3255,-106.8052"/>
</g>
<!-- 3 -->
<g id="node4" class="node">
<title>3</title>
<path fill="none" stroke="#56d892" stroke-width="2" d="M298,-180C298,-180 200,-180 200,-180 194,-180 188,-174 188,-168 188,-168 188,-156 188,-156 188,-150 194,-144 200,-144 200,-144 298,-144 298,-144 304,-144 310,-150 310,-156 310,-156 310,-168 310,-168 310,-174 304,-180 298,-180"/>
<text text-anchor="middle" x="249" y="-159.5" font-family="sans" font-size="10.00" fill="#000000">summarize_virulence</text>
</g>
<!-- 3&#45;&gt;1 -->
<g id="edge4" class="edge">
<title>3&#45;&gt;1</title>
<path fill="none" stroke="#c0c0c0" stroke-width="2" d="M289.6271,-143.8314C311.1599,-134.2018 337.7849,-122.295 360.5152,-112.1299"/>
<polygon fill="#c0c0c0" stroke="#c0c0c0" stroke-width="2" points="361.9652,-115.3155 369.665,-108.038 359.1074,-108.9254 361.9652,-115.3155"/>
</g>
<!-- 4 -->
<g id="node5" class="node">
<title>4</title>
<path fill="none" stroke="#d85656" stroke-width="2" d="M479.5,-180C479.5,-180 340.5,-180 340.5,-180 334.5,-180 328.5,-174 328.5,-168 328.5,-168 328.5,-156 328.5,-156 328.5,-150 334.5,-144 340.5,-144 340.5,-144 479.5,-144 479.5,-144 485.5,-144 491.5,-150 491.5,-156 491.5,-156 491.5,-168 491.5,-168 491.5,-174 485.5,-180 479.5,-180"/>
<text text-anchor="middle" x="410" y="-159.5" font-family="sans" font-size="10.00" fill="#000000">generate_resistome_heatmap</text>
</g>
<!-- 4&#45;&gt;1 -->
<g id="edge2" class="edge">
<title>4&#45;&gt;1</title>
<path fill="none" stroke="#c0c0c0" stroke-width="2" d="M410,-143.8314C410,-136.131 410,-126.9743 410,-118.4166"/>
<polygon fill="#c0c0c0" stroke="#c0c0c0" stroke-width="2" points="413.5001,-118.4132 410,-108.4133 406.5001,-118.4133 413.5001,-118.4132"/>
</g>
<!-- 5 -->
<g id="node6" class="node">
<title>5</title>
<path fill="none" stroke="#56a9d8" stroke-width="2" d="M644.5,-180C644.5,-180 521.5,-180 521.5,-180 515.5,-180 509.5,-174 509.5,-168 509.5,-168 509.5,-156 509.5,-156 509.5,-150 515.5,-144 521.5,-144 521.5,-144 644.5,-144 644.5,-144 650.5,-144 656.5,-150 656.5,-156 656.5,-156 656.5,-168 656.5,-168 656.5,-174 650.5,-180 644.5,-180"/>
<text text-anchor="middle" x="583" y="-159.5" font-family="sans" font-size="10.00" fill="#000000">genomic_island_prediction</text>
</g>
<!-- 5&#45;&gt;1 -->
<g id="edge5" class="edge">
<title>5&#45;&gt;1</title>
<path fill="none" stroke="#c0c0c0" stroke-width="2" d="M539.3448,-143.8314C516.1042,-134.159 487.3432,-122.1891 462.8477,-111.9944"/>
<polygon fill="#c0c0c0" stroke="#c0c0c0" stroke-width="2" points="463.9185,-108.6491 453.3413,-108.038 461.2288,-115.1117 463.9185,-108.6491"/>
</g>
<!-- 6 -->
<g id="node7" class="node">
<title>6</title>
<path fill="none" stroke="#d87d56" stroke-width="2" d="M779,-180C779,-180 687,-180 687,-180 681,-180 675,-174 675,-168 675,-168 675,-156 675,-156 675,-150 681,-144 687,-144 687,-144 779,-144 779,-144 785,-144 791,-150 791,-156 791,-156 791,-168 791,-168 791,-174 785,-180 779,-180"/>
<text text-anchor="middle" x="733" y="-159.5" font-family="sans" font-size="10.00" fill="#000000">prophage_prediction</text>
</g>
<!-- 6&#45;&gt;1 -->
<g id="edge6" class="edge">
<title>6&#45;&gt;1</title>
<path fill="none" stroke="#c0c0c0" stroke-width="2" d="M674.8098,-146.3917C671.4951,-145.5665 668.2076,-144.7637 665,-144 598.9667,-128.279 522.7689,-112.4416 470.9888,-102.0216"/>
<polygon fill="#c0c0c0" stroke="#c0c0c0" stroke-width="2" points="471.4617,-98.5468 460.9686,-100.0115 470.0848,-105.4101 471.4617,-98.5468"/>
</g>
<!-- 7 -->
<g id="node8" class="node">
<title>7</title>
<path fill="none" stroke="#567bd8" stroke-width="2" d="M128,-252C128,-252 42,-252 42,-252 36,-252 30,-246 30,-240 30,-240 30,-228 30,-228 30,-222 36,-216 42,-216 42,-216 128,-216 128,-216 134,-216 140,-222 140,-228 140,-228 140,-240 140,-240 140,-246 134,-252 128,-252"/>
<text text-anchor="middle" x="85" y="-231.5" font-family="sans" font-size="10.00" fill="#000000">plasmid_prediction</text>
</g>
<!-- 7&#45;&gt;2 -->
<g id="edge7" class="edge">
<title>7&#45;&gt;2</title>
<path fill="none" stroke="#c0c0c0" stroke-width="2" d="M85,-215.8314C85,-208.131 85,-198.9743 85,-190.4166"/>
<polygon fill="#c0c0c0" stroke="#c0c0c0" stroke-width="2" points="88.5001,-190.4132 85,-180.4133 81.5001,-190.4133 88.5001,-190.4132"/>
</g>
<!-- 8 -->
<g id="node9" class="node">
<title>8</title>
<path fill="none" stroke="#68d856" stroke-width="2" d="M302.5,-252C302.5,-252 195.5,-252 195.5,-252 189.5,-252 183.5,-246 183.5,-240 183.5,-240 183.5,-228 183.5,-228 183.5,-222 189.5,-216 195.5,-216 195.5,-216 302.5,-216 302.5,-216 308.5,-216 314.5,-222 314.5,-228 314.5,-228 314.5,-240 314.5,-240 314.5,-246 308.5,-252 302.5,-252"/>
<text text-anchor="middle" x="249" y="-231.5" font-family="sans" font-size="10.00" fill="#000000">virulence_identification</text>
</g>
<!-- 8&#45;&gt;3 -->
<g id="edge8" class="edge">
<title>8&#45;&gt;3</title>
<path fill="none" stroke="#c0c0c0" stroke-width="2" d="M249,-215.8314C249,-208.131 249,-198.9743 249,-190.4166"/>
<polygon fill="#c0c0c0" stroke="#c0c0c0" stroke-width="2" points="252.5001,-190.4132 249,-180.4133 245.5001,-190.4133 252.5001,-190.4132"/>
</g>
<!-- 9 -->
<g id="node10" class="node">
<title>9</title>
<path fill="none" stroke="#56d8b9" stroke-width="2" d="M457.5,-252C457.5,-252 362.5,-252 362.5,-252 356.5,-252 350.5,-246 350.5,-240 350.5,-240 350.5,-228 350.5,-228 350.5,-222 356.5,-216 362.5,-216 362.5,-216 457.5,-216 457.5,-216 463.5,-216 469.5,-222 469.5,-228 469.5,-228 469.5,-240 469.5,-240 469.5,-246 463.5,-252 457.5,-252"/>
<text text-anchor="middle" x="410" y="-231.5" font-family="sans" font-size="10.00" fill="#000000">resistome_prediction</text>
</g>
<!-- 9&#45;&gt;4 -->
<g id="edge9" class="edge">
<title>9&#45;&gt;4</title>
<path fill="none" stroke="#c0c0c0" stroke-width="2" d="M410,-215.8314C410,-208.131 410,-198.9743 410,-190.4166"/>
<polygon fill="#c0c0c0" stroke="#c0c0c0" stroke-width="2" points="413.5001,-190.4132 410,-180.4133 406.5001,-190.4133 413.5001,-190.4132"/>
</g>
<!-- 10 -->
<g id="node11" class="node">
<title>10</title>
<path fill="none" stroke="#8fd856" stroke-width="2" d="M702,-324C702,-324 612,-324 612,-324 606,-324 600,-318 600,-312 600,-312 600,-300 600,-300 600,-294 606,-288 612,-288 612,-288 702,-288 702,-288 708,-288 714,-294 714,-300 714,-300 714,-312 714,-312 714,-318 708,-324 702,-324"/>
<text text-anchor="middle" x="657" y="-303.5" font-family="sans" font-size="10.00" fill="#000000">genome_annotation</text>
</g>
<!-- 10&#45;&gt;5 -->
<g id="edge10" class="edge">
<title>10&#45;&gt;5</title>
<path fill="none" stroke="#c0c0c0" stroke-width="2" d="M647.6278,-287.7623C634.8393,-262.8764 611.82,-218.0822 596.9862,-189.2165"/>
<polygon fill="#c0c0c0" stroke="#c0c0c0" stroke-width="2" points="599.9798,-187.3842 592.2961,-180.0896 593.7538,-190.5837 599.9798,-187.3842"/>
</g>
<!-- 11 -->
<g id="node12" class="node">
<title>11</title>
<path fill="none" stroke="#b6d856" stroke-width="2" d="M765,-252C765,-252 669,-252 669,-252 663,-252 657,-246 657,-240 657,-240 657,-228 657,-228 657,-222 663,-216 669,-216 669,-216 765,-216 765,-216 771,-216 777,-222 777,-228 777,-228 777,-240 777,-240 777,-246 771,-252 765,-252"/>
<text text-anchor="middle" x="717" y="-231.5" font-family="sans" font-size="10.00" fill="#000000">convert_gbk_to_seed</text>
</g>
<!-- 10&#45;&gt;11 -->
<g id="edge12" class="edge">
<title>10&#45;&gt;11</title>
<path fill="none" stroke="#c0c0c0" stroke-width="2" d="M672.1405,-287.8314C679.1217,-279.454 687.5391,-269.3531 695.1876,-260.1749"/>
<polygon fill="#c0c0c0" stroke="#c0c0c0" stroke-width="2" points="697.9425,-262.3362 701.6556,-252.4133 692.5649,-257.8548 697.9425,-262.3362"/>
</g>
<!-- 11&#45;&gt;6 -->
<g id="edge11" class="edge">
<title>11&#45;&gt;6</title>
<path fill="none" stroke="#c0c0c0" stroke-width="2" d="M721.0375,-215.8314C722.7487,-208.131 724.7835,-198.9743 726.6852,-190.4166"/>
<polygon fill="#c0c0c0" stroke="#c0c0c0" stroke-width="2" points="730.1554,-190.9344 728.9082,-180.4133 723.3221,-189.4159 730.1554,-190.9344"/>
</g>
</g>
</svg>
