<?xml version="1.0" encoding="UTF-8" standalone="no"?>
<!DOCTYPE svg PUBLIC "-//W3C//DTD SVG 1.1//EN"
 "http://www.w3.org/Graphics/SVG/1.1/DTD/svg11.dtd">
<!-- Generated by graphviz version 2.40.1 (20161225.0304)
 -->
<!-- Title: snakemake_dag Pages: 1 -->
<svg width="2208pt" height="260pt"
 viewBox="0.00 0.00 2207.50 260.00" xmlns="http://www.w3.org/2000/svg" xmlns:xlink="http://www.w3.org/1999/xlink">
<g id="graph0" class="graph" transform="scale(1 1) rotate(0) translate(4 256)">
<title>snakemake_dag</title>
<polygon fill="#ffffff" stroke="transparent" points="-4,4 -4,-256 2203.5,-256 2203.5,4 -4,4"/>
<!-- 0 -->
<g id="node1" class="node">
<title>0</title>
<path fill="none" stroke="#56d89a" stroke-width="2" stroke-dasharray="5,2" d="M1646,-36C1646,-36 1616,-36 1616,-36 1610,-36 1604,-30 1604,-24 1604,-24 1604,-12 1604,-12 1604,-6 1610,0 1616,0 1616,0 1646,0 1646,0 1652,0 1658,-6 1658,-12 1658,-12 1658,-24 1658,-24 1658,-30 1652,-36 1646,-36"/>
<text text-anchor="middle" x="1631" y="-15.5" font-family="sans" font-size="10.00" fill="#000000">all</text>
</g>
<!-- 1 -->
<g id="node2" class="node">
<title>1</title>
<path fill="none" stroke="#56d86b" stroke-width="2" stroke-dasharray="5,2" d="M1669.5,-108C1669.5,-108 1592.5,-108 1592.5,-108 1586.5,-108 1580.5,-102 1580.5,-96 1580.5,-96 1580.5,-84 1580.5,-84 1580.5,-78 1586.5,-72 1592.5,-72 1592.5,-72 1669.5,-72 1669.5,-72 1675.5,-72 1681.5,-78 1681.5,-84 1681.5,-84 1681.5,-96 1681.5,-96 1681.5,-102 1675.5,-108 1669.5,-108"/>
<text text-anchor="middle" x="1631" y="-87.5" font-family="sans" font-size="10.00" fill="#000000">summary_results</text>
</g>
<!-- 1&#45;&gt;0 -->
<g id="edge1" class="edge">
<title>1&#45;&gt;0</title>
<path fill="none" stroke="#c0c0c0" stroke-width="2" d="M1631,-71.8314C1631,-64.131 1631,-54.9743 1631,-46.4166"/>
<polygon fill="#c0c0c0" stroke="#c0c0c0" stroke-width="2" points="1634.5001,-46.4132 1631,-36.4133 1627.5001,-46.4133 1634.5001,-46.4132"/>
</g>
<!-- 2 -->
<g id="node3" class="node">
<title>2</title>
<path fill="none" stroke="#d8b456" stroke-width="2" stroke-dasharray="5,2" d="M384,-180C384,-180 238,-180 238,-180 232,-180 226,-174 226,-168 226,-168 226,-156 226,-156 226,-150 232,-144 238,-144 238,-144 384,-144 384,-144 390,-144 396,-150 396,-156 396,-156 396,-168 396,-168 396,-174 390,-180 384,-180"/>
<text text-anchor="middle" x="311" y="-159.5" font-family="sans" font-size="10.00" fill="#000000">summarize_plasmid_prediction</text>
</g>
<!-- 2&#45;&gt;1 -->
<g id="edge2" class="edge">
<title>2&#45;&gt;1</title>
<path fill="none" stroke="#c0c0c0" stroke-width="2" d="M396.0852,-157.359C643.1942,-143.8803 1356.8226,-104.9551 1570.0996,-93.3218"/>
<polygon fill="#c0c0c0" stroke="#c0c0c0" stroke-width="2" points="1570.3769,-96.812 1580.1714,-92.7725 1569.9956,-89.8224 1570.3769,-96.812"/>
</g>
<!-- 3 -->
<g id="node4" class="node">
<title>3</title>
<path fill="none" stroke="#ced856" stroke-width="2" stroke-dasharray="5,2" d="M925,-180C925,-180 827,-180 827,-180 821,-180 815,-174 815,-168 815,-168 815,-156 815,-156 815,-150 821,-144 827,-144 827,-144 925,-144 925,-144 931,-144 937,-150 937,-156 937,-156 937,-168 937,-168 937,-174 931,-180 925,-180"/>
<text text-anchor="middle" x="876" y="-159.5" font-family="sans" font-size="10.00" fill="#000000">summarize_virulence</text>
</g>
<!-- 3&#45;&gt;1 -->
<g id="edge3" class="edge">
<title>3&#45;&gt;1</title>
<path fill="none" stroke="#c0c0c0" stroke-width="2" d="M937.1453,-156.1689C1078.9333,-142.6474 1428.7994,-109.2827 1570.2247,-95.7958"/>
<polygon fill="#c0c0c0" stroke="#c0c0c0" stroke-width="2" points="1570.8215,-99.2548 1580.4441,-94.8212 1570.1569,-92.2865 1570.8215,-99.2548"/>
</g>
<!-- 4 -->
<g id="node5" class="node">
<title>4</title>
<path fill="none" stroke="#70d856" stroke-width="2" stroke-dasharray="5,2" d="M1511.5,-180C1511.5,-180 1372.5,-180 1372.5,-180 1366.5,-180 1360.5,-174 1360.5,-168 1360.5,-168 1360.5,-156 1360.5,-156 1360.5,-150 1366.5,-144 1372.5,-144 1372.5,-144 1511.5,-144 1511.5,-144 1517.5,-144 1523.5,-150 1523.5,-156 1523.5,-156 1523.5,-168 1523.5,-168 1523.5,-174 1517.5,-180 1511.5,-180"/>
<text text-anchor="middle" x="1442" y="-159.5" font-family="sans" font-size="10.00" fill="#000000">generate_resistome_heatmap</text>
</g>
<!-- 4&#45;&gt;1 -->
<g id="edge4" class="edge">
<title>4&#45;&gt;1</title>
<path fill="none" stroke="#c0c0c0" stroke-width="2" d="M1489.6927,-143.8314C1515.3073,-134.0734 1547.0602,-121.977 1573.974,-111.7242"/>
<polygon fill="#c0c0c0" stroke="#c0c0c0" stroke-width="2" points="1575.5514,-114.8687 1583.6503,-108.038 1573.0594,-108.3273 1575.5514,-114.8687"/>
</g>
<!-- 5 -->
<g id="node6" class="node">
<title>5</title>
<path fill="none" stroke="#5682d8" stroke-width="2" stroke-dasharray="5,2" d="M1692.5,-180C1692.5,-180 1569.5,-180 1569.5,-180 1563.5,-180 1557.5,-174 1557.5,-168 1557.5,-168 1557.5,-156 1557.5,-156 1557.5,-150 1563.5,-144 1569.5,-144 1569.5,-144 1692.5,-144 1692.5,-144 1698.5,-144 1704.5,-150 1704.5,-156 1704.5,-156 1704.5,-168 1704.5,-168 1704.5,-174 1698.5,-180 1692.5,-180"/>
<text text-anchor="middle" x="1631" y="-159.5" font-family="sans" font-size="10.00" fill="#000000">genomic_island_prediction</text>
</g>
<!-- 5&#45;&gt;1 -->
<g id="edge5" class="edge">
<title>5&#45;&gt;1</title>
<path fill="none" stroke="#c0c0c0" stroke-width="2" d="M1631,-143.8314C1631,-136.131 1631,-126.9743 1631,-118.4166"/>
<polygon fill="#c0c0c0" stroke="#c0c0c0" stroke-width="2" points="1634.5001,-118.4132 1631,-108.4133 1627.5001,-118.4133 1634.5001,-118.4132"/>
</g>
<!-- 6 -->
<g id="node7" class="node">
<title>6</title>
<path fill="none" stroke="#5682d8" stroke-width="2" stroke-dasharray="5,2" d="M1857.5,-180C1857.5,-180 1734.5,-180 1734.5,-180 1728.5,-180 1722.5,-174 1722.5,-168 1722.5,-168 1722.5,-156 1722.5,-156 1722.5,-150 1728.5,-144 1734.5,-144 1734.5,-144 1857.5,-144 1857.5,-144 1863.5,-144 1869.5,-150 1869.5,-156 1869.5,-156 1869.5,-168 1869.5,-168 1869.5,-174 1863.5,-180 1857.5,-180"/>
<text text-anchor="middle" x="1796" y="-159.5" font-family="sans" font-size="10.00" fill="#000000">genomic_island_prediction</text>
</g>
<!-- 6&#45;&gt;1 -->
<g id="edge6" class="edge">
<title>6&#45;&gt;1</title>
<path fill="none" stroke="#c0c0c0" stroke-width="2" d="M1754.3635,-143.8314C1732.2958,-134.2018 1705.0093,-122.295 1681.7143,-112.1299"/>
<polygon fill="#c0c0c0" stroke="#c0c0c0" stroke-width="2" points="1682.9023,-108.8296 1672.3371,-108.038 1680.1026,-115.2454 1682.9023,-108.8296"/>
</g>
<!-- 7 -->
<g id="node8" class="node">
<title>7</title>
<path fill="none" stroke="#5682d8" stroke-width="2" stroke-dasharray="5,2" d="M2022.5,-180C2022.5,-180 1899.5,-180 1899.5,-180 1893.5,-180 1887.5,-174 1887.5,-168 1887.5,-168 1887.5,-156 1887.5,-156 1887.5,-150 1893.5,-144 1899.5,-144 1899.5,-144 2022.5,-144 2022.5,-144 2028.5,-144 2034.5,-150 2034.5,-156 2034.5,-156 2034.5,-168 2034.5,-168 2034.5,-174 2028.5,-180 2022.5,-180"/>
<text text-anchor="middle" x="1961" y="-159.5" font-family="sans" font-size="10.00" fill="#000000">genomic_island_prediction</text>
</g>
<!-- 7&#45;&gt;1 -->
<g id="edge7" class="edge">
<title>7&#45;&gt;1</title>
<path fill="none" stroke="#c0c0c0" stroke-width="2" d="M1887.2441,-145.8035C1884.4608,-145.1943 1881.7054,-144.5915 1879,-144 1815.1672,-130.0444 1742.0755,-114.1383 1691.8678,-103.2235"/>
<polygon fill="#c0c0c0" stroke="#c0c0c0" stroke-width="2" points="1692.3425,-99.745 1681.8272,-101.0409 1690.8556,-106.5853 1692.3425,-99.745"/>
</g>
<!-- 8 -->
<g id="node9" class="node">
<title>8</title>
<path fill="none" stroke="#5682d8" stroke-width="2" stroke-dasharray="5,2" d="M2187.5,-180C2187.5,-180 2064.5,-180 2064.5,-180 2058.5,-180 2052.5,-174 2052.5,-168 2052.5,-168 2052.5,-156 2052.5,-156 2052.5,-150 2058.5,-144 2064.5,-144 2064.5,-144 2187.5,-144 2187.5,-144 2193.5,-144 2199.5,-150 2199.5,-156 2199.5,-156 2199.5,-168 2199.5,-168 2199.5,-174 2193.5,-180 2187.5,-180"/>
<text text-anchor="middle" x="2126" y="-159.5" font-family="sans" font-size="10.00" fill="#000000">genomic_island_prediction</text>
</g>
<!-- 8&#45;&gt;1 -->
<g id="edge8" class="edge">
<title>8&#45;&gt;1</title>
<path fill="none" stroke="#c0c0c0" stroke-width="2" d="M2052.302,-145.5088C2049.5026,-144.982 2046.7279,-144.4768 2044,-144 1919.5049,-122.2386 1772.5001,-105.0215 1691.7481,-96.2867"/>
<polygon fill="#c0c0c0" stroke="#c0c0c0" stroke-width="2" points="1692.0741,-92.8017 1681.7573,-95.2128 1691.326,-99.7616 1692.0741,-92.8017"/>
</g>
<!-- 9 -->
<g id="node10" class="node">
<title>9</title>
<path fill="none" stroke="#9fd856" stroke-width="2" stroke-dasharray="5,2" d="M98,-252C98,-252 12,-252 12,-252 6,-252 0,-246 0,-240 0,-240 0,-228 0,-228 0,-222 6,-216 12,-216 12,-216 98,-216 98,-216 104,-216 110,-222 110,-228 110,-228 110,-240 110,-240 110,-246 104,-252 98,-252"/>
<text text-anchor="middle" x="55" y="-237" font-family="sans" font-size="10.00" fill="#000000">plasmid_prediction</text>
<text text-anchor="middle" x="55" y="-226" font-family="sans" font-size="10.00" fill="#000000">sample: C7</text>
</g>
<!-- 9&#45;&gt;2 -->
<g id="edge9" class="edge">
<title>9&#45;&gt;2</title>
<path fill="none" stroke="#c0c0c0" stroke-width="2" d="M110.233,-218.4657C147.3037,-208.0396 196.5679,-194.184 237.018,-182.8074"/>
<polygon fill="#c0c0c0" stroke="#c0c0c0" stroke-width="2" points="238.1532,-186.124 246.8321,-180.0472 236.2579,-179.3855 238.1532,-186.124"/>
</g>
<!-- 10 -->
<g id="node11" class="node">
<title>10</title>
<path fill="none" stroke="#9fd856" stroke-width="2" stroke-dasharray="5,2" d="M226,-252C226,-252 140,-252 140,-252 134,-252 128,-246 128,-240 128,-240 128,-228 128,-228 128,-222 134,-216 140,-216 140,-216 226,-216 226,-216 232,-216 238,-222 238,-228 238,-228 238,-240 238,-240 238,-246 232,-252 226,-252"/>
<text text-anchor="middle" x="183" y="-237" font-family="sans" font-size="10.00" fill="#000000">plasmid_prediction</text>
<text text-anchor="middle" x="183" y="-226" font-family="sans" font-size="10.00" fill="#000000">sample: D2</text>
</g>
<!-- 10&#45;&gt;2 -->
<g id="edge10" class="edge">
<title>10&#45;&gt;2</title>
<path fill="none" stroke="#c0c0c0" stroke-width="2" d="M215.2998,-215.8314C231.8234,-206.5368 252.1186,-195.1208 269.7607,-185.1971"/>
<polygon fill="#c0c0c0" stroke="#c0c0c0" stroke-width="2" points="271.7107,-188.116 278.7105,-180.1628 268.2788,-182.015 271.7107,-188.116"/>
</g>
<!-- 11 -->
<g id="node12" class="node">
<title>11</title>
<path fill="none" stroke="#9fd856" stroke-width="2" stroke-dasharray="5,2" d="M354,-252C354,-252 268,-252 268,-252 262,-252 256,-246 256,-240 256,-240 256,-228 256,-228 256,-222 262,-216 268,-216 268,-216 354,-216 354,-216 360,-216 366,-222 366,-228 366,-228 366,-240 366,-240 366,-246 360,-252 354,-252"/>
<text text-anchor="middle" x="311" y="-237" font-family="sans" font-size="10.00" fill="#000000">plasmid_prediction</text>
<text text-anchor="middle" x="311" y="-226" font-family="sans" font-size="10.00" fill="#000000">sample: B9</text>
</g>
<!-- 11&#45;&gt;2 -->
<g id="edge11" class="edge">
<title>11&#45;&gt;2</title>
<path fill="none" stroke="#c0c0c0" stroke-width="2" d="M311,-215.8314C311,-208.131 311,-198.9743 311,-190.4166"/>
<polygon fill="#c0c0c0" stroke="#c0c0c0" stroke-width="2" points="314.5001,-190.4132 311,-180.4133 307.5001,-190.4133 314.5001,-190.4132"/>
</g>
<!-- 12 -->
<g id="node13" class="node">
<title>12</title>
<path fill="none" stroke="#9fd856" stroke-width="2" stroke-dasharray="5,2" d="M482,-252C482,-252 396,-252 396,-252 390,-252 384,-246 384,-240 384,-240 384,-228 384,-228 384,-222 390,-216 396,-216 396,-216 482,-216 482,-216 488,-216 494,-222 494,-228 494,-228 494,-240 494,-240 494,-246 488,-252 482,-252"/>
<text text-anchor="middle" x="439" y="-237" font-family="sans" font-size="10.00" fill="#000000">plasmid_prediction</text>
<text text-anchor="middle" x="439" y="-226" font-family="sans" font-size="10.00" fill="#000000">sample: DMW1&#45;1</text>
</g>
<!-- 12&#45;&gt;2 -->
<g id="edge12" class="edge">
<title>12&#45;&gt;2</title>
<path fill="none" stroke="#c0c0c0" stroke-width="2" d="M406.7002,-215.8314C390.1766,-206.5368 369.8814,-195.1208 352.2393,-185.1971"/>
<polygon fill="#c0c0c0" stroke="#c0c0c0" stroke-width="2" points="353.7212,-182.015 343.2895,-180.1628 350.2893,-188.116 353.7212,-182.015"/>
</g>
<!-- 13 -->
<g id="node14" class="node">
<title>13</title>
<path fill="none" stroke="#56b1d8" stroke-width="2" stroke-dasharray="5,2" d="M631.5,-252C631.5,-252 524.5,-252 524.5,-252 518.5,-252 512.5,-246 512.5,-240 512.5,-240 512.5,-228 512.5,-228 512.5,-222 518.5,-216 524.5,-216 524.5,-216 631.5,-216 631.5,-216 637.5,-216 643.5,-222 643.5,-228 643.5,-228 643.5,-240 643.5,-240 643.5,-246 637.5,-252 631.5,-252"/>
<text text-anchor="middle" x="578" y="-237" font-family="sans" font-size="10.00" fill="#000000">virulence_identification</text>
<text text-anchor="middle" x="578" y="-226" font-family="sans" font-size="10.00" fill="#000000">sample: C7</text>
</g>
<!-- 13&#45;&gt;3 -->
<g id="edge13" class="edge">
<title>13&#45;&gt;3</title>
<path fill="none" stroke="#c0c0c0" stroke-width="2" d="M643.7658,-217.9955C646.5476,-217.3209 649.3014,-216.6535 652,-216 703.146,-203.6146 760.8772,-189.6988 804.92,-179.096"/>
<polygon fill="#c0c0c0" stroke="#c0c0c0" stroke-width="2" points="805.766,-182.4924 814.6692,-176.7493 804.1278,-175.6868 805.766,-182.4924"/>
</g>
<!-- 14 -->
<g id="node15" class="node">
<title>14</title>
<path fill="none" stroke="#56b1d8" stroke-width="2" stroke-dasharray="5,2" d="M780.5,-252C780.5,-252 673.5,-252 673.5,-252 667.5,-252 661.5,-246 661.5,-240 661.5,-240 661.5,-228 661.5,-228 661.5,-222 667.5,-216 673.5,-216 673.5,-216 780.5,-216 780.5,-216 786.5,-216 792.5,-222 792.5,-228 792.5,-228 792.5,-240 792.5,-240 792.5,-246 786.5,-252 780.5,-252"/>
<text text-anchor="middle" x="727" y="-237" font-family="sans" font-size="10.00" fill="#000000">virulence_identification</text>
<text text-anchor="middle" x="727" y="-226" font-family="sans" font-size="10.00" fill="#000000">sample: D2</text>
</g>
<!-- 14&#45;&gt;3 -->
<g id="edge14" class="edge">
<title>14&#45;&gt;3</title>
<path fill="none" stroke="#c0c0c0" stroke-width="2" d="M764.599,-215.8314C784.3497,-206.2874 808.7297,-194.5065 829.6417,-184.4013"/>
<polygon fill="#c0c0c0" stroke="#c0c0c0" stroke-width="2" points="831.1903,-187.5403 838.6714,-180.038 828.1447,-181.2376 831.1903,-187.5403"/>
</g>
<!-- 15 -->
<g id="node16" class="node">
<title>15</title>
<path fill="none" stroke="#56b1d8" stroke-width="2" stroke-dasharray="5,2" d="M929.5,-252C929.5,-252 822.5,-252 822.5,-252 816.5,-252 810.5,-246 810.5,-240 810.5,-240 810.5,-228 810.5,-228 810.5,-222 816.5,-216 822.5,-216 822.5,-216 929.5,-216 929.5,-216 935.5,-216 941.5,-222 941.5,-228 941.5,-228 941.5,-240 941.5,-240 941.5,-246 935.5,-252 929.5,-252"/>
<text text-anchor="middle" x="876" y="-237" font-family="sans" font-size="10.00" fill="#000000">virulence_identification</text>
<text text-anchor="middle" x="876" y="-226" font-family="sans" font-size="10.00" fill="#000000">sample: B9</text>
</g>
<!-- 15&#45;&gt;3 -->
<g id="edge15" class="edge">
<title>15&#45;&gt;3</title>
<path fill="none" stroke="#c0c0c0" stroke-width="2" d="M876,-215.8314C876,-208.131 876,-198.9743 876,-190.4166"/>
<polygon fill="#c0c0c0" stroke="#c0c0c0" stroke-width="2" points="879.5001,-190.4132 876,-180.4133 872.5001,-190.4133 879.5001,-190.4132"/>
</g>
<!-- 16 -->
<g id="node17" class="node">
<title>16</title>
<path fill="none" stroke="#56b1d8" stroke-width="2" stroke-dasharray="5,2" d="M1078.5,-252C1078.5,-252 971.5,-252 971.5,-252 965.5,-252 959.5,-246 959.5,-240 959.5,-240 959.5,-228 959.5,-228 959.5,-222 965.5,-216 971.5,-216 971.5,-216 1078.5,-216 1078.5,-216 1084.5,-216 1090.5,-222 1090.5,-228 1090.5,-228 1090.5,-240 1090.5,-240 1090.5,-246 1084.5,-252 1078.5,-252"/>
<text text-anchor="middle" x="1025" y="-237" font-family="sans" font-size="10.00" fill="#000000">virulence_identification</text>
<text text-anchor="middle" x="1025" y="-226" font-family="sans" font-size="10.00" fill="#000000">sample: DMW1&#45;1</text>
</g>
<!-- 16&#45;&gt;3 -->
<g id="edge16" class="edge">
<title>16&#45;&gt;3</title>
<path fill="none" stroke="#c0c0c0" stroke-width="2" d="M987.401,-215.8314C967.6503,-206.2874 943.2703,-194.5065 922.3583,-184.4013"/>
<polygon fill="#c0c0c0" stroke="#c0c0c0" stroke-width="2" points="923.8553,-181.2376 913.3286,-180.038 920.8097,-187.5403 923.8553,-181.2376"/>
</g>
<!-- 17 -->
<g id="node18" class="node">
<title>17</title>
<path fill="none" stroke="#56d8c9" stroke-width="2" stroke-dasharray="5,2" d="M1215.5,-252C1215.5,-252 1120.5,-252 1120.5,-252 1114.5,-252 1108.5,-246 1108.5,-240 1108.5,-240 1108.5,-228 1108.5,-228 1108.5,-222 1114.5,-216 1120.5,-216 1120.5,-216 1215.5,-216 1215.5,-216 1221.5,-216 1227.5,-222 1227.5,-228 1227.5,-228 1227.5,-240 1227.5,-240 1227.5,-246 1221.5,-252 1215.5,-252"/>
<text text-anchor="middle" x="1168" y="-237" font-family="sans" font-size="10.00" fill="#000000">resistome_prediction</text>
<text text-anchor="middle" x="1168" y="-226" font-family="sans" font-size="10.00" fill="#000000">sample: C7</text>
</g>
<!-- 17&#45;&gt;4 -->
<g id="edge17" class="edge">
<title>17&#45;&gt;4</title>
<path fill="none" stroke="#c0c0c0" stroke-width="2" d="M1227.7919,-218.2883C1267.5269,-207.8469 1320.1277,-194.0248 1363.2602,-182.6908"/>
<polygon fill="#c0c0c0" stroke="#c0c0c0" stroke-width="2" points="1364.3745,-186.0168 1373.1567,-180.0902 1362.5955,-179.2467 1364.3745,-186.0168"/>
</g>
<!-- 18 -->
<g id="node19" class="node">
<title>18</title>
<path fill="none" stroke="#56d8c9" stroke-width="2" stroke-dasharray="5,2" d="M1352.5,-252C1352.5,-252 1257.5,-252 1257.5,-252 1251.5,-252 1245.5,-246 1245.5,-240 1245.5,-240 1245.5,-228 1245.5,-228 1245.5,-222 1251.5,-216 1257.5,-216 1257.5,-216 1352.5,-216 1352.5,-216 1358.5,-216 1364.5,-222 1364.5,-228 1364.5,-228 1364.5,-240 1364.5,-240 1364.5,-246 1358.5,-252 1352.5,-252"/>
<text text-anchor="middle" x="1305" y="-237" font-family="sans" font-size="10.00" fill="#000000">resistome_prediction</text>
<text text-anchor="middle" x="1305" y="-226" font-family="sans" font-size="10.00" fill="#000000">sample: D2</text>
</g>
<!-- 18&#45;&gt;4 -->
<g id="edge18" class="edge">
<title>18&#45;&gt;4</title>
<path fill="none" stroke="#c0c0c0" stroke-width="2" d="M1339.5709,-215.8314C1357.4185,-206.4516 1379.3774,-194.9112 1398.38,-184.9244"/>
<polygon fill="#c0c0c0" stroke="#c0c0c0" stroke-width="2" points="1400.2164,-187.9132 1407.4402,-180.1628 1396.9599,-181.7168 1400.2164,-187.9132"/>
</g>
<!-- 19 -->
<g id="node20" class="node">
<title>19</title>
<path fill="none" stroke="#56d8c9" stroke-width="2" stroke-dasharray="5,2" d="M1489.5,-252C1489.5,-252 1394.5,-252 1394.5,-252 1388.5,-252 1382.5,-246 1382.5,-240 1382.5,-240 1382.5,-228 1382.5,-228 1382.5,-222 1388.5,-216 1394.5,-216 1394.5,-216 1489.5,-216 1489.5,-216 1495.5,-216 1501.5,-222 1501.5,-228 1501.5,-228 1501.5,-240 1501.5,-240 1501.5,-246 1495.5,-252 1489.5,-252"/>
<text text-anchor="middle" x="1442" y="-237" font-family="sans" font-size="10.00" fill="#000000">resistome_prediction</text>
<text text-anchor="middle" x="1442" y="-226" font-family="sans" font-size="10.00" fill="#000000">sample: B9</text>
</g>
<!-- 19&#45;&gt;4 -->
<g id="edge19" class="edge">
<title>19&#45;&gt;4</title>
<path fill="none" stroke="#c0c0c0" stroke-width="2" d="M1442,-215.8314C1442,-208.131 1442,-198.9743 1442,-190.4166"/>
<polygon fill="#c0c0c0" stroke="#c0c0c0" stroke-width="2" points="1445.5001,-190.4132 1442,-180.4133 1438.5001,-190.4133 1445.5001,-190.4132"/>
</g>
<!-- 20 -->
<g id="node21" class="node">
<title>20</title>
<path fill="none" stroke="#56d8c9" stroke-width="2" stroke-dasharray="5,2" d="M1626.5,-252C1626.5,-252 1531.5,-252 1531.5,-252 1525.5,-252 1519.5,-246 1519.5,-240 1519.5,-240 1519.5,-228 1519.5,-228 1519.5,-222 1525.5,-216 1531.5,-216 1531.5,-216 1626.5,-216 1626.5,-216 1632.5,-216 1638.5,-222 1638.5,-228 1638.5,-228 1638.5,-240 1638.5,-240 1638.5,-246 1632.5,-252 1626.5,-252"/>
<text text-anchor="middle" x="1579" y="-237" font-family="sans" font-size="10.00" fill="#000000">resistome_prediction</text>
<text text-anchor="middle" x="1579" y="-226" font-family="sans" font-size="10.00" fill="#000000">sample: DMW1&#45;1</text>
</g>
<!-- 20&#45;&gt;4 -->
<g id="edge20" class="edge">
<title>20&#45;&gt;4</title>
<path fill="none" stroke="#c0c0c0" stroke-width="2" d="M1544.4291,-215.8314C1526.5815,-206.4516 1504.6226,-194.9112 1485.62,-184.9244"/>
<polygon fill="#c0c0c0" stroke="#c0c0c0" stroke-width="2" points="1487.0401,-181.7168 1476.5598,-180.1628 1483.7836,-187.9132 1487.0401,-181.7168"/>
</g>
<!-- 21 -->
<g id="node22" class="node">
<title>21</title>
<path fill="none" stroke="#d85656" stroke-width="2" stroke-dasharray="5,2" d="M1759,-252C1759,-252 1669,-252 1669,-252 1663,-252 1657,-246 1657,-240 1657,-240 1657,-228 1657,-228 1657,-222 1663,-216 1669,-216 1669,-216 1759,-216 1759,-216 1765,-216 1771,-222 1771,-228 1771,-228 1771,-240 1771,-240 1771,-246 1765,-252 1759,-252"/>
<text text-anchor="middle" x="1714" y="-237" font-family="sans" font-size="10.00" fill="#000000">genome_annotation</text>
<text text-anchor="middle" x="1714" y="-226" font-family="sans" font-size="10.00" fill="#000000">sample: C7</text>
</g>
<!-- 21&#45;&gt;5 -->
<g id="edge21" class="edge">
<title>21&#45;&gt;5</title>
<path fill="none" stroke="#c0c0c0" stroke-width="2" d="M1693.0556,-215.8314C1682.9309,-207.0485 1670.6223,-196.3712 1659.6452,-186.8489"/>
<polygon fill="#c0c0c0" stroke="#c0c0c0" stroke-width="2" points="1661.7851,-184.0718 1651.9377,-180.1628 1657.1981,-189.3595 1661.7851,-184.0718"/>
</g>
<!-- 22 -->
<g id="node23" class="node">
<title>22</title>
<path fill="none" stroke="#d85656" stroke-width="2" stroke-dasharray="5,2" d="M1891,-252C1891,-252 1801,-252 1801,-252 1795,-252 1789,-246 1789,-240 1789,-240 1789,-228 1789,-228 1789,-222 1795,-216 1801,-216 1801,-216 1891,-216 1891,-216 1897,-216 1903,-222 1903,-228 1903,-228 1903,-240 1903,-240 1903,-246 1897,-252 1891,-252"/>
<text text-anchor="middle" x="1846" y="-237" font-family="sans" font-size="10.00" fill="#000000">genome_annotation</text>
<text text-anchor="middle" x="1846" y="-226" font-family="sans" font-size="10.00" fill="#000000">sample: D2</text>
</g>
<!-- 22&#45;&gt;6 -->
<g id="edge22" class="edge">
<title>22&#45;&gt;6</title>
<path fill="none" stroke="#c0c0c0" stroke-width="2" d="M1833.3829,-215.8314C1827.6828,-207.6232 1820.8337,-197.7606 1814.5641,-188.7323"/>
<polygon fill="#c0c0c0" stroke="#c0c0c0" stroke-width="2" points="1817.3658,-186.6306 1808.787,-180.4133 1811.6162,-190.6234 1817.3658,-186.6306"/>
</g>
<!-- 23 -->
<g id="node24" class="node">
<title>23</title>
<path fill="none" stroke="#d85656" stroke-width="2" stroke-dasharray="5,2" d="M2023,-252C2023,-252 1933,-252 1933,-252 1927,-252 1921,-246 1921,-240 1921,-240 1921,-228 1921,-228 1921,-222 1927,-216 1933,-216 1933,-216 2023,-216 2023,-216 2029,-216 2035,-222 2035,-228 2035,-228 2035,-240 2035,-240 2035,-246 2029,-252 2023,-252"/>
<text text-anchor="middle" x="1978" y="-237" font-family="sans" font-size="10.00" fill="#000000">genome_annotation</text>
<text text-anchor="middle" x="1978" y="-226" font-family="sans" font-size="10.00" fill="#000000">sample: B9</text>
</g>
<!-- 23&#45;&gt;7 -->
<g id="edge23" class="edge">
<title>23&#45;&gt;7</title>
<path fill="none" stroke="#c0c0c0" stroke-width="2" d="M1973.7102,-215.8314C1971.892,-208.131 1969.7301,-198.9743 1967.7095,-190.4166"/>
<polygon fill="#c0c0c0" stroke="#c0c0c0" stroke-width="2" points="1971.0519,-189.3414 1965.3476,-180.4133 1964.2392,-190.95 1971.0519,-189.3414"/>
</g>
<!-- 24 -->
<g id="node25" class="node">
<title>24</title>
<path fill="none" stroke="#d85656" stroke-width="2" stroke-dasharray="5,2" d="M2171,-252C2171,-252 2081,-252 2081,-252 2075,-252 2069,-246 2069,-240 2069,-240 2069,-228 2069,-228 2069,-222 2075,-216 2081,-216 2081,-216 2171,-216 2171,-216 2177,-216 2183,-222 2183,-228 2183,-228 2183,-240 2183,-240 2183,-246 2177,-252 2171,-252"/>
<text text-anchor="middle" x="2126" y="-237" font-family="sans" font-size="10.00" fill="#000000">genome_annotation</text>
<text text-anchor="middle" x="2126" y="-226" font-family="sans" font-size="10.00" fill="#000000">sample: DMW1&#45;1</text>
</g>
<!-- 24&#45;&gt;8 -->
<g id="edge24" class="edge">
<title>24&#45;&gt;8</title>
<path fill="none" stroke="#c0c0c0" stroke-width="2" d="M2126,-215.8314C2126,-208.131 2126,-198.9743 2126,-190.4166"/>
<polygon fill="#c0c0c0" stroke="#c0c0c0" stroke-width="2" points="2129.5001,-190.4132 2126,-180.4133 2122.5001,-190.4133 2129.5001,-190.4132"/>
</g>
</g>
</svg>
