<?xml version="1.0" encoding="UTF-8" standalone="no"?>
<!DOCTYPE svg PUBLIC "-//W3C//DTD SVG 1.1//EN"
 "http://www.w3.org/Graphics/SVG/1.1/DTD/svg11.dtd">
<!-- Generated by graphviz version 2.40.1 (20161225.0304)
 -->
<!-- Title: snakemake_dag Pages: 1 -->
<svg width="1647pt" height="260pt"
 viewBox="0.00 0.00 1646.50 260.00" xmlns="http://www.w3.org/2000/svg" xmlns:xlink="http://www.w3.org/1999/xlink">
<g id="graph0" class="graph" transform="scale(1 1) rotate(0) translate(4 256)">
<title>snakemake_dag</title>
<polygon fill="#ffffff" stroke="transparent" points="-4,4 -4,-256 1642.5,-256 1642.5,4 -4,4"/>
<!-- 0 -->
<g id="node1" class="node">
<title>0</title>
<path fill="none" stroke="#56d8a9" stroke-width="2" stroke-dasharray="5,2" d="M816,-36C816,-36 786,-36 786,-36 780,-36 774,-30 774,-24 774,-24 774,-12 774,-12 774,-6 780,0 786,0 786,0 816,0 816,0 822,0 828,-6 828,-12 828,-12 828,-24 828,-24 828,-30 822,-36 816,-36"/>
<text text-anchor="middle" x="801" y="-15.5" font-family="sans" font-size="10.00" fill="#000000">all</text>
</g>
<!-- 1 -->
<g id="node2" class="node">
<title>1</title>
<path fill="none" stroke="#d85656" stroke-width="2" stroke-dasharray="5,2" d="M839.5,-108C839.5,-108 762.5,-108 762.5,-108 756.5,-108 750.5,-102 750.5,-96 750.5,-96 750.5,-84 750.5,-84 750.5,-78 756.5,-72 762.5,-72 762.5,-72 839.5,-72 839.5,-72 845.5,-72 851.5,-78 851.5,-84 851.5,-84 851.5,-96 851.5,-96 851.5,-102 845.5,-108 839.5,-108"/>
<text text-anchor="middle" x="801" y="-87.5" font-family="sans" font-size="10.00" fill="#000000">summary_results</text>
</g>
<!-- 1&#45;&gt;0 -->
<g id="edge1" class="edge">
<title>1&#45;&gt;0</title>
<path fill="none" stroke="#c0c0c0" stroke-width="2" d="M801,-71.8314C801,-64.131 801,-54.9743 801,-46.4166"/>
<polygon fill="#c0c0c0" stroke="#c0c0c0" stroke-width="2" points="804.5001,-46.4132 801,-36.4133 797.5001,-46.4133 804.5001,-46.4132"/>
</g>
<!-- 2 -->
<g id="node3" class="node">
<title>2</title>
<path fill="none" stroke="#d8cb56" stroke-width="2" stroke-dasharray="5,2" d="M384,-180C384,-180 238,-180 238,-180 232,-180 226,-174 226,-168 226,-168 226,-156 226,-156 226,-150 232,-144 238,-144 238,-144 384,-144 384,-144 390,-144 396,-150 396,-156 396,-156 396,-168 396,-168 396,-174 390,-180 384,-180"/>
<text text-anchor="middle" x="311" y="-159.5" font-family="sans" font-size="10.00" fill="#000000">summarize_plasmid_prediction</text>
</g>
<!-- 2&#45;&gt;1 -->
<g id="edge2" class="edge">
<title>2&#45;&gt;1</title>
<path fill="none" stroke="#c0c0c0" stroke-width="2" d="M396.0716,-149.4997C494.4012,-135.0513 653.7694,-111.6339 740.3407,-98.9132"/>
<polygon fill="#c0c0c0" stroke="#c0c0c0" stroke-width="2" points="740.8882,-102.3704 750.2731,-97.4537 739.8705,-95.4448 740.8882,-102.3704"/>
</g>
<!-- 3 -->
<g id="node4" class="node">
<title>3</title>
<path fill="none" stroke="#70d856" stroke-width="2" stroke-dasharray="5,2" d="M850,-180C850,-180 752,-180 752,-180 746,-180 740,-174 740,-168 740,-168 740,-156 740,-156 740,-150 746,-144 752,-144 752,-144 850,-144 850,-144 856,-144 862,-150 862,-156 862,-156 862,-168 862,-168 862,-174 856,-180 850,-180"/>
<text text-anchor="middle" x="801" y="-159.5" font-family="sans" font-size="10.00" fill="#000000">summarize_virulence</text>
</g>
<!-- 3&#45;&gt;1 -->
<g id="edge3" class="edge">
<title>3&#45;&gt;1</title>
<path fill="none" stroke="#c0c0c0" stroke-width="2" d="M801,-143.8314C801,-136.131 801,-126.9743 801,-118.4166"/>
<polygon fill="#c0c0c0" stroke="#c0c0c0" stroke-width="2" points="804.5001,-118.4132 801,-108.4133 797.5001,-118.4133 804.5001,-118.4132"/>
</g>
<!-- 4 -->
<g id="node5" class="node">
<title>4</title>
<path fill="none" stroke="#56d873" stroke-width="2" stroke-dasharray="5,2" d="M1374.5,-180C1374.5,-180 1235.5,-180 1235.5,-180 1229.5,-180 1223.5,-174 1223.5,-168 1223.5,-168 1223.5,-156 1223.5,-156 1223.5,-150 1229.5,-144 1235.5,-144 1235.5,-144 1374.5,-144 1374.5,-144 1380.5,-144 1386.5,-150 1386.5,-156 1386.5,-156 1386.5,-168 1386.5,-168 1386.5,-174 1380.5,-180 1374.5,-180"/>
<text text-anchor="middle" x="1305" y="-159.5" font-family="sans" font-size="10.00" fill="#000000">generate_resistome_heatmap</text>
</g>
<!-- 4&#45;&gt;1 -->
<g id="edge4" class="edge">
<title>4&#45;&gt;1</title>
<path fill="none" stroke="#c0c0c0" stroke-width="2" d="M1223.4635,-150.3519C1122.3292,-135.9042 952.2376,-111.6054 861.8094,-98.6871"/>
<polygon fill="#c0c0c0" stroke="#c0c0c0" stroke-width="2" points="862.1122,-95.1949 851.7177,-97.2454 861.1222,-102.1245 862.1122,-95.1949"/>
</g>
<!-- 5 -->
<g id="node6" class="node">
<title>5</title>
<path fill="none" stroke="#afd856" stroke-width="2" stroke-dasharray="5,2" d="M98,-252C98,-252 12,-252 12,-252 6,-252 0,-246 0,-240 0,-240 0,-228 0,-228 0,-222 6,-216 12,-216 12,-216 98,-216 98,-216 104,-216 110,-222 110,-228 110,-228 110,-240 110,-240 110,-246 104,-252 98,-252"/>
<text text-anchor="middle" x="55" y="-237" font-family="sans" font-size="10.00" fill="#000000">plasmid_prediction</text>
<text text-anchor="middle" x="55" y="-226" font-family="sans" font-size="10.00" fill="#000000">sample: C7</text>
</g>
<!-- 5&#45;&gt;2 -->
<g id="edge5" class="edge">
<title>5&#45;&gt;2</title>
<path fill="none" stroke="#c0c0c0" stroke-width="2" d="M110.233,-218.4657C147.3037,-208.0396 196.5679,-194.184 237.018,-182.8074"/>
<polygon fill="#c0c0c0" stroke="#c0c0c0" stroke-width="2" points="238.1532,-186.124 246.8321,-180.0472 236.2579,-179.3855 238.1532,-186.124"/>
</g>
<!-- 6 -->
<g id="node7" class="node">
<title>6</title>
<path fill="none" stroke="#afd856" stroke-width="2" stroke-dasharray="5,2" d="M226,-252C226,-252 140,-252 140,-252 134,-252 128,-246 128,-240 128,-240 128,-228 128,-228 128,-222 134,-216 140,-216 140,-216 226,-216 226,-216 232,-216 238,-222 238,-228 238,-228 238,-240 238,-240 238,-246 232,-252 226,-252"/>
<text text-anchor="middle" x="183" y="-237" font-family="sans" font-size="10.00" fill="#000000">plasmid_prediction</text>
<text text-anchor="middle" x="183" y="-226" font-family="sans" font-size="10.00" fill="#000000">sample: D2</text>
</g>
<!-- 6&#45;&gt;2 -->
<g id="edge6" class="edge">
<title>6&#45;&gt;2</title>
<path fill="none" stroke="#c0c0c0" stroke-width="2" d="M215.2998,-215.8314C231.8234,-206.5368 252.1186,-195.1208 269.7607,-185.1971"/>
<polygon fill="#c0c0c0" stroke="#c0c0c0" stroke-width="2" points="271.7107,-188.116 278.7105,-180.1628 268.2788,-182.015 271.7107,-188.116"/>
</g>
<!-- 7 -->
<g id="node8" class="node">
<title>7</title>
<path fill="none" stroke="#afd856" stroke-width="2" stroke-dasharray="5,2" d="M354,-252C354,-252 268,-252 268,-252 262,-252 256,-246 256,-240 256,-240 256,-228 256,-228 256,-222 262,-216 268,-216 268,-216 354,-216 354,-216 360,-216 366,-222 366,-228 366,-228 366,-240 366,-240 366,-246 360,-252 354,-252"/>
<text text-anchor="middle" x="311" y="-237" font-family="sans" font-size="10.00" fill="#000000">plasmid_prediction</text>
<text text-anchor="middle" x="311" y="-226" font-family="sans" font-size="10.00" fill="#000000">sample: B9</text>
</g>
<!-- 7&#45;&gt;2 -->
<g id="edge7" class="edge">
<title>7&#45;&gt;2</title>
<path fill="none" stroke="#c0c0c0" stroke-width="2" d="M311,-215.8314C311,-208.131 311,-198.9743 311,-190.4166"/>
<polygon fill="#c0c0c0" stroke="#c0c0c0" stroke-width="2" points="314.5001,-190.4132 311,-180.4133 307.5001,-190.4133 314.5001,-190.4132"/>
</g>
<!-- 8 -->
<g id="node9" class="node">
<title>8</title>
<path fill="none" stroke="#afd856" stroke-width="2" stroke-dasharray="5,2" d="M482,-252C482,-252 396,-252 396,-252 390,-252 384,-246 384,-240 384,-240 384,-228 384,-228 384,-222 390,-216 396,-216 396,-216 482,-216 482,-216 488,-216 494,-222 494,-228 494,-228 494,-240 494,-240 494,-246 488,-252 482,-252"/>
<text text-anchor="middle" x="439" y="-237" font-family="sans" font-size="10.00" fill="#000000">plasmid_prediction</text>
<text text-anchor="middle" x="439" y="-226" font-family="sans" font-size="10.00" fill="#000000">sample: DMW1&#45;1</text>
</g>
<!-- 8&#45;&gt;2 -->
<g id="edge8" class="edge">
<title>8&#45;&gt;2</title>
<path fill="none" stroke="#c0c0c0" stroke-width="2" d="M406.7002,-215.8314C390.1766,-206.5368 369.8814,-195.1208 352.2393,-185.1971"/>
<polygon fill="#c0c0c0" stroke="#c0c0c0" stroke-width="2" points="353.7212,-182.015 343.2895,-180.1628 350.2893,-188.116 353.7212,-182.015"/>
</g>
<!-- 9 -->
<g id="node10" class="node">
<title>9</title>
<path fill="none" stroke="#56c9d8" stroke-width="2" stroke-dasharray="5,2" d="M631.5,-252C631.5,-252 524.5,-252 524.5,-252 518.5,-252 512.5,-246 512.5,-240 512.5,-240 512.5,-228 512.5,-228 512.5,-222 518.5,-216 524.5,-216 524.5,-216 631.5,-216 631.5,-216 637.5,-216 643.5,-222 643.5,-228 643.5,-228 643.5,-240 643.5,-240 643.5,-246 637.5,-252 631.5,-252"/>
<text text-anchor="middle" x="578" y="-237" font-family="sans" font-size="10.00" fill="#000000">virulence_identification</text>
<text text-anchor="middle" x="578" y="-226" font-family="sans" font-size="10.00" fill="#000000">sample: C7</text>
</g>
<!-- 9&#45;&gt;3 -->
<g id="edge9" class="edge">
<title>9&#45;&gt;3</title>
<path fill="none" stroke="#c0c0c0" stroke-width="2" d="M633.9845,-215.9243C664.735,-205.9959 703.0488,-193.6255 735.2205,-183.2382"/>
<polygon fill="#c0c0c0" stroke="#c0c0c0" stroke-width="2" points="736.5516,-186.4864 744.9925,-180.0831 734.4008,-179.825 736.5516,-186.4864"/>
</g>
<!-- 10 -->
<g id="node11" class="node">
<title>10</title>
<path fill="none" stroke="#56c9d8" stroke-width="2" stroke-dasharray="5,2" d="M780.5,-252C780.5,-252 673.5,-252 673.5,-252 667.5,-252 661.5,-246 661.5,-240 661.5,-240 661.5,-228 661.5,-228 661.5,-222 667.5,-216 673.5,-216 673.5,-216 780.5,-216 780.5,-216 786.5,-216 792.5,-222 792.5,-228 792.5,-228 792.5,-240 792.5,-240 792.5,-246 786.5,-252 780.5,-252"/>
<text text-anchor="middle" x="727" y="-237" font-family="sans" font-size="10.00" fill="#000000">virulence_identification</text>
<text text-anchor="middle" x="727" y="-226" font-family="sans" font-size="10.00" fill="#000000">sample: D2</text>
</g>
<!-- 10&#45;&gt;3 -->
<g id="edge10" class="edge">
<title>10&#45;&gt;3</title>
<path fill="none" stroke="#c0c0c0" stroke-width="2" d="M745.6733,-215.8314C754.5249,-207.219 765.2486,-196.7851 774.8895,-187.4048"/>
<polygon fill="#c0c0c0" stroke="#c0c0c0" stroke-width="2" points="777.6061,-189.645 782.3326,-180.1628 772.7246,-184.6279 777.6061,-189.645"/>
</g>
<!-- 11 -->
<g id="node12" class="node">
<title>11</title>
<path fill="none" stroke="#56c9d8" stroke-width="2" stroke-dasharray="5,2" d="M929.5,-252C929.5,-252 822.5,-252 822.5,-252 816.5,-252 810.5,-246 810.5,-240 810.5,-240 810.5,-228 810.5,-228 810.5,-222 816.5,-216 822.5,-216 822.5,-216 929.5,-216 929.5,-216 935.5,-216 941.5,-222 941.5,-228 941.5,-228 941.5,-240 941.5,-240 941.5,-246 935.5,-252 929.5,-252"/>
<text text-anchor="middle" x="876" y="-237" font-family="sans" font-size="10.00" fill="#000000">virulence_identification</text>
<text text-anchor="middle" x="876" y="-226" font-family="sans" font-size="10.00" fill="#000000">sample: B9</text>
</g>
<!-- 11&#45;&gt;3 -->
<g id="edge11" class="edge">
<title>11&#45;&gt;3</title>
<path fill="none" stroke="#c0c0c0" stroke-width="2" d="M857.0743,-215.8314C848.0143,-207.1337 837.0191,-196.5783 827.1735,-187.1265"/>
<polygon fill="#c0c0c0" stroke="#c0c0c0" stroke-width="2" points="829.5574,-184.5633 819.9196,-180.1628 824.7096,-189.613 829.5574,-184.5633"/>
</g>
<!-- 12 -->
<g id="node13" class="node">
<title>12</title>
<path fill="none" stroke="#56c9d8" stroke-width="2" stroke-dasharray="5,2" d="M1078.5,-252C1078.5,-252 971.5,-252 971.5,-252 965.5,-252 959.5,-246 959.5,-240 959.5,-240 959.5,-228 959.5,-228 959.5,-222 965.5,-216 971.5,-216 971.5,-216 1078.5,-216 1078.5,-216 1084.5,-216 1090.5,-222 1090.5,-228 1090.5,-228 1090.5,-240 1090.5,-240 1090.5,-246 1084.5,-252 1078.5,-252"/>
<text text-anchor="middle" x="1025" y="-237" font-family="sans" font-size="10.00" fill="#000000">virulence_identification</text>
<text text-anchor="middle" x="1025" y="-226" font-family="sans" font-size="10.00" fill="#000000">sample: DMW1&#45;1</text>
</g>
<!-- 12&#45;&gt;3 -->
<g id="edge12" class="edge">
<title>12&#45;&gt;3</title>
<path fill="none" stroke="#c0c0c0" stroke-width="2" d="M968.7645,-215.9243C937.8761,-205.9959 899.3904,-193.6255 867.0744,-183.2382"/>
<polygon fill="#c0c0c0" stroke="#c0c0c0" stroke-width="2" points="867.85,-179.8112 857.2587,-180.0831 865.7079,-186.4754 867.85,-179.8112"/>
</g>
<!-- 13 -->
<g id="node14" class="node">
<title>13</title>
<path fill="none" stroke="#5692d8" stroke-width="2" stroke-dasharray="5,2" d="M1215.5,-252C1215.5,-252 1120.5,-252 1120.5,-252 1114.5,-252 1108.5,-246 1108.5,-240 1108.5,-240 1108.5,-228 1108.5,-228 1108.5,-222 1114.5,-216 1120.5,-216 1120.5,-216 1215.5,-216 1215.5,-216 1221.5,-216 1227.5,-222 1227.5,-228 1227.5,-228 1227.5,-240 1227.5,-240 1227.5,-246 1221.5,-252 1215.5,-252"/>
<text text-anchor="middle" x="1168" y="-237" font-family="sans" font-size="10.00" fill="#000000">resistome_prediction</text>
<text text-anchor="middle" x="1168" y="-226" font-family="sans" font-size="10.00" fill="#000000">sample: C7</text>
</g>
<!-- 13&#45;&gt;4 -->
<g id="edge13" class="edge">
<title>13&#45;&gt;4</title>
<path fill="none" stroke="#c0c0c0" stroke-width="2" d="M1202.5709,-215.8314C1220.4185,-206.4516 1242.3774,-194.9112 1261.38,-184.9244"/>
<polygon fill="#c0c0c0" stroke="#c0c0c0" stroke-width="2" points="1263.2164,-187.9132 1270.4402,-180.1628 1259.9599,-181.7168 1263.2164,-187.9132"/>
</g>
<!-- 14 -->
<g id="node15" class="node">
<title>14</title>
<path fill="none" stroke="#5692d8" stroke-width="2" stroke-dasharray="5,2" d="M1352.5,-252C1352.5,-252 1257.5,-252 1257.5,-252 1251.5,-252 1245.5,-246 1245.5,-240 1245.5,-240 1245.5,-228 1245.5,-228 1245.5,-222 1251.5,-216 1257.5,-216 1257.5,-216 1352.5,-216 1352.5,-216 1358.5,-216 1364.5,-222 1364.5,-228 1364.5,-228 1364.5,-240 1364.5,-240 1364.5,-246 1358.5,-252 1352.5,-252"/>
<text text-anchor="middle" x="1305" y="-237" font-family="sans" font-size="10.00" fill="#000000">resistome_prediction</text>
<text text-anchor="middle" x="1305" y="-226" font-family="sans" font-size="10.00" fill="#000000">sample: D2</text>
</g>
<!-- 14&#45;&gt;4 -->
<g id="edge14" class="edge">
<title>14&#45;&gt;4</title>
<path fill="none" stroke="#c0c0c0" stroke-width="2" d="M1305,-215.8314C1305,-208.131 1305,-198.9743 1305,-190.4166"/>
<polygon fill="#c0c0c0" stroke="#c0c0c0" stroke-width="2" points="1308.5001,-190.4132 1305,-180.4133 1301.5001,-190.4133 1308.5001,-190.4132"/>
</g>
<!-- 15 -->
<g id="node16" class="node">
<title>15</title>
<path fill="none" stroke="#5692d8" stroke-width="2" stroke-dasharray="5,2" d="M1489.5,-252C1489.5,-252 1394.5,-252 1394.5,-252 1388.5,-252 1382.5,-246 1382.5,-240 1382.5,-240 1382.5,-228 1382.5,-228 1382.5,-222 1388.5,-216 1394.5,-216 1394.5,-216 1489.5,-216 1489.5,-216 1495.5,-216 1501.5,-222 1501.5,-228 1501.5,-228 1501.5,-240 1501.5,-240 1501.5,-246 1495.5,-252 1489.5,-252"/>
<text text-anchor="middle" x="1442" y="-237" font-family="sans" font-size="10.00" fill="#000000">resistome_prediction</text>
<text text-anchor="middle" x="1442" y="-226" font-family="sans" font-size="10.00" fill="#000000">sample: B9</text>
</g>
<!-- 15&#45;&gt;4 -->
<g id="edge15" class="edge">
<title>15&#45;&gt;4</title>
<path fill="none" stroke="#c0c0c0" stroke-width="2" d="M1407.4291,-215.8314C1389.5815,-206.4516 1367.6226,-194.9112 1348.62,-184.9244"/>
<polygon fill="#c0c0c0" stroke="#c0c0c0" stroke-width="2" points="1350.0401,-181.7168 1339.5598,-180.1628 1346.7836,-187.9132 1350.0401,-181.7168"/>
</g>
<!-- 16 -->
<g id="node17" class="node">
<title>16</title>
<path fill="none" stroke="#5692d8" stroke-width="2" stroke-dasharray="5,2" d="M1626.5,-252C1626.5,-252 1531.5,-252 1531.5,-252 1525.5,-252 1519.5,-246 1519.5,-240 1519.5,-240 1519.5,-228 1519.5,-228 1519.5,-222 1525.5,-216 1531.5,-216 1531.5,-216 1626.5,-216 1626.5,-216 1632.5,-216 1638.5,-222 1638.5,-228 1638.5,-228 1638.5,-240 1638.5,-240 1638.5,-246 1632.5,-252 1626.5,-252"/>
<text text-anchor="middle" x="1579" y="-237" font-family="sans" font-size="10.00" fill="#000000">resistome_prediction</text>
<text text-anchor="middle" x="1579" y="-226" font-family="sans" font-size="10.00" fill="#000000">sample: DMW1&#45;1</text>
</g>
<!-- 16&#45;&gt;4 -->
<g id="edge16" class="edge">
<title>16&#45;&gt;4</title>
<path fill="none" stroke="#c0c0c0" stroke-width="2" d="M1519.2981,-218.1879C1516.4931,-217.4477 1513.7161,-216.7155 1511,-216 1469.1548,-204.9771 1422.5132,-192.7461 1384.2076,-182.7156"/>
<polygon fill="#c0c0c0" stroke="#c0c0c0" stroke-width="2" points="1384.7079,-179.2287 1374.1475,-180.0818 1382.9349,-186.0005 1384.7079,-179.2287"/>
</g>
</g>
</svg>
