<?xml version="1.0" encoding="UTF-8" standalone="no"?>
<!DOCTYPE svg PUBLIC "-//W3C//DTD SVG 1.1//EN"
 "http://www.w3.org/Graphics/SVG/1.1/DTD/svg11.dtd">
<!-- Generated by graphviz version 2.40.1 (20161225.0304)
 -->
<!-- Title: snakemake_dag Pages: 1 -->
<svg width="500pt" height="260pt"
 viewBox="0.00 0.00 499.50 260.00" xmlns="http://www.w3.org/2000/svg" xmlns:xlink="http://www.w3.org/1999/xlink">
<g id="graph0" class="graph" transform="scale(1 1) rotate(0) translate(4 256)">
<title>snakemake_dag</title>
<polygon fill="#ffffff" stroke="transparent" points="-4,4 -4,-256 495.5,-256 495.5,4 -4,4"/>
<!-- 0 -->
<g id="node1" class="node">
<title>0</title>
<path fill="none" stroke="#d85656" stroke-width="2" d="M264,-36C264,-36 234,-36 234,-36 228,-36 222,-30 222,-24 222,-24 222,-12 222,-12 222,-6 228,0 234,0 234,0 264,0 264,0 270,0 276,-6 276,-12 276,-12 276,-24 276,-24 276,-30 270,-36 264,-36"/>
<text text-anchor="middle" x="249" y="-15.5" font-family="sans" font-size="10.00" fill="#000000">all</text>
</g>
<!-- 1 -->
<g id="node2" class="node">
<title>1</title>
<path fill="none" stroke="#5692d8" stroke-width="2" d="M287.5,-108C287.5,-108 210.5,-108 210.5,-108 204.5,-108 198.5,-102 198.5,-96 198.5,-96 198.5,-84 198.5,-84 198.5,-78 204.5,-72 210.5,-72 210.5,-72 287.5,-72 287.5,-72 293.5,-72 299.5,-78 299.5,-84 299.5,-84 299.5,-96 299.5,-96 299.5,-102 293.5,-108 287.5,-108"/>
<text text-anchor="middle" x="249" y="-87.5" font-family="sans" font-size="10.00" fill="#000000">summary_results</text>
</g>
<!-- 1&#45;&gt;0 -->
<g id="edge1" class="edge">
<title>1&#45;&gt;0</title>
<path fill="none" stroke="#c0c0c0" stroke-width="2" d="M249,-71.8314C249,-64.131 249,-54.9743 249,-46.4166"/>
<polygon fill="#c0c0c0" stroke="#c0c0c0" stroke-width="2" points="252.5001,-46.4132 249,-36.4133 245.5001,-46.4133 252.5001,-46.4132"/>
</g>
<!-- 2 -->
<g id="node3" class="node">
<title>2</title>
<path fill="none" stroke="#56d8a9" stroke-width="2" d="M158,-180C158,-180 12,-180 12,-180 6,-180 0,-174 0,-168 0,-168 0,-156 0,-156 0,-150 6,-144 12,-144 12,-144 158,-144 158,-144 164,-144 170,-150 170,-156 170,-156 170,-168 170,-168 170,-174 164,-180 158,-180"/>
<text text-anchor="middle" x="85" y="-159.5" font-family="sans" font-size="10.00" fill="#000000">summarize_plasmid_prediction</text>
</g>
<!-- 2&#45;&gt;1 -->
<g id="edge3" class="edge">
<title>2&#45;&gt;1</title>
<path fill="none" stroke="#c0c0c0" stroke-width="2" d="M126.3841,-143.8314C148.3182,-134.2018 175.4392,-122.295 198.5931,-112.1299"/>
<polygon fill="#c0c0c0" stroke="#c0c0c0" stroke-width="2" points="200.164,-115.2627 207.9135,-108.038 197.35,-108.8532 200.164,-115.2627"/>
</g>
<!-- 3 -->
<g id="node4" class="node">
<title>3</title>
<path fill="none" stroke="#70d856" stroke-width="2" d="M298,-180C298,-180 200,-180 200,-180 194,-180 188,-174 188,-168 188,-168 188,-156 188,-156 188,-150 194,-144 200,-144 200,-144 298,-144 298,-144 304,-144 310,-150 310,-156 310,-156 310,-168 310,-168 310,-174 304,-180 298,-180"/>
<text text-anchor="middle" x="249" y="-159.5" font-family="sans" font-size="10.00" fill="#000000">summarize_virulence</text>
</g>
<!-- 3&#45;&gt;1 -->
<g id="edge2" class="edge">
<title>3&#45;&gt;1</title>
<path fill="none" stroke="#c0c0c0" stroke-width="2" d="M249,-143.8314C249,-136.131 249,-126.9743 249,-118.4166"/>
<polygon fill="#c0c0c0" stroke="#c0c0c0" stroke-width="2" points="252.5001,-118.4132 249,-108.4133 245.5001,-118.4133 252.5001,-118.4132"/>
</g>
<!-- 4 -->
<g id="node5" class="node">
<title>4</title>
<path fill="none" stroke="#d8cb56" stroke-width="2" d="M479.5,-180C479.5,-180 340.5,-180 340.5,-180 334.5,-180 328.5,-174 328.5,-168 328.5,-168 328.5,-156 328.5,-156 328.5,-150 334.5,-144 340.5,-144 340.5,-144 479.5,-144 479.5,-144 485.5,-144 491.5,-150 491.5,-156 491.5,-156 491.5,-168 491.5,-168 491.5,-174 485.5,-180 479.5,-180"/>
<text text-anchor="middle" x="410" y="-159.5" font-family="sans" font-size="10.00" fill="#000000">generate_resistome_heatmap</text>
</g>
<!-- 4&#45;&gt;1 -->
<g id="edge4" class="edge">
<title>4&#45;&gt;1</title>
<path fill="none" stroke="#c0c0c0" stroke-width="2" d="M369.3729,-143.8314C347.8401,-134.2018 321.2151,-122.295 298.4848,-112.1299"/>
<polygon fill="#c0c0c0" stroke="#c0c0c0" stroke-width="2" points="299.8926,-108.9254 289.335,-108.038 297.0348,-115.3155 299.8926,-108.9254"/>
</g>
<!-- 5 -->
<g id="node6" class="node">
<title>5</title>
<path fill="none" stroke="#afd856" stroke-width="2" d="M128,-252C128,-252 42,-252 42,-252 36,-252 30,-246 30,-240 30,-240 30,-228 30,-228 30,-222 36,-216 42,-216 42,-216 128,-216 128,-216 134,-216 140,-222 140,-228 140,-228 140,-240 140,-240 140,-246 134,-252 128,-252"/>
<text text-anchor="middle" x="85" y="-231.5" font-family="sans" font-size="10.00" fill="#000000">plasmid_prediction</text>
</g>
<!-- 5&#45;&gt;2 -->
<g id="edge5" class="edge">
<title>5&#45;&gt;2</title>
<path fill="none" stroke="#c0c0c0" stroke-width="2" d="M85,-215.8314C85,-208.131 85,-198.9743 85,-190.4166"/>
<polygon fill="#c0c0c0" stroke="#c0c0c0" stroke-width="2" points="88.5001,-190.4132 85,-180.4133 81.5001,-190.4133 88.5001,-190.4132"/>
</g>
<!-- 6 -->
<g id="node7" class="node">
<title>6</title>
<path fill="none" stroke="#d88d56" stroke-width="2" d="M302.5,-252C302.5,-252 195.5,-252 195.5,-252 189.5,-252 183.5,-246 183.5,-240 183.5,-240 183.5,-228 183.5,-228 183.5,-222 189.5,-216 195.5,-216 195.5,-216 302.5,-216 302.5,-216 308.5,-216 314.5,-222 314.5,-228 314.5,-228 314.5,-240 314.5,-240 314.5,-246 308.5,-252 302.5,-252"/>
<text text-anchor="middle" x="249" y="-231.5" font-family="sans" font-size="10.00" fill="#000000">virulence_identification</text>
</g>
<!-- 6&#45;&gt;3 -->
<g id="edge6" class="edge">
<title>6&#45;&gt;3</title>
<path fill="none" stroke="#c0c0c0" stroke-width="2" d="M249,-215.8314C249,-208.131 249,-198.9743 249,-190.4166"/>
<polygon fill="#c0c0c0" stroke="#c0c0c0" stroke-width="2" points="252.5001,-190.4132 249,-180.4133 245.5001,-190.4133 252.5001,-190.4132"/>
</g>
<!-- 7 -->
<g id="node8" class="node">
<title>7</title>
<path fill="none" stroke="#56d873" stroke-width="2" d="M457.5,-252C457.5,-252 362.5,-252 362.5,-252 356.5,-252 350.5,-246 350.5,-240 350.5,-240 350.5,-228 350.5,-228 350.5,-222 356.5,-216 362.5,-216 362.5,-216 457.5,-216 457.5,-216 463.5,-216 469.5,-222 469.5,-228 469.5,-228 469.5,-240 469.5,-240 469.5,-246 463.5,-252 457.5,-252"/>
<text text-anchor="middle" x="410" y="-231.5" font-family="sans" font-size="10.00" fill="#000000">resistome_prediction</text>
</g>
<!-- 7&#45;&gt;4 -->
<g id="edge7" class="edge">
<title>7&#45;&gt;4</title>
<path fill="none" stroke="#c0c0c0" stroke-width="2" d="M410,-215.8314C410,-208.131 410,-198.9743 410,-190.4166"/>
<polygon fill="#c0c0c0" stroke="#c0c0c0" stroke-width="2" points="413.5001,-190.4132 410,-180.4133 406.5001,-190.4133 413.5001,-190.4132"/>
</g>
</g>
</svg>
